SplineFontDB: 3.2
FontName: LinearNewish
FullName: Linear Newish
FamilyName: Linear Newish
Weight: Regular
Copyright: (c) 2026, Daniel Stelzer
UComments: "2026-2-17: Created with FontForge (http://fontforge.org)"
Version: 1.2.0
ItalicAngle: 0
UnderlinePosition: -100
UnderlineWidth: 50
Ascent: 800
Descent: 200
InvalidEm: 0
LayerCount: 2
Layer: 0 0 "Back" 1
Layer: 1 0 "Fore" 0
XUID: [1021 7 780499623 2671459]
OS2Version: 0
OS2_WeightWidthSlopeOnly: 0
OS2_UseTypoMetrics: 1
CreationTime: 1771386212
ModificationTime: 1771386314
OS2TypoAscent: 0
OS2TypoAOffset: 1
OS2TypoDescent: 0
OS2TypoDOffset: 1
OS2TypoLinegap: 0
OS2WinAscent: 0
OS2WinAOffset: 1
OS2WinDescent: 0
OS2WinDOffset: 1
HheadAscent: 0
HheadAOffset: 1
HheadDescent: 0
HheadDOffset: 1
OS2Vendor: 'PfEd'
Lookup: 4 0 1 "ligatures" { "ligsubtable"  } ['liga' ('latn' <'dflt' > 'xsux' <'dflt' > ) ]
DEI: 91125
Encoding: ISO8859-1
UnicodeInterp: none
NameList: AGL For New Fonts
DisplaySize: -48
AntiAlias: 1
FitToEm: 0
BeginChars: 694 438

StartChar: U12038
Encoding: 256 73784 0
Width: 1210
VWidth: 100
Flags: W
HStem: 250 100<100 241.4>
LayerCount: 2
Fore
SplineSet
100 350 m 1
 1110 300 l 1
 100 250 l 1
 100 350 l 1
EndSplineSet
EndChar

StartChar: U12224
Encoding: 257 74276 1
Width: 1710
VWidth: 100
Flags: W
HStem: 250 100<475 541.141 563.389 633.899> 264.471 59.3418<944.261 1032.24> 292.207 15.6523<1276.15 1431.58 1435.07 1590.87>
LayerCount: 2
Fore
SplineSet
1050 800 m 1x40
 1150 800 l 1
 1103.16796875 322.328125 l 1
 1431.58203125 307.859375 l 1
 1383.33203125 800 l 1
 1483.33203125 800 l 1
 1435.06835938 307.70703125 l 1
 1610 300 l 1
 1433.55078125 292.2265625 l 1
 1433.33203125 290 l 1
 1433.11523438 292.20703125 l 1x20
 896.919921875 268.5859375 l 1
 850 -210 l 1
 803.482421875 264.470703125 l 1x40
 475 250 l 1
 475 300 l 1
 475 350 l 1x80
 541.140625 347.0859375 l 1
 211.08984375 618.19921875 l 1
 281.80078125 688.91015625 l 1
 563.388671875 346.10546875 l 1
 1069.47460938 323.8125 l 1
 711.08984375 618.19921875 l 1
 781.80078125 688.91015625 l 1
 1082.16210938 323.251953125 l 1
 1096.80273438 322.607421875 l 1
 1050 800 l 1x40
475 300 m 1
 100 250 l 1
 100 350 l 1x80
 475 300 l 1
1097.40625 195.15625 m 1
 1202.25390625 65.1640625 l 1
 1041.93359375 111.94921875 l 1
 1097.40625 195.15625 l 1
1202.25390625 65.1640625 m 1
 1229.98828125 106.765625 l 1
 1608.3203125 -205.546875 l 1
 1174.515625 23.5625 l 1
 1202.25390625 65.1640625 l 1
EndSplineSet
EndChar

StartChar: U1202e
Encoding: 258 73774 2
Width: 1083
VWidth: 100
Flags: W
HStem: -35.0254 3.4043<832.921 921.596> 296.588 6.85938<811.103 899.553>
VStem: 921.82 11.5117<-141.423 -103.6>
LayerCount: 2
Fore
SplineSet
883.33203125 800 m 1
 983.33203125 800 l 1
 933.33203125 550 l 1
 883.33203125 800 l 1
933.33203125 550 m 1
 983.33203125 550 l 1
 933.33203125 -210 l 1
 921.8203125 -35.025390625 l 1
 308.33203125 -83.33203125 l 1
 308.33203125 -33.33203125 l 1
 308.33203125 16.66796875 l 1
 921.595703125 -31.62109375 l 1
 900.00390625 296.587890625 l 1
 308.33203125 250 l 1
 308.33203125 300 l 1
 308.33203125 350 l 1
 899.552734375 303.447265625 l 1
 883.33203125 550 l 1
 933.33203125 550 l 1
308.33203125 -33.33203125 m 1
 100 -83.33203125 l 1
 100 16.66796875 l 1
 308.33203125 -33.33203125 l 1
308.33203125 300 m 1
 100 250 l 1
 100 350 l 1
 308.33203125 300 l 1
EndSplineSet
EndChar

StartChar: U1202f
Encoding: 259 73775 3
Width: 2083
VWidth: 100
Flags: W
HStem: -35.0254 3.4043<832.921 921.596> 296.588 6.85938<819.338 899.553 1826.43 1907.95>
VStem: 921.82 11.5117<-141.423 -103.6> 1883.33 100<658.604 800>
LayerCount: 2
Fore
SplineSet
883.33203125 800 m 1
 983.33203125 800 l 1
 933.33203125 550 l 1
 883.33203125 800 l 1
933.33203125 550 m 1
 983.33203125 550 l 1
 933.33203125 -210 l 1
 921.8203125 -35.025390625 l 1
 308.33203125 -83.33203125 l 1
 308.33203125 -33.33203125 l 1
 308.33203125 16.66796875 l 1
 921.595703125 -31.62109375 l 1
 900.00390625 296.587890625 l 1
 308.33203125 250 l 1
 308.33203125 300 l 1
 308.33203125 350 l 1
 899.552734375 303.447265625 l 1
 883.33203125 550 l 1
 933.33203125 550 l 1
308.33203125 -33.33203125 m 1
 100 -83.33203125 l 1
 100 16.66796875 l 1
 308.33203125 -33.33203125 l 1
308.33203125 300 m 1
 100 250 l 1
 100 350 l 1
 308.33203125 300 l 1
1883.33203125 800 m 1
 1983.33203125 800 l 1
 1933.33203125 -210 l 1
 1908.22070312 297.236328125 l 1
 1308.33203125 250 l 1
 1308.33203125 300 l 1
 1308.33203125 350 l 1
 1907.94726562 302.787109375 l 1
 1883.33203125 800 l 1
1308.33203125 300 m 1
 1100 250 l 1
 1100 350 l 1
 1308.33203125 300 l 1
EndSplineSet
EndChar

StartChar: U12323
Encoding: 260 74531 4
Width: 1083
VWidth: 100
Flags: W
HStem: 131.215 4.25195<827.54 916.23> 463.256 6.84961<811.101 899.664>
VStem: 883.332 100<658.605 800>
LayerCount: 2
Fore
SplineSet
579.16796875 800 m 1
 554.16796875 675 l 1
 579.16796875 550 l 1
 454.16796875 675 l 1
 579.16796875 800 l 1
883.33203125 800 m 1
 983.33203125 800 l 1
 933.33203125 -210 l 1
 916.439453125 131.21484375 l 1
 308.33203125 83.33203125 l 1
 308.33203125 133.33203125 l 1
 308.33203125 183.33203125 l 1
 916.23046875 135.466796875 l 1
 900.001953125 463.255859375 l 1
 308.33203125 416.66796875 l 1
 308.33203125 466.66796875 l 1
 308.33203125 516.66796875 l 1
 899.6640625 470.10546875 l 1
 883.33203125 800 l 1
308.33203125 133.33203125 m 1
 100 83.33203125 l 1
 100 183.33203125 l 1
 308.33203125 133.33203125 l 1
308.33203125 466.66796875 m 1
 100 416.66796875 l 1
 100 516.66796875 l 1
 308.33203125 466.66796875 l 1
579.16796875 50 m 1
 554.16796875 -75 l 1
 579.16796875 -200 l 1
 454.16796875 -75 l 1
 579.16796875 50 l 1
EndSplineSet
EndChar

StartChar: U12253
Encoding: 261 74323 5
Width: 1583
VWidth: 100
Flags: W
HStem: -34.7129 2.77148<1329.92 1424.52> 629.521 7.64844<1297.04 1391.39>
VStem: 1383.33 100<658.602 800> 1424.65 17.4199<-173.349 -34.7129 -31.9414 108.131>
LayerCount: 2
Fore
SplineSet
1383.33203125 800 m 1xe0
 1483.33203125 800 l 1xe0
 1442.08203125 -33.240234375 l 1
 1443.33203125 -33.33203125 l 1
 1442.07421875 -33.42578125 l 1
 1433.33203125 -210 l 1
 1424.65429688 -34.712890625 l 1xd0
 766.66796875 -83.33203125 l 1
 766.66796875 16.66796875 l 1
 1424.51757812 -31.94140625 l 1
 1408.3359375 294.904296875 l 1
 1100 250 l 1
 1100 300 l 1
 1100 350 l 1
 1407.828125 305.169921875 l 1
 1391.77148438 629.521484375 l 1
 766.66796875 583.33203125 l 1
 766.66796875 683.33203125 l 1
 1391.39257812 637.169921875 l 1
 1383.33203125 800 l 1xe0
1100 300 m 1
 988.890625 250 l 1
 988.890625 350 l 1
 1100 300 l 1
100 516.625 m 1
 776.66796875 466.625 l 1
 100 416.625 l 1
 100 516.625 l 1
100 183.375 m 1
 776.66796875 133.375 l 1
 100 83.375 l 1
 100 183.375 l 1
EndSplineSet
EndChar

StartChar: U12259
Encoding: 262 74329 6
Width: 1583
VWidth: 100
Flags: W
HStem: -34.5605 2.4668<1318.25 1424.53> 256.314 88.1973<826.233 844.807 904.633 924.047> 272.531 55.457<1007.86 1029.87 1086.26 1105.86> 629.939 6.80859<1285.35 1391.41>
VStem: 1383.33 100<658.604 800> 1424.65 17.4277<-173.508 -34.5605 -32.0938 108.123>
LayerCount: 2
Fore
SplineSet
1383.33203125 800 m 1x98
 1483.33203125 800 l 1x98
 1442.08203125 -33.25 l 1
 1443.33203125 -33.33203125 l 1
 1442.07421875 -33.4140625 l 1
 1433.33203125 -210 l 1
 1424.64648438 -34.560546875 l 1x94
 683.33203125 -83.33203125 l 1
 683.33203125 16.66796875 l 1
 1424.52539062 -32.09375 l 1
 1391.75 629.939453125 l 1
 683.33203125 583.33203125 l 1
 683.33203125 683.33203125 l 1
 1391.4140625 636.748046875 l 1
 1383.33203125 800 l 1x98
825 533.33203125 m 1
 925 533.33203125 l 1
 904.6328125 339.169921875 l 1
 1029.87109375 327.98828125 l 1
 1008.33203125 533.33203125 l 1
 1108.33203125 533.33203125 l 1
 1086.26367188 322.953125 l 1
 1214.94140625 311.462890625 l 1
 1191.66796875 533.33203125 l 1
 1291.66796875 533.33203125 l 1
 1267.8984375 306.734375 l 1
 1343.33203125 300 l 1
 1266.47265625 293.13671875 l 1
 1241.66796875 56.66796875 l 1
 1217.32421875 288.75 l 1
 1081.40429688 276.61328125 l 1
 1058.33203125 56.66796875 l 1
 1035.68945312 272.53125 l 1xb0
 896.337890625 260.08984375 l 1
 875 56.66796875 l 1
 854.05859375 256.314453125 l 1
 783.33203125 250 l 1
 783.33203125 350 l 1
 844.806640625 344.51171875 l 1xd0
 825 533.33203125 l 1
100 516.625 m 1
 693.33203125 466.625 l 1
 100 416.625 l 1
 100 516.625 l 1
100 183.375 m 1
 693.33203125 133.375 l 1
 100 83.375 l 1
 100 183.375 l 1
EndSplineSet
EndChar

StartChar: U1201c
Encoding: 263 73756 7
Width: 1583
VWidth: 100
Flags: W
HStem: -76.2285 2.46484<1331.98 1426.59> 132.637 1.47656<671.936 766.668> 172.861 4.29297<1319.65 1414.17> 421.949 6.12305<1307.31 1401.74> 465.887 1.47656<671.936 766.668> 671.039 7.95117<1294.99 1389.32>
VStem: 1389.72 93.6152<658.611 671.039 678.99 800>
LayerCount: 2
Fore
SplineSet
1383.33203125 800 m 1
 1483.33203125 800 l 1
 1440.02734375 -74.755859375 l 1
 1443.33203125 -75 l 1
 1440.00390625 -75.24609375 l 1
 1433.33203125 -210 l 1
 1426.70898438 -76.228515625 l 1
 766.66796875 -125 l 1
 766.66796875 -25 l 1
 1426.58789062 -73.763671875 l 1
 1414.37890625 172.861328125 l 1
 766.66796875 125 l 1
 766.66796875 132.63671875 l 1
 100 83.375 l 1
 100 183.375 l 1
 766.66796875 134.11328125 l 1
 766.66796875 225 l 1
 1414.16601562 177.154296875 l 1
 1402.046875 421.94921875 l 1
 766.66796875 375 l 1
 766.66796875 465.88671875 l 1
 100 416.625 l 1
 100 516.625 l 1
 766.66796875 467.36328125 l 1
 766.66796875 475 l 1
 1401.74414062 428.072265625 l 1
 1389.71679688 671.0390625 l 1
 766.66796875 625 l 1
 766.66796875 725 l 1
 1389.32226562 678.990234375 l 1
 1383.33203125 800 l 1
EndSplineSet
EndChar

StartChar: U120a1
Encoding: 264 73889 8
Width: 2210
VWidth: 100
Flags: W
HStem: -76.2285 2.46484<1331.98 1426.59> 0 21G<100 370.667> 106.846 53.252<1656.25 1748.35> 438.883 55.6895<1639.81 1731.79> 671.039 7.95117<1294.99 1389.32>
VStem: 1389.72 93.6152<658.611 671.039 678.99 800> 1402.12 62.3457<372.57 418.926 513.977 565.842> 1426.71 13.2949<-210 -76.2285 -73.7637 66.2352> 1716.67 100<658.608 800> 1734.54 64.4824<353.148 438.883 494.572 612.671> 1750.98 31.4863<18.7081 106.846 160.098 278.408>
LayerCount: 2
Fore
SplineSet
1383.33203125 800 m 1xfc
 1483.33203125 800 l 1
 1469.171875 513.9765625 l 1
 1731.7890625 494.572265625 l 1
 1716.66796875 800 l 1
 1816.66796875 800 l 1xfc80
 1801.29296875 489.435546875 l 1
 2110 466.625 l 1
 1799.02734375 443.646484375 l 1xf840
 1784.85546875 157.400390625 l 1
 2110 133.375 l 1
 1782.46875 109.171875 l 1
 1766.66796875 -210 l 1
 1750.98242188 106.845703125 l 1
 1447.90820312 84.451171875 l 1
 1440.02734375 -74.755859375 l 1
 1443.33203125 -75 l 1
 1440.00390625 -75.24609375 l 1
 1433.33203125 -210 l 1
 1426.70898438 -76.228515625 l 1xf920
 766.66796875 -125 l 1
 766.66796875 -25 l 1
 1426.58789062 -73.763671875 l 1
 1414.4296875 171.8203125 l 1
 988.890625 125 l 1
 988.890625 225 l 1
 1414.11328125 178.21484375 l 1
 1402.12109375 420.46484375 l 1xfa
 988.890625 375 l 1
 988.890625 475 l 1
 1401.66992188 429.583984375 l 1
 1389.71679688 671.0390625 l 1
 766.66796875 625 l 1
 766.66796875 725 l 1
 1389.32226562 678.990234375 l 1
 1383.33203125 800 l 1xfc
100 600 m 1
 776.66796875 550 l 1
 100 500 l 1
 100 600 l 1
1734.54492188 438.8828125 m 1xfa40
 1464.46679688 418.92578125 l 1
 1452.734375 181.94140625 l 1
 1748.34570312 160.09765625 l 1
 1734.54492188 438.8828125 l 1xfa40
100 100 m 1
 776.66796875 50 l 1
 100 0 l 1
 100 100 l 1
EndSplineSet
EndChar

StartChar: Ue00f
Encoding: 265 57359 9
Width: 2083
VWidth: 100
Flags: W
HStem: -76.3379 2.68555<1228.65 1315.47> -34.8359 3.01953<1837.71 1924.51> 0 21G<100 348.444> 629.184 8.33008<1804.84 1891.38> 670.686 8.66406<1191.67 1278.2>
VStem: 1278.2 88.0762<679.785 800> 1883.33 100<658.603 800> 1924.66 17.4121<-173.231 -34.8359 -31.8164 108.131>
LayerCount: 2
Fore
SplineSet
1272.22265625 800 m 1xfd
 1372.22265625 800 l 1
 1366.27148438 679.78515625 l 1
 1891.375 637.513671875 l 1
 1883.33203125 800 l 1
 1983.33203125 800 l 1xfe
 1942.08203125 -33.232421875 l 1
 1943.33203125 -33.33203125 l 1
 1942.07226562 -33.43359375 l 1
 1933.33203125 -210 l 1
 1924.66015625 -34.8359375 l 1
 1328.51757812 -82.826171875 l 1
 1322.22265625 -210 l 1
 1315.60546875 -76.337890625 l 1
 711.109375 -125 l 1
 711.109375 -25 l 1
 1315.47265625 -73.65234375 l 1
 1303.33398438 171.5390625 l 1
 914.81640625 125 l 1
 914.81640625 225 l 1
 1302.99023438 178.501953125 l 1
 1291.03125 420.06640625 l 1
 914.81640625 375 l 1
 914.81640625 475 l 1
 1290.5390625 429.9921875 l 1
 1278.625 670.685546875 l 1
 711.109375 625 l 1
 711.109375 725 l 1
 1278.1953125 679.349609375 l 1
 1272.22265625 800 l 1xfd
1891.7890625 629.18359375 m 1
 1361.65429688 586.505859375 l 1
 1333.40039062 15.767578125 l 1
 1924.51171875 -31.81640625 l 1
 1891.7890625 629.18359375 l 1
100 600 m 1
 721.109375 550 l 1
 100 500 l 1
 100 600 l 1
1537.5 550 m 1
 1512.5 425 l 1
 1537.5 300 l 1
 1412.5 425 l 1
 1537.5 550 l 1
1537.5 300 m 1
 1512.5 175 l 1
 1537.5 50 l 1
 1412.5 175 l 1
 1537.5 300 l 1
1843.0546875 550 m 1
 1818.0546875 425 l 1
 1843.0546875 300 l 1
 1718.0546875 425 l 1
 1843.0546875 550 l 1
1843.0546875 300 m 1
 1818.0546875 175 l 1
 1843.0546875 50 l 1
 1718.0546875 175 l 1
 1843.0546875 300 l 1
100 100 m 1
 721.109375 50 l 1
 100 0 l 1
 100 100 l 1
EndSplineSet
EndChar

StartChar: U12362
Encoding: 266 74594 10
Width: 1583
VWidth: 100
Flags: W
HStem: -34.7129 2.77148<1329.92 1424.52> 0 21G<100 370.667> 629.521 7.64844<1297.04 1391.39>
VStem: 1089.51 10.4941<89.9771 123.405> 1100 10.7266<92.1965 123.398> 1383.33 100<658.602 800> 1424.65 17.4199<-173.349 -34.7129 -31.9414 108.131>
LayerCount: 2
Fore
SplineSet
1383.33203125 800 m 1xe4
 1483.33203125 800 l 1xe4
 1442.08203125 -33.240234375 l 1
 1443.33203125 -33.33203125 l 1
 1442.07421875 -33.42578125 l 1
 1433.33203125 -210 l 1
 1424.65429688 -34.712890625 l 1xe2
 766.66796875 -83.33203125 l 1
 766.66796875 16.66796875 l 1
 1424.51757812 -31.94140625 l 1
 1391.77148438 629.521484375 l 1
 766.66796875 583.33203125 l 1
 766.66796875 683.33203125 l 1
 1391.39257812 637.169921875 l 1
 1383.33203125 800 l 1xe4
100 600 m 1
 776.66796875 550 l 1
 100 500 l 1
 100 600 l 1
1050 533.33203125 m 1
 1150 533.33203125 l 1
 1140 437.99609375 l 1
 1343.33203125 416.66796875 l 1
 1135.47460938 394.865234375 l 1
 1115.79101562 207.19921875 l 1
 1343.33203125 183.33203125 l 1
 1110.7265625 158.93359375 l 1
 1100 56.66796875 l 1xe8
 1089.50585938 156.70703125 l 1xf0
 866.66796875 133.33203125 l 1
 866.66796875 233.33203125 l 1
 1083.859375 210.548828125 l 1
 1065.296875 387.50390625 l 1
 866.66796875 366.66796875 l 1
 866.66796875 466.66796875 l 1
 1059.109375 446.482421875 l 1
 1050 533.33203125 l 1
100 100 m 1
 776.66796875 50 l 1
 100 0 l 1
 100 100 l 1
EndSplineSet
EndChar

StartChar: U1234f
Encoding: 267 74575 11
Width: 1583
VWidth: 100
Flags: W
HStem: -34.7129 2.77148<1329.92 1424.52> 0 21G<100 370.667> 629.521 7.64844<1297.04 1391.39>
VStem: 1383.33 100<658.602 800> 1424.65 17.4199<-173.349 -34.7129 -31.9414 108.131>
LayerCount: 2
Fore
SplineSet
1383.33203125 800 m 1xf0
 1483.33203125 800 l 1xf0
 1442.08203125 -33.240234375 l 1
 1443.33203125 -33.33203125 l 1
 1442.07421875 -33.42578125 l 1
 1433.33203125 -210 l 1
 1424.65429688 -34.712890625 l 1xe8
 766.66796875 -83.33203125 l 1
 766.66796875 16.66796875 l 1
 1424.51757812 -31.94140625 l 1
 1391.77148438 629.521484375 l 1
 766.66796875 583.33203125 l 1
 766.66796875 683.33203125 l 1
 1391.39257812 637.169921875 l 1
 1383.33203125 800 l 1xf0
100 600 m 1
 776.66796875 550 l 1
 100 500 l 1
 100 600 l 1
1183.33203125 466.66796875 m 1
 1116.66796875 300 l 1
 1183.33203125 133.33203125 l 1
 1016.66796875 300 l 1
 1183.33203125 466.66796875 l 1
100 100 m 1
 776.66796875 50 l 1
 100 0 l 1
 100 100 l 1
EndSplineSet
EndChar

StartChar: U12321
Encoding: 268 74529 12
Width: 1583
VWidth: 100
Flags: W
HStem: -34.7129 2.77148<1329.92 1424.52> 0 21G<100 370.667> 629.521 7.64844<1297.04 1391.39>
VStem: 1383.33 100<658.602 800> 1424.65 17.4199<-173.349 -34.7129 -31.9414 108.131>
LayerCount: 2
Fore
SplineSet
1383.33203125 800 m 1xf0
 1483.33203125 800 l 1xf0
 1442.08203125 -33.240234375 l 1
 1443.33203125 -33.33203125 l 1
 1442.07421875 -33.42578125 l 1
 1433.33203125 -210 l 1
 1424.65429688 -34.712890625 l 1xe8
 766.66796875 -83.33203125 l 1
 766.66796875 16.66796875 l 1
 1424.51757812 -31.94140625 l 1
 1391.77148438 629.521484375 l 1
 766.66796875 583.33203125 l 1
 766.66796875 683.33203125 l 1
 1391.39257812 637.169921875 l 1
 1383.33203125 800 l 1xf0
100 600 m 1
 776.66796875 550 l 1
 100 500 l 1
 100 600 l 1
1183.33203125 466.66796875 m 1
 1116.66796875 300 l 1
 1183.33203125 133.33203125 l 1
 1016.66796875 300 l 1
 1183.33203125 466.66796875 l 1
100 100 m 1
 776.66796875 50 l 1
 100 0 l 1
 100 100 l 1
EndSplineSet
EndChar

StartChar: U12350
Encoding: 269 74576 13
Width: 1583
VWidth: 100
Flags: W
HStem: -34.7129 2.77148<1329.92 1424.52> 0 21G<100 370.667> 629.521 7.64844<1297.04 1391.39>
VStem: 1383.33 100<658.602 800> 1424.65 17.4199<-173.349 -34.7129 -31.9414 108.131>
LayerCount: 2
Fore
SplineSet
1383.33203125 800 m 1xf0
 1483.33203125 800 l 1xf0
 1442.08203125 -33.240234375 l 1
 1443.33203125 -33.33203125 l 1
 1442.07421875 -33.42578125 l 1
 1433.33203125 -210 l 1
 1424.65429688 -34.712890625 l 1xe8
 766.66796875 -83.33203125 l 1
 766.66796875 16.66796875 l 1
 1424.51757812 -31.94140625 l 1
 1391.77148438 629.521484375 l 1
 766.66796875 583.33203125 l 1
 766.66796875 683.33203125 l 1
 1391.39257812 637.169921875 l 1
 1383.33203125 800 l 1xf0
100 600 m 1
 776.66796875 550 l 1
 100 500 l 1
 100 600 l 1
1183.33203125 466.66796875 m 1
 1116.66796875 300 l 1
 1183.33203125 133.33203125 l 1
 1016.66796875 300 l 1
 1183.33203125 466.66796875 l 1
100 100 m 1
 776.66796875 50 l 1
 100 0 l 1
 100 100 l 1
EndSplineSet
EndChar

StartChar: U12261
Encoding: 270 74337 14
Width: 1210
VWidth: 100
Flags: W
HStem: 250 100<100 241.406> 264.15 71.6992<333.769 385.85 475.143 599.105>
LayerCount: 2
Fore
SplineSet
850 800 m 1x40
 475.142578125 331.427734375 l 1
 1110 300 l 1
 475.142578125 268.572265625 l 1
 850 -200 l 1
 385.849609375 264.150390625 l 1x40
 100 250 l 1
 100 350 l 1x80
 385.849609375 335.849609375 l 1
 850 800 l 1x40
EndSplineSet
EndChar

StartChar: U12318
Encoding: 271 74520 15
Width: 1583
VWidth: 100
Flags: W
HStem: -34.9219 3.19531<1327.08 1421.6> 631.391 3.94141<1322.32 1416.27>
LayerCount: 2
Fore
SplineSet
1383.33203125 800 m 1
 1483.33203125 800 l 1
 1433.33203125 550 l 1
 1417.0546875 631.390625 l 1
 766.66796875 583.33203125 l 1
 766.66796875 683.33203125 l 1
 1416.265625 635.33203125 l 1
 1383.33203125 800 l 1
1433.33203125 550 m 1
 1483.33203125 550 l 1
 1433.33203125 -210 l 1
 1421.81445312 -34.921875 l 1
 766.66796875 -83.33203125 l 1
 766.66796875 16.66796875 l 1
 1421.60351562 -31.7265625 l 1
 1391.1796875 430.7265625 l 1
 1338.890625 300 l 1
 1405.5546875 133.33203125 l 1
 1238.890625 300 l 1
 1389.84765625 450.9609375 l 1
 1383.33203125 550 l 1
 1433.33203125 550 l 1
100 516.625 m 1
 776.66796875 466.625 l 1
 100 416.625 l 1
 100 516.625 l 1
961.109375 466.66796875 m 1
 894.4453125 300 l 1
 961.109375 133.33203125 l 1
 794.4453125 300 l 1
 961.109375 466.66796875 l 1
1183.33203125 466.66796875 m 1
 1116.66796875 300 l 1
 1183.33203125 133.33203125 l 1
 1016.66796875 300 l 1
 1183.33203125 466.66796875 l 1
100 183.375 m 1
 776.66796875 133.375 l 1
 100 83.375 l 1
 100 183.375 l 1
EndSplineSet
EndChar

StartChar: U12015
Encoding: 272 73749 16
Width: 1583
VWidth: 100
Flags: W
HStem: -34.9219 3.19531<1327.08 1421.6> 0 21G<100 370.667> 631.391 3.94141<1322.32 1416.27>
LayerCount: 2
Fore
SplineSet
1383.33203125 800 m 1
 1483.33203125 800 l 1
 1433.33203125 550 l 1
 1417.0546875 631.390625 l 1
 766.66796875 583.33203125 l 1
 766.66796875 683.33203125 l 1
 1416.265625 635.33203125 l 1
 1383.33203125 800 l 1
1433.33203125 550 m 1
 1483.33203125 550 l 1
 1433.33203125 -210 l 1
 1421.81445312 -34.921875 l 1
 766.66796875 -83.33203125 l 1
 766.66796875 16.66796875 l 1
 1421.60351562 -31.7265625 l 1
 1391.1796875 430.7265625 l 1
 1338.890625 300 l 1
 1405.5546875 133.33203125 l 1
 1238.890625 300 l 1
 1389.84765625 450.9609375 l 1
 1383.33203125 550 l 1
 1433.33203125 550 l 1
100 600 m 1
 776.66796875 550 l 1
 100 500 l 1
 100 600 l 1
961.109375 466.66796875 m 1
 894.4453125 300 l 1
 961.109375 133.33203125 l 1
 794.4453125 300 l 1
 961.109375 466.66796875 l 1
1183.33203125 466.66796875 m 1
 1116.66796875 300 l 1
 1183.33203125 133.33203125 l 1
 1016.66796875 300 l 1
 1183.33203125 466.66796875 l 1
100 100 m 1
 776.66796875 50 l 1
 100 0 l 1
 100 100 l 1
EndSplineSet
EndChar

StartChar: U12229
Encoding: 273 74281 17
Width: 1583
VWidth: 100
Flags: W
HStem: -34.7129 2.77148<1329.92 1424.52> 0 21G<100 370.667> 629.521 7.64844<1297.04 1391.39>
VStem: 1383.33 100<658.602 800> 1424.65 17.4199<-173.349 -34.7129 -31.9414 108.131>
LayerCount: 2
Fore
SplineSet
1383.33203125 800 m 1xf0
 1483.33203125 800 l 1xf0
 1442.08203125 -33.240234375 l 1
 1443.33203125 -33.33203125 l 1
 1442.07421875 -33.42578125 l 1
 1433.33203125 -210 l 1
 1424.65429688 -34.712890625 l 1xe8
 766.66796875 -83.33203125 l 1
 766.66796875 16.66796875 l 1
 1424.51757812 -31.94140625 l 1
 1391.77148438 629.521484375 l 1
 766.66796875 583.33203125 l 1
 766.66796875 683.33203125 l 1
 1391.39257812 637.169921875 l 1
 1383.33203125 800 l 1xf0
100 600 m 1
 776.66796875 550 l 1
 100 500 l 1
 100 600 l 1
933.33203125 533.33203125 m 1
 1033.33203125 533.33203125 l 1
 983.33203125 56.66796875 l 1
 933.33203125 533.33203125 l 1
1166.66796875 533.33203125 m 1
 1266.66796875 533.33203125 l 1
 1216.66796875 416.66796875 l 1
 1166.66796875 533.33203125 l 1
1216.66796875 416.66796875 m 1
 1266.66796875 416.66796875 l 1
 1216.66796875 56.66796875 l 1
 1166.66796875 416.66796875 l 1
 1216.66796875 416.66796875 l 1
100 100 m 1
 776.66796875 50 l 1
 100 0 l 1
 100 100 l 1
EndSplineSet
EndChar

StartChar: U120f6
Encoding: 274 73974 18
Width: 1710
VWidth: 100
Flags: W
HStem: 0 21G<100 404>
LayerCount: 2
Fore
SplineSet
850 683.33203125 m 1
 1610 633.33203125 l 1
 850 583.33203125 l 1
 850 683.33203125 l 1
100 600 m 1
 860 550 l 1
 100 500 l 1
 100 600 l 1
850 350 m 1
 1037.5 300 l 1
 850 250 l 1
 850 350 l 1
1037.5 300 m 1
 1037.5 350 l 1
 1610 300 l 1
 1037.5 250 l 1
 1037.5 300 l 1
100 100 m 1
 860 50 l 1
 100 0 l 1
 100 100 l 1
850 16.66796875 m 1
 1610 -33.33203125 l 1
 850 -83.33203125 l 1
 850 16.66796875 l 1
EndSplineSet
EndChar

StartChar: U120a6
Encoding: 275 73894 19
Width: 2210
VWidth: 100
Flags: W
HStem: -34.5605 2.4668<1234.92 1341.19> 0 21G<100 304> 23.9082 52.3535<1607.02 1710.83> 522.287 55.6074<1582.35 1686> 629.939 6.80859<1202.02 1308.08>
VStem: 1300 100<658.604 800> 1308.42 81.5508<597.371 629.939 636.748 738.769> 1320.19 65.0723<360.921 392.146 434.75 502.32> 1332.12 33.1797<98.9941 107.989> 1341.31 17.4277<-42.4091 -34.5605 -32.0938 0.685547 98.9941 107.422> 1675 100<658.61 800> 1713.42 23.2363<-65.1339 23.9082 76.2617 202.007>
LayerCount: 2
Fore
SplineSet
1300 800 m 1xfc
 1400 800 l 1xfc
 1389.96875 597.37109375 l 1
 1685.99609375 577.89453125 l 1
 1675 800 l 1
 1775 800 l 1xfa20
 1763.75195312 572.779296875 l 1
 2110 550 l 1
 1761.48828125 527.072265625 l 1
 1739.08007812 74.40234375 l 1
 2110 50 l 1
 1736.65625 25.4375 l 1
 1725 -210 l 1
 1713.41992188 23.908203125 l 1
 1360.4296875 0.685546875 l 1
 1358.75 -33.25 l 1
 1360 -33.33203125 l 1
 1358.7421875 -33.4140625 l 1
 1350 -210 l 1
 1341.31445312 -34.560546875 l 1xf850
 600 -83.33203125 l 1
 600 16.66796875 l 1
 1341.19335938 -32.09375 l 1
 1332.1171875 151.21484375 l 1xf880
 1184.109375 299.22265625 l 1
 600 250 l 1
 600 350 l 1
 1184.109375 300.77734375 l 1
 1318.08203125 434.75 l 1
 1308.41796875 629.939453125 l 1xfa
 600 583.33203125 l 1
 600 683.33203125 l 1
 1308.08203125 636.748046875 l 1
 1300 800 l 1xfc
100 600 m 1
 610 550 l 1
 100 500 l 1
 100 600 l 1
1688.74804688 522.287109375 m 1
 1385.26367188 502.3203125 l 1xf9
 1365.296875 98.994140625 l 1xf880
 1710.828125 76.26171875 l 1
 1688.74804688 522.287109375 l 1
1320.19140625 392.146484375 m 1
 1283.33203125 300 l 1
 1330.60351562 181.82421875 l 1
 1320.19140625 392.146484375 l 1
100 100 m 1
 610 50 l 1
 100 0 l 1
 100 100 l 1
EndSplineSet
EndChar

StartChar: U12217
Encoding: 276 74263 20
Width: 2210
VWidth: 100
Flags: W
HStem: 0 21G<100 370.667> 133.334 2.42383<2101.3 2109.7> 133.807 1.95117<2101.3 2109.7>
LayerCount: 2
Fore
SplineSet
789.02734375 844.72265625 m 1xc0
 1433.63085938 467.2578125 l 1
 1455.6953125 511.38671875 l 1
 2100.49804688 133.806640625 l 1xa0
 2109.703125 135.7578125 l 1
 2101.3046875 133.333984375 l 1
 2108.9453125 128.859375 l 1
 2099.51953125 132.818359375 l 1
 778.79296875 -248.5078125 l 1
 754.5390625 -151.4921875 l 1
 2098.28125 133.337890625 l 1
 1410.97265625 421.9453125 l 1
 1433.0390625 466.07421875 l 1
 744.3046875 755.27734375 l 1
 789.02734375 844.72265625 l 1xc0
100 600 m 1
 776.66796875 550 l 1
 100 500 l 1
 100 600 l 1
789.02734375 511.38671875 m 1
 1442.27734375 128.859375 l 1
 744.3046875 421.9453125 l 1
 789.02734375 511.38671875 l 1
100 100 m 1
 776.66796875 50 l 1
 100 0 l 1
 100 100 l 1
EndSplineSet
EndChar

StartChar: LIG_DI3M_RAB_GAM
Encoding: 277 -1 21
Width: 2210
VWidth: 100
Flags: W
HStem: 0 21G<100 294>
LayerCount: 2
Fore
SplineSet
607.0078125 838.41015625 m 1
 975.603515625 467.390625 l 1
 1007.0078125 505.078125 l 1
 1382.68359375 126.9296875 l 1
 942.9921875 428.25390625 l 1
 974.3984375 465.943359375 l 1
 542.9921875 761.58984375 l 1
 607.0078125 838.41015625 l 1
1625 800 m 1
 1475 550 l 1
 1625 300 l 1
 1375 550 l 1
 1625 800 l 1
1625 300 m 1
 1625 350 l 1
 1743.75 300 l 1
 1625 250 l 1
 1625 300 l 1
1625 300 m 1
 1475 50 l 1
 1625 -200 l 1
 1375 50 l 1
 1625 300 l 1
1743.75 300 m 1
 1743.75 350 l 1
 2110 300 l 1
 1743.75 250 l 1
 1743.75 300 l 1
100 600 m 1
 585 550 l 1
 100 500 l 1
 100 600 l 1
607.0078125 505.078125 m 1
 675 383.33203125 l 1
 542.9921875 428.25390625 l 1
 607.0078125 505.078125 l 1
675 383.33203125 m 1
 707.0078125 421.74609375 l 1
 982.68359375 126.9296875 l 1
 642.9921875 344.921875 l 1
 675 383.33203125 l 1
1800.375 187.9921875 m 1
 2106.88671875 -207.25 l 1
 1727.875 119.1171875 l 1
 1800.375 187.9921875 l 1
100 100 m 1
 585 50 l 1
 100 0 l 1
 100 100 l 1
575 16.66796875 m 1
 1385 -33.33203125 l 1
 575 -83.33203125 l 1
 575 16.66796875 l 1
EndSplineSet
Ligature2: "ligsubtable" U12290 U120f5
EndChar

StartChar: U1214b
Encoding: 278 74059 22
Width: 2132
VWidth: 100
Flags: W
HStem: 0 21G<100 386.35>
VStem: 1461.77 100<658.6 800> 1697.06 100<658.6 800>
LayerCount: 2
Fore
SplineSet
1461.76953125 800 m 1
 1561.76953125 800 l 1
 1511.76953125 -210 l 1
 1494.49804688 138.8828125 l 1
 1151.359375 267.02734375 l 1
 827.2265625 88.12109375 l 1
 784.5234375 178.546875 l 1
 1077.13085938 294.748046875 l 1
 960.9921875 338.12109375 l 1
 982.34375 383.33203125 l 1
 1003.6953125 428.546875 l 1
 1170.61523438 331.873046875 l 1
 1478.8828125 454.294921875 l 1
 1461.76953125 800 l 1
982.34375 383.33203125 m 1
 791.13671875 420.1796875 l 1
 805.875 383.33203125 l 1
 640.041015625 549.166015625 l 1
 100 500 l 1
 100 600 l 1
 640.041015625 550.833984375 l 1
 805.875 716.66796875 l 1
 739.20703125 550 l 1
 787.828125 428.44921875 l 1
 827.2265625 511.87890625 l 1
 982.34375 383.33203125 l 1
1697.0625 800 m 1
 1797.0625 800 l 1
 1747.0625 -210 l 1
 1697.0625 800 l 1
1932.35546875 800 m 1
 2032.35546875 800 l 1
 1982.35546875 550 l 1
 1932.35546875 800 l 1
1982.35546875 550 m 1
 2032.35546875 550 l 1
 1982.35546875 -210 l 1
 1932.35546875 550 l 1
 1982.35546875 550 l 1
1479.19726562 447.978515625 m 1
 1218.546875 304.111328125 l 1
 1494.22265625 144.451171875 l 1
 1479.19726562 447.978515625 l 1
100 100 m 1
 815.875 50 l 1
 100 0 l 1
 100 100 l 1
EndSplineSet
EndChar

StartChar: U1227c
Encoding: 279 74364 23
Width: 1710
VWidth: 100
Flags: W
HStem: 250 100<100 311.391> 265.41 66.9609<461.121 565.41 672.475 847.491> 583.332 100<100 311.4>
LayerCount: 2
Fore
SplineSet
100 683.33203125 m 1x20
 1610 633.33203125 l 1
 100 583.33203125 l 1
 100 683.33203125 l 1x20
100 350 m 1xa0
 632.37109375 332.37109375 l 1
 635.35546875 335.35546875 l 1
 637.111328125 332.21484375 l 1
 1610 300 l 1
 672.474609375 268.95703125 l 1
 725 175 l 1
 564.64453125 264.64453125 l 1
 565.41015625 265.41015625 l 1x60
 100 250 l 1
 100 350 l 1xa0
725 175 m 1
 760.35546875 210.35546875 l 1
 1107.0703125 -207.0703125 l 1
 689.64453125 139.64453125 l 1
 725 175 l 1
EndSplineSet
EndChar

StartChar: U12252
Encoding: 280 74322 24
Width: 1710
VWidth: 100
Flags: W
HStem: 0 21G<100 404.002 850 1154> 49.3418 1.31641<743.599 850> 549.342 1.31641<743.599 850>
LayerCount: 2
Fore
SplineSet
100 600 m 1
 850 550.658203125 l 1
 850 600 l 1
 1610 550 l 1
 850 500 l 1
 850 549.341796875 l 1
 100 500 l 1
 100 600 l 1
100 100 m 1
 850 50.658203125 l 1
 850 100 l 1
 1610 50 l 1
 850 0 l 1
 850 49.341796875 l 1
 100 0 l 1
 100 100 l 1
EndSplineSet
EndChar

StartChar: U120f4
Encoding: 281 73972 25
Width: 2200
VWidth: 100
Flags: W
HStem: 0 21G<100 384>
LayerCount: 2
Fore
SplineSet
1029.0625 840.6875 m 1
 1700.0390625 300.703125 l 1
 1701.83789062 301.837890625 l 1
 2100 700 l 1
 1800 300 l 1
 2100 -100 l 1
 1701.83789062 298.162109375 l 1
 1700.0390625 299.296875 l 1
 1029.0625 -240.6875 l 1
 970.9375 -159.3125 l 1
 1698.92382812 300 l 1
 970.9375 759.3125 l 1
 1029.0625 840.6875 l 1
1000 700 m 1
 700 300 l 1
 1000 -100 l 1
 600 300 l 1
 1000 700 l 1
100 600 m 1
 810 550 l 1
 100 500 l 1
 100 600 l 1
100 100 m 1
 810 50 l 1
 100 0 l 1
 100 100 l 1
EndSplineSet
EndChar

StartChar: U121b0
Encoding: 282 74160 26
Width: 1200
VWidth: 100
Flags: W
LayerCount: 2
Fore
SplineSet
1100 800 m 1
 950 550 l 1
 1100 300 l 1
 850 550 l 1
 1100 800 l 1
1100 300 m 1
 950 50 l 1
 1100 -200 l 1
 850 50 l 1
 1100 300 l 1
641.66796875 633.33203125 m 1
 428.216796875 328.40625 l 1
 860 300 l 1
 428.216796875 271.59375 l 1
 641.66796875 -33.33203125 l 1
 342.38671875 265.947265625 l 1
 100 250 l 1
 100 350 l 1
 342.38671875 334.052734375 l 1
 641.66796875 633.33203125 l 1
EndSplineSet
EndChar

StartChar: U12123
Encoding: 283 74019 27
Width: 1700
VWidth: 100
Flags: W
HStem: 0 21G<850 1087.33>
LayerCount: 2
Fore
SplineSet
1600 716.66796875 m 1
 1533.33203125 550 l 1
 1600 383.33203125 l 1
 1434.109375 549.22265625 l 1
 850 500 l 1
 850 600 l 1
 1434.109375 550.77734375 l 1
 1600 716.66796875 l 1
850 675 m 1
 575 300 l 1
 850 -75 l 1
 475 300 l 1
 850 675 l 1
100 516.625 m 1
 485 466.625 l 1
 100 416.625 l 1
 100 516.625 l 1
1600 216.66796875 m 1
 1533.33203125 50 l 1
 1600 -116.66796875 l 1
 1434.109375 49.22265625 l 1
 850 0 l 1
 850 100 l 1
 1434.109375 50.77734375 l 1
 1600 216.66796875 l 1
100 183.375 m 1
 485 133.375 l 1
 100 83.375 l 1
 100 183.375 l 1
EndSplineSet
EndChar

StartChar: U12258
Encoding: 284 74328 28
Width: 2083
VWidth: 100
Flags: W
HStem: -83.332 100<850 1003.07> -34.1875 1.71484<1789.03 1924.54> 583.332 100<850 1003.06> 630.971 4.73242<1738.63 1891.46>
VStem: 1714.47 12.8809<176.461 183.4> 1883.33 100<658.602 800> 1924.63 17.4453<-173.859 -34.1875 -32.4727 108.102>
LayerCount: 2
Fore
SplineSet
1883.33203125 800 m 1x1c
 1983.33203125 800 l 1x1c
 1942.08007812 -33.275390625 l 1
 1943.33203125 -33.33203125 l 1
 1942.07421875 -33.388671875 l 1
 1933.33203125 -210 l 1
 1924.62890625 -34.1875 l 1x5a
 850 -83.33203125 l 1
 850 16.66796875 l 1x8a
 1924.54296875 -32.47265625 l 1
 1891.69921875 630.970703125 l 1x5a
 850 583.33203125 l 1
 850 683.33203125 l 1x2a
 1891.46484375 635.703125 l 1
 1883.33203125 800 l 1x1c
850 550 m 1
 700 300 l 1
 850 50 l 1
 600 300 l 1
 850 550 l 1
100 516.625 m 1
 610 466.625 l 1
 100 416.625 l 1
 100 516.625 l 1
1348.99609375 460.35546875 m 1
 1395.7109375 342.9296875 l 1
 1312.67773438 375.962890625 l 1
 1341.68554688 303.044921875 l 1
 1373.99609375 335.35546875 l 1
 1420.7109375 217.9296875 l 1
 1303.28515625 264.64453125 l 1
 1335.59570312 296.955078125 l 1
 1262.67773438 325.962890625 l 1
 1295.7109375 242.9296875 l 1
 1178.28515625 289.64453125 l 1
 1228.28515625 339.64453125 l 1
 1278.28515625 389.64453125 l 1
 1348.99609375 460.35546875 l 1
1677.34765625 450 m 1
 1777.34765625 450 l 1
 1727.34765625 140 l 1
 1714.46679688 219.861328125 l 1
 1515.3046875 175 l 1
 1515.3046875 275 l 1
 1712.74609375 230.525390625 l 1
 1691.12109375 364.603515625 l 1
 1515.3046875 325 l 1
 1515.3046875 425 l 1
 1687.640625 386.181640625 l 1
 1677.34765625 450 l 1
950 425 m 1
 1171.97265625 375 l 1
 950 325 l 1
 950 425 l 1
950 275 m 1
 1171.97265625 225 l 1
 950 175 l 1
 950 275 l 1
100 183.375 m 1
 610 133.375 l 1
 100 83.375 l 1
 100 183.375 l 1
EndSplineSet
EndChar

StartChar: U12124
Encoding: 285 74020 29
Width: 2200
VWidth: 100
Flags: W
HStem: 0 21G<100 454>
LayerCount: 2
Fore
SplineSet
2100 800 m 1
 2033.33203125 633.33203125 l 1
 2100 466.66796875 l 1
 1933.98242188 632.681640625 l 1
 1225 583.33203125 l 1
 1225 683.33203125 l 1
 1933.98242188 633.982421875 l 1
 2100 800 l 1
100 600 m 1
 985 550 l 1
 100 500 l 1
 100 600 l 1
1225 550 m 1
 1075 300 l 1
 1225 50 l 1
 975 300 l 1
 1225 550 l 1
1485.41796875 466.66796875 m 1
 1502.08203125 383.33203125 l 1
 1485.41796875 300 l 1
 1402.08203125 383.33203125 l 1
 1485.41796875 466.66796875 l 1
1485.41796875 300 m 1
 1502.08203125 216.66796875 l 1
 1485.41796875 133.33203125 l 1
 1402.08203125 216.66796875 l 1
 1485.41796875 300 l 1
1922.91796875 466.66796875 m 1
 1939.58203125 383.33203125 l 1
 1922.91796875 300 l 1
 1839.58203125 383.33203125 l 1
 1922.91796875 466.66796875 l 1
1922.91796875 300 m 1
 1939.58203125 216.66796875 l 1
 1922.91796875 133.33203125 l 1
 1839.58203125 216.66796875 l 1
 1922.91796875 300 l 1
2100 133.33203125 m 1
 2033.33203125 -33.33203125 l 1
 2100 -200 l 1
 1933.98242188 -33.982421875 l 1
 1225 -83.33203125 l 1
 1225 16.66796875 l 1
 1933.98242188 -32.681640625 l 1
 2100 133.33203125 l 1
100 100 m 1
 985 50 l 1
 100 0 l 1
 100 100 l 1
EndSplineSet
EndChar

StartChar: LIG_NI2NDAxCE_A_AN_DMS
Encoding: 286 -1 30
Width: 3083
VWidth: 100
Flags: W
HStem: 296.82 6.38867<2831.01 2907.93>
VStem: 1661.11 100<658.6 800> 2883.33 100<658.601 800>
LayerCount: 2
Fore
SplineSet
1661.109375 800 m 1
 1761.109375 800 l 1
 1711.109375 -210 l 1
 1661.109375 800 l 1
1994.4453125 800 m 1
 2094.4453125 800 l 1
 2044.4453125 550 l 1
 1994.4453125 800 l 1
2044.4453125 550 m 1
 2094.4453125 550 l 1
 2044.4453125 -210 l 1
 1994.4453125 550 l 1
 2044.4453125 550 l 1
2883.33203125 800 m 1
 2983.33203125 800 l 1
 2933.33203125 -210 l 1
 2908.2421875 296.8203125 l 1
 2391.66796875 250 l 1
 2391.66796875 300 l 1
 2391.66796875 350 l 1
 2907.92578125 303.208984375 l 1
 2883.33203125 800 l 1
2391.66796875 300 m 1
 2211.109375 250 l 1
 2211.109375 350 l 1
 2391.66796875 300 l 1
822.22265625 683.33203125 m 1
 1554.4453125 633.33203125 l 1
 822.22265625 583.33203125 l 1
 822.22265625 683.33203125 l 1
100 516.625 m 1
 832.22265625 466.625 l 1
 100 416.625 l 1
 100 516.625 l 1
1025.92578125 466.66796875 m 1
 959.2578125 300 l 1
 1025.92578125 133.33203125 l 1
 859.2578125 300 l 1
 1025.92578125 466.66796875 l 1
1225 466.66796875 m 1
 1241.66796875 383.33203125 l 1
 1225 300 l 1
 1141.66796875 383.33203125 l 1
 1225 466.66796875 l 1
1225 300 m 1
 1241.66796875 216.66796875 l 1
 1225 133.33203125 l 1
 1141.66796875 216.66796875 l 1
 1225 300 l 1
1465.7421875 466.66796875 m 1
 1482.40625 383.33203125 l 1
 1465.7421875 300 l 1
 1382.40625 383.33203125 l 1
 1465.7421875 466.66796875 l 1
1465.7421875 300 m 1
 1482.40625 216.66796875 l 1
 1465.7421875 133.33203125 l 1
 1382.40625 216.66796875 l 1
 1465.7421875 300 l 1
100 183.375 m 1
 832.22265625 133.375 l 1
 100 83.375 l 1
 100 183.375 l 1
822.22265625 16.66796875 m 1
 1554.4453125 -33.33203125 l 1
 822.22265625 -83.33203125 l 1
 822.22265625 16.66796875 l 1
EndSplineSet
Ligature2: "ligsubtable" U1225a U12000 U1202d
EndChar

StartChar: U1232b
Encoding: 287 74539 31
Width: 2083
VWidth: 100
Flags: W
HStem: 0 21G<100 404.002 850 1154> 49.3418 1.31641<743.599 850 1482.62 1587.05> 546.877 6.26562<1456.13 1562.22>
VStem: 1550 100<658.6 800> 1883.33 100<658.6 800>
LayerCount: 2
Fore
SplineSet
1550 800 m 1
 1650 800 l 1
 1600 -210 l 1
 1587.203125 48.5 l 1
 850 0 l 1
 850 49.341796875 l 1
 100 0 l 1
 100 100 l 1
 850 50.658203125 l 1
 850 100 l 1
 1587.0546875 51.509765625 l 1
 1562.53125 546.876953125 l 1
 850 500 l 1
 850 600 l 1
 1562.22070312 553.142578125 l 1
 1550 800 l 1
1883.33203125 800 m 1
 1983.33203125 800 l 1
 1933.33203125 -210 l 1
 1883.33203125 800 l 1
850 716.66796875 m 1
 783.33203125 550 l 1
 850 383.33203125 l 1
 684.109375 549.22265625 l 1
 100 500 l 1
 100 600 l 1
 684.109375 550.77734375 l 1
 850 716.66796875 l 1
EndSplineSet
EndChar

StartChar: U12308
Encoding: 288 74504 32
Width: 2210
VWidth: 100
Flags: W
HStem: -125 100<1100 1241.4> -83.332 100<100 241.397> -33.8262 0.988281<958.603 1100> 250 100<100 241.4>
LayerCount: 2
Fore
SplineSet
683.33203125 800 m 1x10
 616.66796875 633.33203125 l 1
 683.33203125 466.66796875 l 1
 516.66796875 633.33203125 l 1
 683.33203125 800 l 1x10
1433.33203125 725 m 1
 2110 675 l 1
 1433.33203125 625 l 1
 1433.33203125 725 l 1
1433.33203125 475 m 1
 2110 425 l 1
 1433.33203125 375 l 1
 1433.33203125 475 l 1
100 350 m 1
 1110 300 l 1
 100 250 l 1
 100 350 l 1
1433.33203125 225 m 1
 2110 175 l 1
 1433.33203125 125 l 1
 1433.33203125 225 l 1
100 16.66796875 m 1x50
 1100 -32.837890625 l 1x30
 1100 -25 l 1
 2110 -75 l 1
 1100 -125 l 1x90
 1100 -33.826171875 l 1x30
 100 -83.33203125 l 1
 100 16.66796875 l 1x50
EndSplineSet
EndChar

StartChar: U12095
Encoding: 289 73877 33
Width: 1583
VWidth: 100
Flags: W
HStem: -76.3887 2.79102<1329.81 1424.36> -34.0703 1.47656<671.936 766.668> 299.402 0.597656<768.59 776.668> 300 0.705078<768.59 776.668> 672.451 5.17383<1314.11 1407.81>
LayerCount: 2
Fore
SplineSet
1383.33203125 800 m 1xc8
 1483.33203125 800 l 1
 1433.33203125 550 l 1
 1408.84179688 672.451171875 l 1
 766.66796875 625 l 1
 766.66796875 725 l 1
 1407.80664062 677.625 l 1
 1383.33203125 800 l 1xc8
1433.33203125 550 m 1
 1483.33203125 550 l 1
 1442.21875 -74.91796875 l 1
 1443.33203125 -75 l 1
 1442.20898438 -75.083984375 l 1
 1433.33203125 -210 l 1
 1424.54101562 -76.388671875 l 1
 766.66796875 -125 l 1
 766.66796875 -34.0703125 l 1
 100 -83.33203125 l 1
 100 16.66796875 l 1
 766.66796875 -32.59375 l 1
 766.66796875 -25 l 1
 1424.35742188 -73.59765625 l 1
 1415.02148438 68.310546875 l 1
 1309.16210938 174.169921875 l 1
 766.66796875 125 l 1
 766.66796875 225 l 1
 1309.16210938 175.830078125 l 1
 1401.84960938 268.517578125 l 1
 1397.41601562 335.916015625 l 1
 1309.16210938 424.169921875 l 1
 766.66796875 375 l 1
 766.66796875 475 l 1
 1309.16210938 425.830078125 l 1
 1386.41796875 503.0859375 l 1
 1383.33203125 550 l 1
 1433.33203125 550 l 1
325.26171875 693.5546875 m 1
 767.126953125 300.705078125 l 1xd8
 776.66796875 300 l 1
 768.58984375 299.40234375 l 1xe8
 774.66796875 294 l 1
 766.322265625 299.236328125 l 1
 100 250 l 1
 100 350 l 1
 763.55859375 300.96875 l 1
 265.26171875 613.5546875 l 1
 325.26171875 693.5546875 l 1
EndSplineSet
EndChar

StartChar: U121f8
Encoding: 290 74232 34
Width: 2200
VWidth: 100
Flags: W
LayerCount: 2
Fore
SplineSet
1392.30078125 779.80078125 m 1
 1525.05078125 579.21875 l 1
 1531.1875 585.35546875 l 1
 1669.5703125 376.26171875 l 1
 1460.4765625 514.64453125 l 1
 1522.171875 576.33984375 l 1
 1321.58984375 709.08984375 l 1
 1392.30078125 779.80078125 l 1
1281.1875 668.6875 m 1
 1419.5703125 459.59375 l 1
 1210.4765625 597.9765625 l 1
 1281.1875 668.6875 l 1
1170.078125 557.578125 m 1
 1302.83007812 356.994140625 l 1
 1364.5234375 418.6875 l 1
 1502.90625 209.59375 l 1
 1293.8125 347.9765625 l 1
 1299.95117188 354.115234375 l 1
 1099.3671875 486.8671875 l 1
 1170.078125 557.578125 l 1
2100 550 m 1
 1950 300 l 1
 2100 50 l 1
 1850 300 l 1
 2100 550 l 1
100 516.625 m 1
 985 466.625 l 1
 100 416.625 l 1
 100 516.625 l 1
100 183.375 m 1
 985 133.375 l 1
 100 83.375 l 1
 100 183.375 l 1
975 16.66796875 m 1
 1860 -33.33203125 l 1
 975 -83.33203125 l 1
 975 16.66796875 l 1
EndSplineSet
EndChar

StartChar: U1207a
Encoding: 291 73850 35
Width: 1583
VWidth: 100
Flags: W
HStem: -83.332 100<433.332 574.73> -34.2578 1.85547<1300.66 1424.54> 250 100<100 288.063> 298.691 2.62305<1220.09 1408.02> 630.461 5.75781<1265.88 1391.44>
VStem: 1383.33 100<658.603 800> 1424.63 17.4414<-173.778 -34.2578 -32.4023 108.107>
LayerCount: 2
Fore
SplineSet
1383.33203125 800 m 1x1c
 1483.33203125 800 l 1x1c
 1442.08007812 -33.26953125 l 1
 1443.33203125 -33.33203125 l 1
 1442.07421875 -33.39453125 l 1
 1433.33203125 -210 l 1
 1424.6328125 -34.2578125 l 1x5a
 433.33203125 -83.33203125 l 1
 433.33203125 -33.33203125 l 1
 433.33203125 16.66796875 l 1x8a
 1424.5390625 -32.40234375 l 1
 1408.1484375 298.69140625 l 1x5a
 100 250 l 1
 100 350 l 1x2a
 1408.01953125 301.314453125 l 1
 1391.72460938 630.4609375 l 1
 544.4453125 583.33203125 l 1
 544.4453125 683.33203125 l 1
 1391.43945312 636.21875 l 1
 1383.33203125 800 l 1x1c
433.33203125 -33.33203125 m 1
 100 -83.33203125 l 1
 100 16.66796875 l 1x88
 433.33203125 -33.33203125 l 1
EndSplineSet
EndChar

StartChar: U1207d
Encoding: 292 73853 36
Width: 1583
VWidth: 100
Flags: W
HStem: 174.186 1.62891<618.184 704.168> 424.186 1.62891<618.184 704.168>
LayerCount: 2
Fore
SplineSet
829.16796875 800 m 1
 804.16796875 675 l 1
 829.16796875 550 l 1
 704.16796875 675 l 1
 829.16796875 800 l 1
1383.33203125 800 m 1
 1483.33203125 800 l 1
 1433.33203125 550 l 1
 1383.33203125 800 l 1
1433.33203125 550 m 1
 1483.33203125 550 l 1
 1433.33203125 -210 l 1
 1415.02148438 68.310546875 l 1
 1309.08398438 174.248046875 l 1
 704.16796875 125 l 1
 704.16796875 174.185546875 l 1
 100 125 l 1
 100 225 l 1
 704.16796875 175.814453125 l 1
 704.16796875 225 l 1
 1309.08398438 175.751953125 l 1
 1401.84960938 268.517578125 l 1
 1397.41601562 335.916015625 l 1
 1309.08398438 424.248046875 l 1
 704.16796875 375 l 1
 704.16796875 424.185546875 l 1
 100 375 l 1
 100 475 l 1
 704.16796875 425.814453125 l 1
 704.16796875 475 l 1
 1309.08398438 425.751953125 l 1
 1386.41796875 503.0859375 l 1
 1383.33203125 550 l 1
 1433.33203125 550 l 1
829.16796875 50 m 1
 804.16796875 -75 l 1
 829.16796875 -200 l 1
 704.16796875 -75 l 1
 829.16796875 50 l 1
EndSplineSet
EndChar

StartChar: U12041
Encoding: 293 73793 37
Width: 1200
VWidth: 100
Flags: W
LayerCount: 2
Fore
SplineSet
1100 466.66796875 m 1
 1033.33203125 300 l 1
 1100 133.33203125 l 1
 933.892578125 299.439453125 l 1
 100 250 l 1
 100 350 l 1
 933.892578125 300.560546875 l 1
 1100 466.66796875 l 1
EndSplineSet
EndChar

StartChar: U12458
Encoding: 294 74840 38
Width: 1200
VWidth: 100
Flags: W
LayerCount: 2
Fore
SplineSet
1100 466.66796875 m 1
 1033.33203125 300 l 1
 1100 133.33203125 l 1
 933.892578125 299.439453125 l 1
 100 250 l 1
 100 350 l 1
 933.892578125 300.560546875 l 1
 1100 466.66796875 l 1
EndSplineSet
EndChar

StartChar: U12080
Encoding: 295 73856 39
Width: 2083
VWidth: 100
Flags: W
HStem: -34.0371 1.41016<700.598 800 1479.13 1591.2>
VStem: 963.709 5.89648<6.5625 124.268> 1552.36 97.6406<658.599 712.203 752.359 800> 1883.33 100<658.6 800>
LayerCount: 2
Fore
SplineSet
533.33203125 800 m 1
 466.66796875 633.33203125 l 1
 533.33203125 466.66796875 l 1
 366.66796875 633.33203125 l 1
 533.33203125 800 l 1
916.66796875 800 m 1
 1016.66796875 800 l 1
 969.60546875 6.19921875 l 1
 1591.19726562 -32.171875 l 1
 1581.08984375 171.966796875 l 1
 1133.33203125 125 l 1
 1133.33203125 225 l 1
 1580.7890625 178.064453125 l 1
 1569.09765625 414.236328125 l 1
 1393.23828125 590.09765625 l 1
 1133.33203125 541.66796875 l 1
 1133.33203125 641.66796875 l 1
 1393.23828125 593.23828125 l 1
 1552.359375 752.359375 l 1
 1550 800 l 1
 1650 800 l 1
 1608.75 -33.25390625 l 1
 1610 -33.33203125 l 1
 1608.7421875 -33.41015625 l 1
 1600 -210 l 1
 1591.31054688 -34.486328125 l 1
 800 -83.33203125 l 1
 800 -34.037109375 l 1
 100 -83.33203125 l 1
 100 16.66796875 l 1
 800 -32.626953125 l 1
 800 16.66796875 l 1
 963.708984375 6.5625 l 1
 916.66796875 800 l 1
1883.33203125 800 m 1
 1983.33203125 800 l 1
 1933.33203125 -210 l 1
 1883.33203125 800 l 1
1554.34570312 712.203125 m 1
 1491.66796875 591.66796875 l 1
 1567.53710938 445.763671875 l 1
 1554.34570312 712.203125 l 1
100 350 m 1
 810 300 l 1
 100 250 l 1
 100 350 l 1
EndSplineSet
EndChar

StartChar: U120fe
Encoding: 296 73982 40
Width: 1710
VWidth: 100
Flags: W
HStem: -34.5605 2.4668<734.916 841.193> -33.8633 0.53125<1601.91 1610> -33.332 0.65625<1601.91 1610>
VStem: 800 100<658.603 800> 820.191 55.8164<293.357 315.359 434.75 532.701>
LayerCount: 2
Fore
SplineSet
800 800 m 1x90
 900 800 l 1
 881.31640625 422.5859375 l 1
 1600.03515625 -32.67578125 l 1x30
 1610 -33.33203125 l 1
 1601.91015625 -33.86328125 l 1x50
 1608.7421875 -38.19140625 l 1
 1600.03125 -33.98828125 l 1
 856.291015625 -82.91796875 l 1
 850 -210 l 1
 841.314453125 -34.560546875 l 1
 100 -83.33203125 l 1
 100 16.66796875 l 1
 841.193359375 -32.09375 l 1
 832.1171875 151.21484375 l 1
 684.109375 299.22265625 l 1
 100 250 l 1
 100 350 l 1
 684.109375 300.77734375 l 1
 818.08203125 434.75 l 1
 800 800 l 1x90
820.19140625 392.146484375 m 1x08
 783.33203125 300 l 1
 830.603515625 181.82421875 l 1
 820.19140625 392.146484375 l 1x08
876.0078125 315.359375 m 1
 861.185546875 15.931640625 l 1
 1596.8828125 -32.46875 l 1
 876.0078125 315.359375 l 1
EndSplineSet
EndChar

StartChar: U12351
Encoding: 297 74577 41
Width: 1083
VWidth: 100
Flags: W
HStem: 0 21G<100 437.329> 48.6484 2.71094<802.462 920.393>
VStem: 889.621 93.7109<672.957 800>
LayerCount: 2
Fore
SplineSet
883.33203125 800 m 1
 983.33203125 800 l 1
 933.33203125 -210 l 1
 920.52734375 48.6484375 l 1
 100 0 l 1
 100 100 l 1
 920.392578125 51.359375 l 1
 902.4296875 414.236328125 l 1
 767.35546875 549.3125 l 1
 100 500 l 1
 100 600 l 1
 767.35546875 550.6875 l 1
 889.62109375 672.95703125 l 1
 883.33203125 800 l 1
892.509765625 614.607421875 m 1
 866.66796875 550 l 1
 899.810546875 467.140625 l 1
 892.509765625 614.607421875 l 1
EndSplineSet
EndChar

StartChar: U12157
Encoding: 298 74071 42
Width: 1710
VWidth: 100
Flags: W
HStem: -59.1523 51.8086<1111.13 1214.97> -34.5605 2.4668<734.916 841.193> 273.098 53.9805<1094.68 1198.41>
VStem: 800 100<658.603 800> 820.191 57.4414<348.182 392.146 434.75 489.582> 830.604 42.2441<181.824 251.504> 1175 100<658.601 800> 1201.08 47.9883<185.667 273.098 327.078 452.213> 1217.53 14.9863<-148.738 -59.1523 -7.34375 111.814>
LayerCount: 2
Fore
SplineSet
800 800 m 1x7080
 900 800 l 1x7080
 877.6328125 348.181640625 l 1
 1198.41210938 327.078125 l 1
 1175 800 l 1
 1275 800 l 1x6a
 1251.41601562 323.591796875 l 1
 1610 300 l 1
 1249.07226562 276.25390625 l 1x61
 1234.96679688 -8.658203125 l 1
 1610 -33.33203125 l 1
 1232.51757812 -58.166015625 l 1
 1225 -210 l 1
 1217.53125 -59.15234375 l 1xa080
 856.291015625 -82.91796875 l 1
 850 -210 l 1
 841.314453125 -34.560546875 l 1
 100 -83.33203125 l 1
 100 16.66796875 l 1
 841.193359375 -32.09375 l 1
 832.1171875 151.21484375 l 1
 684.109375 299.22265625 l 1
 100 250 l 1
 100 350 l 1
 684.109375 300.77734375 l 1
 818.08203125 434.75 l 1
 800 800 l 1x7080
820.19140625 392.146484375 m 1x28
 783.33203125 300 l 1
 830.603515625 181.82421875 l 1x24
 820.19140625 392.146484375 l 1x28
1201.08398438 273.09765625 m 1xa5
 872.84765625 251.50390625 l 1
 861.185546875 15.931640625 l 1
 1214.96679688 -7.34375 l 1
 1201.08398438 273.09765625 l 1xa5
EndSplineSet
EndChar

StartChar: U1215e
Encoding: 299 74078 43
Width: 2083
VWidth: 100
Flags: W
HStem: -34.3398 2.02148<878.242 1007.87 1794.9 1924.54> 273.094 54.2031<1401.25 1446.61 1502.98 1547.49>
VStem: 966.668 94.1074<680.953 800> 986.859 69.1875<444.056 561.376> 1883.33 100<658.598 800> 1924.64 17.4375<-173.7 -34.3398 -32.3184 108.112>
LayerCount: 2
Fore
SplineSet
966.66796875 800 m 1xe4
 1066.66796875 800 l 1
 1060.77539062 680.953125 l 1
 1891.44335938 636.130859375 l 1
 1883.33203125 800 l 1
 1983.33203125 800 l 1xe8
 1942.08203125 -33.263671875 l 1
 1943.33203125 -33.33203125 l 1
 1942.07421875 -33.400390625 l 1
 1933.33203125 -210 l 1
 1924.63671875 -34.33984375 l 1
 1022.95507812 -82.9921875 l 1
 1016.66796875 -210 l 1
 1007.97265625 -34.33984375 l 1
 100 -83.33203125 l 1
 100 16.66796875 l 1
 1007.87109375 -32.318359375 l 1
 998.78515625 151.21484375 l 1
 850.6171875 299.3828125 l 1
 100 250 l 1
 100 350 l 1
 850.6171875 300.6171875 l 1
 984.75 434.75 l 1
 966.66796875 800 l 1xe4
1891.72070312 630.546875 m 1
 1056.046875 585.45703125 l 1xd0
 1027.859375 16.064453125 l 1
 1924.53515625 -32.318359375 l 1
 1891.72070312 630.546875 l 1
1425 533.33203125 m 1
 1525 533.33203125 l 1
 1502.98046875 323.41796875 l 1
 1843.33203125 300 l 1
 1498.03320312 276.240234375 l 1
 1475 56.66796875 l 1
 1452.29882812 273.09375 l 1
 1116.66796875 250 l 1
 1116.66796875 350 l 1
 1446.61132812 327.296875 l 1
 1425 533.33203125 l 1
986.859375 392.146484375 m 1
 950 300 l 1
 997.271484375 181.82421875 l 1
 986.859375 392.146484375 l 1
EndSplineSet
EndChar

StartChar: U1233a
Encoding: 300 74554 44
Width: 2083
VWidth: 100
Flags: W
HStem: -34.3398 2.02148<878.242 1007.87 1794.9 1924.54> 273.094 54.2031<1401.25 1446.61 1502.98 1547.49>
VStem: 966.668 94.1074<680.953 800> 986.859 69.1875<444.056 561.376> 1883.33 100<658.598 800> 1924.64 17.4375<-173.7 -34.3398 -32.3184 108.112>
LayerCount: 2
Fore
SplineSet
966.66796875 800 m 1xe4
 1066.66796875 800 l 1
 1060.77539062 680.953125 l 1
 1891.44335938 636.130859375 l 1
 1883.33203125 800 l 1
 1983.33203125 800 l 1xe8
 1942.08203125 -33.263671875 l 1
 1943.33203125 -33.33203125 l 1
 1942.07421875 -33.400390625 l 1
 1933.33203125 -210 l 1
 1924.63671875 -34.33984375 l 1
 1022.95507812 -82.9921875 l 1
 1016.66796875 -210 l 1
 1007.97265625 -34.33984375 l 1
 100 -83.33203125 l 1
 100 16.66796875 l 1
 1007.87109375 -32.318359375 l 1
 998.78515625 151.21484375 l 1
 850.6171875 299.3828125 l 1
 100 250 l 1
 100 350 l 1
 850.6171875 300.6171875 l 1
 984.75 434.75 l 1
 966.66796875 800 l 1xe4
1891.72070312 630.546875 m 1
 1056.046875 585.45703125 l 1xd0
 1027.859375 16.064453125 l 1
 1924.53515625 -32.318359375 l 1
 1891.72070312 630.546875 l 1
1425 533.33203125 m 1
 1525 533.33203125 l 1
 1502.98046875 323.41796875 l 1
 1843.33203125 300 l 1
 1498.03320312 276.240234375 l 1
 1475 56.66796875 l 1
 1452.29882812 273.09375 l 1
 1116.66796875 250 l 1
 1116.66796875 350 l 1
 1446.61132812 327.296875 l 1
 1425 533.33203125 l 1
986.859375 392.146484375 m 1
 950 300 l 1
 997.271484375 181.82421875 l 1
 986.859375 392.146484375 l 1
EndSplineSet
EndChar

StartChar: U1217b
Encoding: 301 74107 45
Width: 2083
VWidth: 100
Flags: W
HStem: -83.0215 99.1348<944.525 1081.02> -34.4395 2.22266<809.64 924.531 1786.39 1924.54> 254.889 90.8105<1049.85 1103.01 1163.26 1210.87> 267.154 66.1191<1248.56 1304.32 1361.97 1409.22> 279.422 41.4258<1447.31 1505.62 1560.69 1607.67> 585.281 95.8672<977.449 1114.1> 630.777 5.12305<1750.31 1891.46>
VStem: 883.332 94.1172<681.148 800> 903.523 69.1797<443.887 561.374> 924.641 14.9766<-125.282 -83.0215 16.1133 107.481> 1883.33 100<658.603 800> 1924.63 17.4414<-173.778 -34.2578 -32.4023 108.107>
LayerCount: 2
Fore
SplineSet
883.33203125 800 m 1x41
 983.33203125 800 l 1
 977.44921875 681.1484375 l 1x45
 1891.45507812 635.900390625 l 1
 1883.33203125 800 l 1
 1983.33203125 800 l 1x0320
 1942.08007812 -33.26953125 l 1
 1943.33203125 -33.33203125 l 1
 1942.07421875 -33.39453125 l 1
 1933.33203125 -210 l 1
 1924.6328125 -34.2578125 l 1
 939.6171875 -83.021484375 l 1x8250
 933.33203125 -210 l 1
 924.640625 -34.439453125 l 1x4050
 100 -83.33203125 l 1
 100 16.66796875 l 1
 924.53125 -32.216796875 l 1
 915.44921875 151.21484375 l 1
 767.35546875 299.3125 l 1
 100 250 l 1
 100 350 l 1
 767.35546875 300.6875 l 1
 901.4140625 434.748046875 l 1
 883.33203125 800 l 1x41
1891.70898438 630.77734375 m 1x8280
 972.703125 585.28125 l 1x0480
 944.525390625 16.11328125 l 1
 1924.5390625 -32.40234375 l 1
 1891.70898438 630.77734375 l 1x8280
1083.33203125 533.33203125 m 1
 1183.33203125 533.33203125 l 1
 1163.25976562 341.98046875 l 1
 1304.31640625 333.2734375 l 1x10
 1283.33203125 533.33203125 l 1
 1383.33203125 533.33203125 l 1
 1361.97265625 329.71484375 l 1
 1505.62109375 320.84765625 l 1
 1483.33203125 533.33203125 l 1
 1583.33203125 533.33203125 l 1
 1560.6875 317.447265625 l 1
 1706.92382812 308.419921875 l 1
 1683.33203125 533.33203125 l 1
 1783.33203125 533.33203125 l 1
 1759.40039062 305.181640625 l 1
 1843.33203125 300 l 1
 1758.30664062 294.751953125 l 1
 1733.33203125 56.66796875 l 1
 1708.6796875 291.6875 l 1
 1557.00195312 282.32421875 l 1
 1533.33203125 56.66796875 l 1
 1509.96679688 279.421875 l 1x08
 1355.69921875 269.8984375 l 1
 1333.33203125 56.66796875 l 1
 1311.25195312 267.154296875 l 1x10
 1154.39648438 257.47265625 l 1
 1133.33203125 56.66796875 l 1
 1112.5390625 254.888671875 l 1
 1033.33203125 250 l 1
 1033.33203125 350 l 1
 1103.01367188 345.69921875 l 1x20
 1083.33203125 533.33203125 l 1
903.5234375 392.142578125 m 1x0080
 866.66796875 300 l 1
 913.935546875 181.828125 l 1
 903.5234375 392.142578125 l 1x0080
EndSplineSet
EndChar

StartChar: U1217e
Encoding: 302 74110 46
Width: 2083
VWidth: 100
Flags: W
HStem: -83.0234 99.1387<944.486 1080.98> -34.4395 2.22266<809.606 924.492 1786.39 1924.54> 329.205 96.0059<1233.16 1308.27> 373.943 3.8457<1793.86 1843.33> 585.279 95.8711<977.41 1114.06> 630.777 5.12305<1750.31 1891.46>
VStem: 883.293 94.1172<681.15 800> 903.484 69.1797<443.886 561.376> 924.602 14.9766<-125.283 -83.0234 16.1152 107.481> 1883.33 100<658.603 800> 1924.63 17.4414<-173.778 -34.2578 -32.4023 108.107>
LayerCount: 2
Fore
SplineSet
883.29296875 800 m 1x42
 983.29296875 800 l 1
 977.41015625 681.150390625 l 1x4a
 1891.45507812 635.900390625 l 1
 1883.33203125 800 l 1
 1983.33203125 800 l 1x0640
 1942.08007812 -33.26953125 l 1
 1943.33203125 -33.33203125 l 1
 1942.07421875 -33.39453125 l 1
 1933.33203125 -210 l 1
 1924.6328125 -34.2578125 l 1
 939.578125 -83.0234375 l 1x84a0
 933.29296875 -210 l 1
 924.6015625 -34.439453125 l 1x40a0
 100 -83.33203125 l 1
 100 16.66796875 l 1
 924.4921875 -32.216796875 l 1
 915.41015625 151.21484375 l 1
 767.3125 299.3125 l 1
 100 250 l 1
 100 350 l 1
 767.3125 300.6875 l 1
 901.375 434.75 l 1
 883.29296875 800 l 1x42
1891.70898438 630.77734375 m 1x85
 972.6640625 585.279296875 l 1x09
 944.486328125 16.115234375 l 1
 1924.5390625 -32.40234375 l 1
 1891.70898438 630.77734375 l 1x85
1150 533.33203125 m 1
 1250 533.33203125 l 1
 1233.1640625 425.2109375 l 1x20
 1843.33203125 377.7890625 l 1
 1793.859375 373.943359375 l 1x10
 1770.92773438 226.6796875 l 1
 1843.33203125 222.2109375 l 1
 1769.52148438 217.654296875 l 1
 1744.453125 56.66796875 l 1
 1719.86132812 214.58984375 l 1
 1590.03515625 206.576171875 l 1
 1566.69140625 56.66796875 l 1
 1543.79296875 203.720703125 l 1
 1410.55273438 195.49609375 l 1
 1388.93359375 56.66796875 l 1
 1367.7265625 192.853515625 l 1
 1033.33203125 172.2109375 l 1
 1033.33203125 272.2109375 l 1
 1192.18945312 262.404296875 l 1
 1150 533.33203125 l 1
903.484375 392.146484375 m 1x01
 866.625 300 l 1
 913.896484375 181.82421875 l 1
 903.484375 392.146484375 l 1x01
1696.22851562 366.35546875 m 1
 1613.91992188 359.958984375 l 1
 1594.85742188 237.548828125 l 1
 1717.46484375 229.98046875 l 1
 1696.22851562 366.35546875 l 1
1520.59179688 352.705078125 m 1
 1433.984375 345.974609375 l 1
 1418.79296875 248.416015625 l 1
 1537.97851562 241.05859375 l 1
 1520.59179688 352.705078125 l 1
1344.9609375 339.056640625 m 1
 1218.21289062 329.205078125 l 1x20
 1207.66210938 261.44921875 l 1
 1358.49414062 252.138671875 l 1
 1344.9609375 339.056640625 l 1
EndSplineSet
EndChar

StartChar: U12387
Encoding: 303 74631 47
Width: 2083
VWidth: 100
Flags: W
HStem: -34.3398 2.02148<878.242 1007.87 1794.9 1924.54>
VStem: 966.668 94.1074<680.953 800> 986.859 69.1875<444.056 561.376> 1883.33 100<658.598 800> 1924.64 17.4375<-173.7 -34.3398 -32.3184 108.112>
LayerCount: 2
Fore
SplineSet
966.66796875 800 m 1xc8
 1066.66796875 800 l 1
 1060.77539062 680.953125 l 1
 1891.44335938 636.130859375 l 1
 1883.33203125 800 l 1
 1983.33203125 800 l 1xd0
 1942.08203125 -33.263671875 l 1
 1943.33203125 -33.33203125 l 1
 1942.07421875 -33.400390625 l 1
 1933.33203125 -210 l 1
 1924.63671875 -34.33984375 l 1
 1022.95507812 -82.9921875 l 1
 1016.66796875 -210 l 1
 1007.97265625 -34.33984375 l 1
 100 -83.33203125 l 1
 100 16.66796875 l 1
 1007.87109375 -32.318359375 l 1
 998.78515625 151.21484375 l 1
 850.6171875 299.3828125 l 1
 100 250 l 1
 100 350 l 1
 850.6171875 300.6171875 l 1
 984.75 434.75 l 1
 966.66796875 800 l 1xc8
1891.72070312 630.546875 m 1
 1056.046875 585.45703125 l 1xa0
 1027.859375 16.064453125 l 1
 1924.53515625 -32.318359375 l 1
 1891.72070312 630.546875 l 1
1622.91796875 533.33203125 m 1
 1606.25 416.66796875 l 1
 1622.91796875 300 l 1
 1506.25 416.66796875 l 1
 1622.91796875 533.33203125 l 1
1693.75 533.33203125 m 1
 1793.75 533.33203125 l 1
 1743.75 56.66796875 l 1
 1693.75 533.33203125 l 1
1116.66796875 466.66796875 m 1
 1295.83203125 419.310546875 l 1
 1295.83203125 466.66796875 l 1
 1485 416.66796875 l 1
 1295.83203125 366.66796875 l 1
 1295.83203125 414.025390625 l 1
 1116.66796875 366.66796875 l 1
 1116.66796875 466.66796875 l 1
986.859375 392.146484375 m 1
 950 300 l 1
 997.271484375 181.82421875 l 1
 986.859375 392.146484375 l 1
1514.58203125 300 m 1
 1614.58203125 300 l 1
 1564.58203125 56.66796875 l 1
 1514.58203125 300 l 1
1116.66796875 233.33203125 m 1
 1295.83203125 185.974609375 l 1
 1295.83203125 233.33203125 l 1
 1485 183.33203125 l 1
 1295.83203125 133.33203125 l 1
 1295.83203125 180.689453125 l 1
 1116.66796875 133.33203125 l 1
 1116.66796875 233.33203125 l 1
EndSplineSet
EndChar

StartChar: U12384
Encoding: 304 74628 48
Width: 2083
VWidth: 100
Flags: W
HStem: -34.3398 2.02148<878.242 1007.87 1794.9 1924.54> 157.262 52.5195<1389.11 1458.94 1490.83 1561.66> 388.926 55.8887<1413.42 1434.29 1515.13 1536.38>
VStem: 966.668 94.1074<680.953 800> 986.859 69.1875<444.056 561.376> 1464.45 10.5508<90.522 123.402> 1475 10.7051<91.9903 123.408> 1883.33 100<658.598 800> 1924.64 17.4375<-173.7 -34.3398 -32.3184 108.112>
LayerCount: 2
Fore
SplineSet
966.66796875 800 m 1xf080
 1066.66796875 800 l 1
 1060.77539062 680.953125 l 1
 1891.44335938 636.130859375 l 1
 1883.33203125 800 l 1
 1983.33203125 800 l 1xf1
 1942.08203125 -33.263671875 l 1
 1943.33203125 -33.33203125 l 1
 1942.07421875 -33.400390625 l 1
 1933.33203125 -210 l 1
 1924.63671875 -34.33984375 l 1
 1022.95507812 -82.9921875 l 1
 1016.66796875 -210 l 1
 1007.97265625 -34.33984375 l 1
 100 -83.33203125 l 1
 100 16.66796875 l 1
 1007.87109375 -32.318359375 l 1
 998.78515625 151.21484375 l 1
 850.6171875 299.3828125 l 1
 100 250 l 1
 100 350 l 1
 850.6171875 300.6171875 l 1
 984.75 434.75 l 1
 966.66796875 800 l 1xf080
1891.72070312 630.546875 m 1
 1056.046875 585.45703125 l 1xe8
 1027.859375 16.064453125 l 1
 1924.53515625 -32.318359375 l 1
 1891.72070312 630.546875 l 1
1425 533.33203125 m 1
 1525 533.33203125 l 1
 1515.13085938 439.25 l 1
 1843.33203125 416.66796875 l 1
 1510.359375 393.7578125 l 1
 1490.83007812 207.5859375 l 1
 1843.33203125 183.33203125 l 1
 1485.70507812 158.724609375 l 1
 1475 56.66796875 l 1xe2
 1464.44921875 157.26171875 l 1xe4
 1116.66796875 133.33203125 l 1
 1116.66796875 233.33203125 l 1
 1458.93945312 209.78125 l 1
 1440.1484375 388.92578125 l 1
 1116.66796875 366.66796875 l 1
 1116.66796875 466.66796875 l 1
 1434.28515625 444.814453125 l 1
 1425 533.33203125 l 1
986.859375 392.146484375 m 1xe8
 950 300 l 1
 997.271484375 181.82421875 l 1
 986.859375 392.146484375 l 1xe8
EndSplineSet
EndChar

StartChar: U12380
Encoding: 305 74624 49
Width: 2083
VWidth: 100
Flags: W
HStem: -34.3398 2.02148<878.242 1007.87 1794.9 1924.54> 181.271 4.16016<1575.2 1653.16> 412.443 8.5293<1550.95 1628.45>
VStem: 966.668 94.1074<680.953 800> 986.859 69.1875<444.056 561.376> 1653.6 13.0703<114.538 123.401> 1883.33 100<658.598 800> 1924.64 17.4375<-173.7 -34.3398 -32.3184 108.112>
LayerCount: 2
Fore
SplineSet
966.66796875 800 m 1xf5
 1066.66796875 800 l 1
 1060.77539062 680.953125 l 1
 1891.44335938 636.130859375 l 1
 1883.33203125 800 l 1
 1983.33203125 800 l 1xf6
 1942.08203125 -33.263671875 l 1
 1943.33203125 -33.33203125 l 1
 1942.07421875 -33.400390625 l 1
 1933.33203125 -210 l 1
 1924.63671875 -34.33984375 l 1
 1022.95507812 -82.9921875 l 1
 1016.66796875 -210 l 1
 1007.97265625 -34.33984375 l 1
 100 -83.33203125 l 1
 100 16.66796875 l 1
 1007.87109375 -32.318359375 l 1
 998.78515625 151.21484375 l 1
 850.6171875 299.3828125 l 1
 100 250 l 1
 100 350 l 1
 850.6171875 300.6171875 l 1
 984.75 434.75 l 1
 966.66796875 800 l 1xf5
1891.72070312 630.546875 m 1
 1056.046875 585.45703125 l 1xec
 1027.859375 16.064453125 l 1
 1924.53515625 -32.318359375 l 1
 1891.72070312 630.546875 l 1
1616.66796875 533.33203125 m 1
 1716.66796875 533.33203125 l 1
 1666.66796875 56.66796875 l 1
 1653.59765625 181.271484375 l 1
 1116.66796875 133.33203125 l 1
 1116.66796875 233.33203125 l 1
 1653.16210938 185.431640625 l 1
 1629.34960938 412.443359375 l 1
 1116.66796875 366.66796875 l 1
 1116.66796875 466.66796875 l 1
 1628.453125 420.97265625 l 1
 1616.66796875 533.33203125 l 1
986.859375 392.146484375 m 1
 950 300 l 1
 997.271484375 181.82421875 l 1
 986.859375 392.146484375 l 1
EndSplineSet
EndChar

StartChar: U12074
Encoding: 306 73844 50
Width: 2207
VWidth: 100
Flags: W
HStem: 250 100<100 241.399> 298.244 3.53711<933.128 1074.01>
LayerCount: 2
Fore
SplineSet
1135.35546875 835.35546875 m 1x00
 1601.24804688 335.560546875 l 1
 2107.0703125 807.0703125 l 1
 1634.39648438 300 l 1
 2107.0703125 -207.0703125 l 1
 1601.24804688 264.439453125 l 1
 1135.35546875 -235.35546875 l 1
 1064.64453125 -164.64453125 l 1
 1563.1015625 300 l 1
 1064.64453125 764.64453125 l 1
 1135.35546875 835.35546875 l 1x00
683.33203125 800 m 1
 616.66796875 633.33203125 l 1
 683.33203125 466.66796875 l 1
 516.66796875 633.33203125 l 1
 683.33203125 800 l 1
1050 466.66796875 m 1
 1150 466.66796875 l 1
 1100 123.33203125 l 1
 1074.52734375 298.244140625 l 1x40
 100 250 l 1
 100 350 l 1x80
 1074.01171875 301.78125 l 1x40
 1050 466.66796875 l 1
683.33203125 133.33203125 m 1
 616.66796875 -33.33203125 l 1
 683.33203125 -200 l 1
 516.66796875 -33.33203125 l 1
 683.33203125 133.33203125 l 1
EndSplineSet
EndChar

StartChar: U1216f
Encoding: 307 74095 51
Width: 2083
VWidth: 100
Flags: W
HStem: -34.3398 2.02148<878.242 1007.87 1794.9 1924.54> 299.549 0.451172<1836.79 1843.33> 300 0.621094<1836.79 1843.33>
VStem: 966.668 94.1074<680.953 800> 986.859 69.1875<444.056 561.376> 1883.33 100<658.598 800> 1924.64 17.4375<-173.7 -34.3398 -32.3184 108.112>
LayerCount: 2
Fore
SplineSet
966.66796875 800 m 1x92
 1066.66796875 800 l 1
 1060.77539062 680.953125 l 1
 1891.44335938 636.130859375 l 1
 1883.33203125 800 l 1
 1983.33203125 800 l 1x94
 1942.08203125 -33.263671875 l 1
 1943.33203125 -33.33203125 l 1
 1942.07421875 -33.400390625 l 1
 1933.33203125 -210 l 1
 1924.63671875 -34.33984375 l 1
 1022.95507812 -82.9921875 l 1
 1016.66796875 -210 l 1
 1007.97265625 -34.33984375 l 1
 100 -83.33203125 l 1
 100 16.66796875 l 1
 1007.87109375 -32.318359375 l 1
 998.78515625 151.21484375 l 1
 850.6171875 299.3828125 l 1
 100 250 l 1
 100 350 l 1
 850.6171875 300.6171875 l 1
 984.75 434.75 l 1
 966.66796875 800 l 1x92
1891.72070312 630.546875 m 1
 1056.046875 585.45703125 l 1x88
 1027.859375 16.064453125 l 1
 1924.53515625 -32.318359375 l 1
 1891.72070312 630.546875 l 1
1342.05078125 512.546875 m 1
 1834.29492188 300.62109375 l 1xa0
 1843.33203125 300 l 1
 1836.78515625 299.548828125 l 1xc0
 1842.84375 296.94140625 l 1
 1832.60546875 299.26171875 l 1
 1520.44140625 277.783203125 l 1
 1475 56.66796875 l 1
 1430.82617188 271.6171875 l 1
 1116.66796875 250 l 1
 1116.66796875 350 l 1
 1823.25195312 301.380859375 l 1
 1311.09765625 417.45703125 l 1
 1342.05078125 512.546875 l 1
986.859375 392.146484375 m 1xa8
 950 300 l 1
 997.271484375 181.82421875 l 1
 986.859375 392.146484375 l 1xa8
EndSplineSet
EndChar

StartChar: U12187
Encoding: 308 74119 52
Width: 2083
VWidth: 100
Flags: W
HStem: -34.3398 2.02148<878.242 1007.87 1794.9 1924.54>
VStem: 966.668 94.1074<680.953 800> 986.859 69.1875<444.056 561.376> 1883.33 100<658.598 800> 1924.64 17.4375<-173.7 -34.3398 -32.3184 108.112>
LayerCount: 2
Fore
SplineSet
966.66796875 800 m 1xc8
 1066.66796875 800 l 1
 1060.77539062 680.953125 l 1
 1891.44335938 636.130859375 l 1
 1883.33203125 800 l 1
 1983.33203125 800 l 1xd0
 1942.08203125 -33.263671875 l 1
 1943.33203125 -33.33203125 l 1
 1942.07421875 -33.400390625 l 1
 1933.33203125 -210 l 1
 1924.63671875 -34.33984375 l 1
 1022.95507812 -82.9921875 l 1
 1016.66796875 -210 l 1
 1007.97265625 -34.33984375 l 1
 100 -83.33203125 l 1
 100 16.66796875 l 1
 1007.87109375 -32.318359375 l 1
 998.78515625 151.21484375 l 1
 850.6171875 299.3828125 l 1
 100 250 l 1
 100 350 l 1
 850.6171875 300.6171875 l 1
 984.75 434.75 l 1
 966.66796875 800 l 1xc8
1891.72070312 630.546875 m 1
 1056.046875 585.45703125 l 1xa0
 1027.859375 16.064453125 l 1
 1924.53515625 -32.318359375 l 1
 1891.72070312 630.546875 l 1
1558.33203125 466.66796875 m 1
 1491.66796875 300 l 1
 1558.33203125 133.33203125 l 1
 1391.66796875 300 l 1
 1558.33203125 466.66796875 l 1
986.859375 392.146484375 m 1
 950 300 l 1
 997.271484375 181.82421875 l 1
 986.859375 392.146484375 l 1
EndSplineSet
EndChar

StartChar: Ue003
Encoding: 309 57347 53
Width: 2083
VWidth: 100
Flags: W
HStem: -83.0215 99.1348<944.525 1081.02> -34.4395 2.22266<809.64 924.531 1786.39 1924.54> 585.281 95.8672<977.449 1114.1> 630.777 5.12305<1750.31 1891.46>
VStem: 883.332 94.1172<681.148 800> 903.523 69.1797<443.887 561.374> 924.641 14.9766<-125.282 -83.0215 16.1133 107.481> 1883.33 100<658.603 800> 1924.63 17.4414<-173.778 -34.2578 -32.4023 108.107>
LayerCount: 2
Fore
SplineSet
883.33203125 800 m 1x48
 983.33203125 800 l 1
 977.44921875 681.1484375 l 1x68
 1891.45507812 635.900390625 l 1
 1883.33203125 800 l 1
 1983.33203125 800 l 1x19
 1942.08007812 -33.26953125 l 1
 1943.33203125 -33.33203125 l 1
 1942.07421875 -33.39453125 l 1
 1933.33203125 -210 l 1
 1924.6328125 -34.2578125 l 1
 939.6171875 -83.021484375 l 1x9280
 933.33203125 -210 l 1
 924.640625 -34.439453125 l 1x4280
 100 -83.33203125 l 1
 100 16.66796875 l 1
 924.53125 -32.216796875 l 1
 915.44921875 151.21484375 l 1
 767.35546875 299.3125 l 1
 100 250 l 1
 100 350 l 1
 767.35546875 300.6875 l 1
 901.4140625 434.748046875 l 1
 883.33203125 800 l 1x48
1891.70898438 630.77734375 m 1x94
 972.703125 585.28125 l 1x24
 944.525390625 16.11328125 l 1
 1924.5390625 -32.40234375 l 1
 1891.70898438 630.77734375 l 1x94
1150 533.33203125 m 1
 1133.33203125 416.66796875 l 1
 1150 300 l 1
 1033.33203125 416.66796875 l 1
 1150 533.33203125 l 1
1150 300 m 1
 1133.33203125 183.33203125 l 1
 1150 66.66796875 l 1
 1033.33203125 183.33203125 l 1
 1150 300 l 1
1150 466.66796875 m 1
 1491.66796875 418.08984375 l 1
 1491.66796875 466.66796875 l 1
 1843.33203125 416.66796875 l 1
 1491.66796875 366.66796875 l 1
 1491.66796875 415.24609375 l 1
 1150 366.66796875 l 1
 1150 466.66796875 l 1
903.5234375 392.142578125 m 1
 866.66796875 300 l 1
 913.935546875 181.828125 l 1
 903.5234375 392.142578125 l 1
1150 233.33203125 m 1
 1491.66796875 184.75390625 l 1
 1491.66796875 233.33203125 l 1
 1843.33203125 183.33203125 l 1
 1491.66796875 133.33203125 l 1
 1491.66796875 181.91015625 l 1
 1150 133.33203125 l 1
 1150 233.33203125 l 1
EndSplineSet
EndChar

StartChar: U12189
Encoding: 310 74121 54
Width: 2083
VWidth: 100
Flags: W
HStem: -34.3398 2.02148<878.242 1007.87 1794.9 1924.54>
VStem: 966.668 94.1074<680.953 800> 986.859 69.1875<444.056 561.376> 1883.33 100<658.598 800> 1924.64 17.4375<-173.7 -34.3398 -32.3184 108.112>
LayerCount: 2
Fore
SplineSet
966.66796875 800 m 1xc8
 1066.66796875 800 l 1
 1060.77539062 680.953125 l 1
 1891.44335938 636.130859375 l 1
 1883.33203125 800 l 1
 1983.33203125 800 l 1xd0
 1942.08203125 -33.263671875 l 1
 1943.33203125 -33.33203125 l 1
 1942.07421875 -33.400390625 l 1
 1933.33203125 -210 l 1
 1924.63671875 -34.33984375 l 1
 1022.95507812 -82.9921875 l 1
 1016.66796875 -210 l 1
 1007.97265625 -34.33984375 l 1
 100 -83.33203125 l 1
 100 16.66796875 l 1
 1007.87109375 -32.318359375 l 1
 998.78515625 151.21484375 l 1
 850.6171875 299.3828125 l 1
 100 250 l 1
 100 350 l 1
 850.6171875 300.6171875 l 1
 984.75 434.75 l 1
 966.66796875 800 l 1xc8
1891.72070312 630.546875 m 1
 1056.046875 585.45703125 l 1xa0
 1027.859375 16.064453125 l 1
 1924.53515625 -32.318359375 l 1
 1891.72070312 630.546875 l 1
1473.3203125 533.33203125 m 1
 1456.65234375 416.66796875 l 1
 1473.3203125 300 l 1
 1356.65234375 416.66796875 l 1
 1473.3203125 533.33203125 l 1
1473.3203125 300 m 1
 1456.65234375 183.33203125 l 1
 1473.3203125 66.66796875 l 1
 1356.65234375 183.33203125 l 1
 1473.3203125 300 l 1
1543.31640625 533.33203125 m 1
 1643.31640625 533.33203125 l 1
 1593.31640625 56.66796875 l 1
 1543.31640625 533.33203125 l 1
986.859375 392.146484375 m 1
 950 300 l 1
 997.271484375 181.82421875 l 1
 986.859375 392.146484375 l 1
EndSplineSet
EndChar

StartChar: U1216e
Encoding: 311 74094 55
Width: 2083
VWidth: 100
Flags: W
HStem: -83.0215 99.1348<944.525 1081.02> -34.4395 2.22266<809.64 924.531 1786.39 1924.54> 585.281 95.8672<977.449 1114.1> 630.777 5.12305<1750.31 1891.46>
VStem: 883.332 94.1172<681.148 800> 903.523 69.1797<443.887 561.374> 924.641 14.9766<-125.282 -83.0215 16.1133 107.481> 1883.33 100<658.603 800> 1924.63 17.4414<-173.778 -34.2578 -32.4023 108.107>
LayerCount: 2
Fore
SplineSet
883.33203125 800 m 1x48
 983.33203125 800 l 1
 977.44921875 681.1484375 l 1x68
 1891.45507812 635.900390625 l 1
 1883.33203125 800 l 1
 1983.33203125 800 l 1x19
 1942.08007812 -33.26953125 l 1
 1943.33203125 -33.33203125 l 1
 1942.07421875 -33.39453125 l 1
 1933.33203125 -210 l 1
 1924.6328125 -34.2578125 l 1
 939.6171875 -83.021484375 l 1x9280
 933.33203125 -210 l 1
 924.640625 -34.439453125 l 1x4280
 100 -83.33203125 l 1
 100 16.66796875 l 1
 924.53125 -32.216796875 l 1
 915.44921875 151.21484375 l 1
 767.35546875 299.3125 l 1
 100 250 l 1
 100 350 l 1
 767.35546875 300.6875 l 1
 901.4140625 434.748046875 l 1
 883.33203125 800 l 1x48
1891.70898438 630.77734375 m 1x94
 972.703125 585.28125 l 1x24
 944.525390625 16.11328125 l 1
 1924.5390625 -32.40234375 l 1
 1891.70898438 630.77734375 l 1x94
1543.36328125 533.33203125 m 1
 1643.36328125 533.33203125 l 1
 1593.36328125 56.66796875 l 1
 1568.90039062 289.876953125 l 1
 1433.33203125 250 l 1
 1433.33203125 350 l 1
 1566.70898438 310.767578125 l 1
 1543.36328125 533.33203125 l 1
1703.34375 533.33203125 m 1
 1803.34375 533.33203125 l 1
 1753.34375 56.66796875 l 1
 1703.34375 533.33203125 l 1
1235.35546875 502.0234375 m 1
 1307.0703125 359.59375 l 1
 1172.7890625 427.2109375 l 1
 1235.66992188 302.337890625 l 1
 1268.6875 335.35546875 l 1
 1340.40625 192.9296875 l 1
 1197.9765625 264.64453125 l 1
 1230.99804688 297.666015625 l 1
 1106.125 360.541015625 l 1
 1173.73828125 226.26171875 l 1
 1031.3125 297.9765625 l 1
 1097.97851562 364.642578125 l 1
 1097.9765625 364.64453125 l 1
 1164.64453125 431.3125 l 1
 1235.35546875 502.0234375 l 1
903.5234375 392.142578125 m 1
 866.66796875 300 l 1
 913.935546875 181.828125 l 1
 903.5234375 392.142578125 l 1
EndSplineSet
EndChar

StartChar: U12181
Encoding: 312 74113 56
Width: 2083
VWidth: 100
Flags: W
HStem: -34.3398 2.02148<878.242 1007.87 1794.9 1924.54>
VStem: 966.668 94.1074<680.953 800> 986.859 69.1875<444.056 561.376> 1883.33 100<658.598 800> 1924.64 17.4375<-173.7 -34.3398 -32.3184 108.112>
LayerCount: 2
Fore
SplineSet
966.66796875 800 m 1xc8
 1066.66796875 800 l 1
 1060.77539062 680.953125 l 1
 1891.44335938 636.130859375 l 1
 1883.33203125 800 l 1
 1983.33203125 800 l 1xd0
 1942.08203125 -33.263671875 l 1
 1943.33203125 -33.33203125 l 1
 1942.07421875 -33.400390625 l 1
 1933.33203125 -210 l 1
 1924.63671875 -34.33984375 l 1
 1022.95507812 -82.9921875 l 1
 1016.66796875 -210 l 1
 1007.97265625 -34.33984375 l 1
 100 -83.33203125 l 1
 100 16.66796875 l 1
 1007.87109375 -32.318359375 l 1
 998.78515625 151.21484375 l 1
 850.6171875 299.3828125 l 1
 100 250 l 1
 100 350 l 1
 850.6171875 300.6171875 l 1
 984.75 434.75 l 1
 966.66796875 800 l 1xc8
1891.72070312 630.546875 m 1
 1056.046875 585.45703125 l 1xa0
 1027.859375 16.064453125 l 1
 1924.53515625 -32.318359375 l 1
 1891.72070312 630.546875 l 1
1308.33203125 550 m 1
 1283.33203125 425 l 1
 1308.33203125 300 l 1
 1183.33203125 425 l 1
 1308.33203125 550 l 1
1308.33203125 300 m 1
 1283.33203125 175 l 1
 1308.33203125 50 l 1
 1183.33203125 175 l 1
 1308.33203125 300 l 1
1766.66796875 550 m 1
 1741.66796875 425 l 1
 1766.66796875 300 l 1
 1641.66796875 425 l 1
 1766.66796875 550 l 1
1766.66796875 300 m 1
 1741.66796875 175 l 1
 1766.66796875 50 l 1
 1641.66796875 175 l 1
 1766.66796875 300 l 1
986.859375 392.146484375 m 1
 950 300 l 1
 997.271484375 181.82421875 l 1
 986.859375 392.146484375 l 1
EndSplineSet
EndChar

StartChar: U12172
Encoding: 313 74098 57
Width: 2083
VWidth: 100
Flags: W
HStem: -83.0215 99.1348<944.525 1081.02> -34.4395 2.22266<809.64 924.531 1786.39 1924.54> 585.281 95.8672<977.449 1114.1> 630.777 5.12305<1750.31 1891.46>
VStem: 883.332 94.1172<681.148 800> 903.523 69.1797<443.887 561.374> 924.641 14.9766<-125.282 -83.0215 16.1133 107.481> 1883.33 100<658.603 800> 1924.63 17.4414<-173.778 -34.2578 -32.4023 108.107>
LayerCount: 2
Fore
SplineSet
883.33203125 800 m 1x48
 983.33203125 800 l 1
 977.44921875 681.1484375 l 1x68
 1891.45507812 635.900390625 l 1
 1883.33203125 800 l 1
 1983.33203125 800 l 1x19
 1942.08007812 -33.26953125 l 1
 1943.33203125 -33.33203125 l 1
 1942.07421875 -33.39453125 l 1
 1933.33203125 -210 l 1
 1924.6328125 -34.2578125 l 1
 939.6171875 -83.021484375 l 1x9280
 933.33203125 -210 l 1
 924.640625 -34.439453125 l 1x4280
 100 -83.33203125 l 1
 100 16.66796875 l 1
 924.53125 -32.216796875 l 1
 915.44921875 151.21484375 l 1
 767.35546875 299.3125 l 1
 100 250 l 1
 100 350 l 1
 767.35546875 300.6875 l 1
 901.4140625 434.748046875 l 1
 883.33203125 800 l 1x48
1891.70898438 630.77734375 m 1x94
 972.703125 585.28125 l 1x24
 944.525390625 16.11328125 l 1
 1924.5390625 -32.40234375 l 1
 1891.70898438 630.77734375 l 1x94
1150 533.33203125 m 1
 1133.33203125 416.66796875 l 1
 1150 300 l 1
 1033.33203125 416.66796875 l 1
 1150 533.33203125 l 1
1150 300 m 1
 1133.33203125 183.33203125 l 1
 1150 66.66796875 l 1
 1033.33203125 183.33203125 l 1
 1150 300 l 1
1266.66796875 533.33203125 m 1
 1250 416.66796875 l 1
 1266.66796875 300 l 1
 1150 416.66796875 l 1
 1266.66796875 533.33203125 l 1
1266.66796875 300 m 1
 1250 183.33203125 l 1
 1266.66796875 66.66796875 l 1
 1150 183.33203125 l 1
 1266.66796875 300 l 1
1438.328125 533.33203125 m 1
 1421.6640625 416.66796875 l 1
 1438.328125 300 l 1
 1321.6640625 416.66796875 l 1
 1438.328125 533.33203125 l 1
1443.34765625 533.33203125 m 1
 1543.34765625 533.33203125 l 1
 1493.34765625 56.66796875 l 1
 1443.34765625 533.33203125 l 1
1670.00390625 533.33203125 m 1
 1770.00390625 533.33203125 l 1
 1720.00390625 56.66796875 l 1
 1670.00390625 533.33203125 l 1
903.5234375 392.142578125 m 1
 866.66796875 300 l 1
 913.935546875 181.828125 l 1
 903.5234375 392.142578125 l 1
EndSplineSet
EndChar

StartChar: U12174
Encoding: 314 74100 58
Width: 2083
VWidth: 100
Flags: W
HStem: -34.3398 2.02148<878.242 1007.87 1794.9 1924.54>
VStem: 966.668 94.1074<680.953 800> 986.859 69.1875<444.056 561.376> 1883.33 100<658.598 800> 1924.64 17.4375<-173.7 -34.3398 -32.3184 108.112>
LayerCount: 2
Fore
SplineSet
966.66796875 800 m 1xc8
 1066.66796875 800 l 1
 1060.77539062 680.953125 l 1
 1891.44335938 636.130859375 l 1
 1883.33203125 800 l 1
 1983.33203125 800 l 1xd0
 1942.08203125 -33.263671875 l 1
 1943.33203125 -33.33203125 l 1
 1942.07421875 -33.400390625 l 1
 1933.33203125 -210 l 1
 1924.63671875 -34.33984375 l 1
 1022.95507812 -82.9921875 l 1
 1016.66796875 -210 l 1
 1007.97265625 -34.33984375 l 1
 100 -83.33203125 l 1
 100 16.66796875 l 1
 1007.87109375 -32.318359375 l 1
 998.78515625 151.21484375 l 1
 850.6171875 299.3828125 l 1
 100 250 l 1
 100 350 l 1
 850.6171875 300.6171875 l 1
 984.75 434.75 l 1
 966.66796875 800 l 1xc8
1891.72070312 630.546875 m 1
 1056.046875 585.45703125 l 1xa0
 1027.859375 16.064453125 l 1
 1924.53515625 -32.318359375 l 1
 1891.72070312 630.546875 l 1
1233.33203125 533.33203125 m 1
 1333.33203125 533.33203125 l 1
 1313.81640625 347.27734375 l 1
 1843.33203125 300 l 1
 1303.80273438 251.828125 l 1
 1283.33203125 56.66796875 l 1
 1233.33203125 533.33203125 l 1
986.859375 392.146484375 m 1
 950 300 l 1
 997.271484375 181.82421875 l 1
 986.859375 392.146484375 l 1
EndSplineSet
EndChar

StartChar: U12158
Encoding: 315 74072 59
Width: 2083
VWidth: 100
Flags: W
HStem: -34.3398 2.02148<878.242 1007.87 1794.9 1924.54>
VStem: 966.668 94.1074<680.953 800> 986.859 69.1875<444.056 561.376> 1883.33 100<658.598 800> 1924.64 17.4375<-173.7 -34.3398 -32.3184 108.112>
LayerCount: 2
Fore
SplineSet
966.66796875 800 m 1xc8
 1066.66796875 800 l 1
 1060.77539062 680.953125 l 1
 1891.44335938 636.130859375 l 1
 1883.33203125 800 l 1
 1983.33203125 800 l 1xd0
 1942.08203125 -33.263671875 l 1
 1943.33203125 -33.33203125 l 1
 1942.07421875 -33.400390625 l 1
 1933.33203125 -210 l 1
 1924.63671875 -34.33984375 l 1
 1022.95507812 -82.9921875 l 1
 1016.66796875 -210 l 1
 1007.97265625 -34.33984375 l 1
 100 -83.33203125 l 1
 100 16.66796875 l 1
 1007.87109375 -32.318359375 l 1
 998.78515625 151.21484375 l 1
 850.6171875 299.3828125 l 1
 100 250 l 1
 100 350 l 1
 850.6171875 300.6171875 l 1
 984.75 434.75 l 1
 966.66796875 800 l 1xc8
1891.72070312 630.546875 m 1
 1056.046875 585.45703125 l 1xa0
 1027.859375 16.064453125 l 1
 1924.53515625 -32.318359375 l 1
 1891.72070312 630.546875 l 1
1245.83203125 533.33203125 m 1
 1345.83203125 533.33203125 l 1
 1295.83203125 56.66796875 l 1
 1245.83203125 533.33203125 l 1
1604.16796875 533.33203125 m 1
 1704.16796875 533.33203125 l 1
 1654.16796875 416.66796875 l 1
 1604.16796875 533.33203125 l 1
1654.16796875 416.66796875 m 1
 1704.16796875 416.66796875 l 1
 1654.16796875 56.66796875 l 1
 1604.16796875 416.66796875 l 1
 1654.16796875 416.66796875 l 1
986.859375 392.146484375 m 1
 950 300 l 1
 997.271484375 181.82421875 l 1
 986.859375 392.146484375 l 1
EndSplineSet
EndChar

StartChar: U12165
Encoding: 316 74085 60
Width: 2083
VWidth: 100
Flags: W
HStem: -34.3398 2.02148<878.242 1007.87 1794.9 1924.54>
VStem: 966.668 94.1074<680.953 800> 986.859 69.1875<444.056 561.376> 1883.33 100<658.598 800> 1924.64 17.4375<-173.7 -34.3398 -32.3184 108.112>
LayerCount: 2
Fore
SplineSet
966.66796875 800 m 1xc8
 1066.66796875 800 l 1
 1060.77539062 680.953125 l 1
 1891.44335938 636.130859375 l 1
 1883.33203125 800 l 1
 1983.33203125 800 l 1xd0
 1942.08203125 -33.263671875 l 1
 1943.33203125 -33.33203125 l 1
 1942.07421875 -33.400390625 l 1
 1933.33203125 -210 l 1
 1924.63671875 -34.33984375 l 1
 1022.95507812 -82.9921875 l 1
 1016.66796875 -210 l 1
 1007.97265625 -34.33984375 l 1
 100 -83.33203125 l 1
 100 16.66796875 l 1
 1007.87109375 -32.318359375 l 1
 998.78515625 151.21484375 l 1
 850.6171875 299.3828125 l 1
 100 250 l 1
 100 350 l 1
 850.6171875 300.6171875 l 1
 984.75 434.75 l 1
 966.66796875 800 l 1xc8
1891.72070312 630.546875 m 1
 1056.046875 585.45703125 l 1xa0
 1027.859375 16.064453125 l 1
 1924.53515625 -32.318359375 l 1
 1891.72070312 630.546875 l 1
1186.109375 533.33203125 m 1
 1286.109375 533.33203125 l 1
 1236.109375 290 l 1
 1186.109375 533.33203125 l 1
1425 533.33203125 m 1
 1525 533.33203125 l 1
 1477.0546875 300 l 1
 1525 300 l 1
 1475 56.66796875 l 1
 1425 300 l 1
 1472.9453125 300 l 1
 1425 533.33203125 l 1
1663.890625 533.33203125 m 1
 1763.890625 533.33203125 l 1
 1713.890625 290 l 1
 1663.890625 533.33203125 l 1
986.859375 392.146484375 m 1
 950 300 l 1
 997.271484375 181.82421875 l 1
 986.859375 392.146484375 l 1
EndSplineSet
EndChar

StartChar: U1223e
Encoding: 317 74302 61
Width: 1583
VWidth: 100
Flags: W
VStem: 1385.69 97.6406<658.6 723.018 752.359 800>
LayerCount: 2
Fore
SplineSet
1383.33203125 800 m 1
 1433.33203125 800 l 1
 1483.33203125 800 l 1
 1433.33203125 -210 l 1
 1406.76953125 326.5625 l 1
 1183.33203125 550 l 1
 1385.69140625 752.359375 l 1
 1383.33203125 800 l 1
1183.33203125 550 m 1
 1033.33203125 300 l 1
 1183.33203125 50 l 1
 933.892578125 299.439453125 l 1
 100 250 l 1
 100 350 l 1
 933.892578125 300.560546875 l 1
 1183.33203125 550 l 1
1387.14257812 723.017578125 m 1
 1283.33203125 550 l 1
 1405.81445312 345.86328125 l 1
 1387.14257812 723.017578125 l 1
EndSplineSet
EndChar

StartChar: Ue004
Encoding: 318 57348 62
Width: 2083
VWidth: 100
Flags: W
HStem: -83.0215 99.1348<944.525 1081.02> -34.4395 2.22266<809.64 924.531 1786.39 1924.54> 585.281 95.8672<977.449 1114.1> 630.777 5.12305<1750.31 1891.46>
VStem: 883.332 94.1172<681.148 800> 903.523 69.1797<443.887 561.374> 924.641 14.9766<-125.282 -83.0215 16.1133 107.481> 1883.33 100<658.603 800> 1924.63 17.4414<-173.778 -34.2578 -32.4023 108.107>
LayerCount: 2
Fore
SplineSet
883.33203125 800 m 1x48
 983.33203125 800 l 1
 977.44921875 681.1484375 l 1x68
 1891.45507812 635.900390625 l 1
 1883.33203125 800 l 1
 1983.33203125 800 l 1x19
 1942.08007812 -33.26953125 l 1
 1943.33203125 -33.33203125 l 1
 1942.07421875 -33.39453125 l 1
 1933.33203125 -210 l 1
 1924.6328125 -34.2578125 l 1
 939.6171875 -83.021484375 l 1x9280
 933.33203125 -210 l 1
 924.640625 -34.439453125 l 1x4280
 100 -83.33203125 l 1
 100 16.66796875 l 1
 924.53125 -32.216796875 l 1
 915.44921875 151.21484375 l 1
 767.35546875 299.3125 l 1
 100 250 l 1
 100 350 l 1
 767.35546875 300.6875 l 1
 901.4140625 434.748046875 l 1
 883.33203125 800 l 1x48
1891.70898438 630.77734375 m 1x94
 972.703125 585.28125 l 1x24
 944.525390625 16.11328125 l 1
 1924.5390625 -32.40234375 l 1
 1891.70898438 630.77734375 l 1x94
1116.66796875 533.33203125 m 1
 1216.66796875 533.33203125 l 1
 1168.72265625 300 l 1
 1216.66796875 300 l 1
 1166.66796875 56.66796875 l 1
 1116.66796875 300 l 1
 1164.61328125 300 l 1
 1116.66796875 533.33203125 l 1
1383.33203125 533.33203125 m 1
 1483.33203125 533.33203125 l 1
 1435.38671875 300 l 1
 1483.33203125 300 l 1
 1433.33203125 56.66796875 l 1
 1383.33203125 300 l 1
 1431.27734375 300 l 1
 1383.33203125 533.33203125 l 1
1650 533.33203125 m 1
 1750 533.33203125 l 1
 1702.0546875 300 l 1
 1750 300 l 1
 1700 56.66796875 l 1
 1650 300 l 1
 1697.9453125 300 l 1
 1650 533.33203125 l 1
903.5234375 392.142578125 m 1
 866.66796875 300 l 1
 913.935546875 181.828125 l 1
 903.5234375 392.142578125 l 1
EndSplineSet
EndChar

StartChar: U12156
Encoding: 319 74070 63
Width: 1583
VWidth: 100
Flags: W
HStem: 0 100<100 241.398> 48.8711 2.26367<945.787 1087.07>
VStem: 1056.29 93.7109<672.957 800> 1383.33 100<658.6 800>
LayerCount: 2
Fore
SplineSet
1050 800 m 1x70
 1150 800 l 1
 1100 -210 l 1
 1087.18554688 48.87109375 l 1x70
 100 0 l 1
 100 100 l 1xb0
 1087.07226562 51.134765625 l 1
 1069.09765625 414.234375 l 1
 933.892578125 549.439453125 l 1
 100 500 l 1
 100 600 l 1
 933.892578125 550.560546875 l 1
 1056.2890625 672.95703125 l 1
 1050 800 l 1x70
1383.33203125 800 m 1
 1483.33203125 800 l 1
 1433.33203125 -210 l 1
 1383.33203125 800 l 1
1059.17773438 614.61328125 m 1
 1033.33203125 550 l 1
 1066.47851562 467.134765625 l 1
 1059.17773438 614.61328125 l 1
EndSplineSet
EndChar

StartChar: U12312
Encoding: 320 74514 64
Width: 877
VWidth: 100
Flags: W
LayerCount: 2
Fore
SplineSet
495.83203125 800 m 1
 470.83203125 675 l 1
 495.83203125 550 l 1
 370.83203125 675 l 1
 495.83203125 800 l 1
100 516.66796875 m 1
 776.66796875 466.66796875 l 1
 100 416.66796875 l 1
 100 516.66796875 l 1
100 183.33203125 m 1
 776.66796875 133.33203125 l 1
 100 83.33203125 l 1
 100 183.33203125 l 1
495.83203125 50 m 1
 470.83203125 -75 l 1
 495.83203125 -200 l 1
 370.83203125 -75 l 1
 495.83203125 50 l 1
EndSplineSet
EndChar

StartChar: U12049
Encoding: 321 73801 65
Width: 1200
VWidth: 100
Flags: W
HStem: 0 21G<100 437.339>
LayerCount: 2
Fore
SplineSet
1100 716.66796875 m 1
 1033.33203125 550 l 1
 1100 383.33203125 l 1
 933.892578125 549.439453125 l 1
 100 500 l 1
 100 600 l 1
 933.892578125 550.560546875 l 1
 1100 716.66796875 l 1
1100 216.66796875 m 1
 1033.33203125 50 l 1
 1100 -116.66796875 l 1
 933.892578125 49.439453125 l 1
 100 0 l 1
 100 100 l 1
 933.892578125 50.560546875 l 1
 1100 216.66796875 l 1
EndSplineSet
EndChar

StartChar: U122c6
Encoding: 322 74438 66
Width: 2083
VWidth: 100
Flags: W
HStem: 0 21G<100 337.334 850 1154> 48.5 3.00977<1480.8 1587.05>
VStem: 1556.29 93.7109<672.957 800> 1883.33 100<658.6 800>
LayerCount: 2
Fore
SplineSet
1550 800 m 1
 1650 800 l 1
 1600 -210 l 1
 1587.203125 48.5 l 1
 850 0 l 1
 850 100 l 1
 1587.0546875 51.509765625 l 1
 1569.09765625 414.234375 l 1
 1434.109375 549.22265625 l 1
 850 500 l 1
 850 600 l 1
 1434.109375 550.77734375 l 1
 1556.2890625 672.95703125 l 1
 1550 800 l 1
1883.33203125 800 m 1
 1983.33203125 800 l 1
 1933.33203125 -210 l 1
 1883.33203125 800 l 1
850 716.66796875 m 1
 783.33203125 550 l 1
 850 383.33203125 l 1
 684.109375 549.22265625 l 1
 100 500 l 1
 100 600 l 1
 684.109375 550.77734375 l 1
 850 716.66796875 l 1
1559.17773438 614.61328125 m 1
 1533.33203125 550 l 1
 1566.47851562 467.134765625 l 1
 1559.17773438 614.61328125 l 1
850 216.66796875 m 1
 783.33203125 50 l 1
 850 -116.66796875 l 1
 684.109375 49.22265625 l 1
 100 0 l 1
 100 100 l 1
 684.109375 50.77734375 l 1
 850 216.66796875 l 1
EndSplineSet
EndChar

StartChar: U1202b
Encoding: 323 73771 67
Width: 1700
VWidth: 100
Flags: W
HStem: -83.332 100<100 288.069> -33.6914 0.71875<1245.62 1433.69> 583.332 100<100 288.069> 632.973 0.71875<1245.62 1433.69>
LayerCount: 2
Fore
SplineSet
1600 800 m 1x10
 1533.33203125 633.33203125 l 1
 1600 466.66796875 l 1
 1433.69140625 632.97265625 l 1x10
 100 583.33203125 l 1
 100 683.33203125 l 1x20
 1433.69140625 633.69140625 l 1
 1600 800 l 1x10
933.33203125 466.66796875 m 1
 866.66796875 300 l 1
 933.33203125 133.33203125 l 1
 766.66796875 300 l 1
 933.33203125 466.66796875 l 1
1600 133.33203125 m 1
 1533.33203125 -33.33203125 l 1
 1600 -200 l 1
 1433.69140625 -33.69140625 l 1x40
 100 -83.33203125 l 1
 100 16.66796875 l 1x80
 1433.69140625 -32.97265625 l 1x40
 1600 133.33203125 l 1
EndSplineSet
EndChar

StartChar: U1202c
Encoding: 324 73772 68
Width: 1700
VWidth: 100
Flags: W
HStem: -125 100<100 293.897> -75.3477 0.695312<1281.45 1475.35> 625 100<100 293.897> 674.652 0.695312<1281.45 1475.35>
LayerCount: 2
Fore
SplineSet
1600 800 m 1x10
 1575 675 l 1
 1600 550 l 1
 1475.34765625 674.65234375 l 1x10
 100 625 l 1
 100 725 l 1x20
 1475.34765625 675.34765625 l 1
 1600 800 l 1x10
537.5 550 m 1
 512.5 425 l 1
 537.5 300 l 1
 412.5 425 l 1
 537.5 550 l 1
537.5 300 m 1
 512.5 175 l 1
 537.5 50 l 1
 412.5 175 l 1
 537.5 300 l 1
1287.5 550 m 1
 1262.5 425 l 1
 1287.5 300 l 1
 1162.5 425 l 1
 1287.5 550 l 1
1287.5 300 m 1
 1262.5 175 l 1
 1287.5 50 l 1
 1162.5 175 l 1
 1287.5 300 l 1
1600 50 m 1
 1575 -75 l 1
 1600 -200 l 1
 1475.34765625 -75.34765625 l 1x40
 100 -125 l 1
 100 -25 l 1x80
 1475.34765625 -74.65234375 l 1x40
 1600 50 l 1
EndSplineSet
EndChar

StartChar: U1211e
Encoding: 325 74014 69
Width: 1700
VWidth: 100
Flags: W
HStem: 0 100<100 288.065> 28.7871 42.2715<650.038 822.244 877.555 1010.32> 49.6406 0.71875<1245.62 1433.69> 500 100<100 288.069> 549.641 0.71875<1245.62 1433.69>
LayerCount: 2
Fore
SplineSet
1600 716.66796875 m 1x08
 1533.33203125 550 l 1
 1600 383.33203125 l 1
 1433.69140625 549.640625 l 1x08
 100 500 l 1
 100 600 l 1x10
 1433.69140625 550.359375 l 1
 1600 716.66796875 l 1x08
800 300 m 1
 900 300 l 1
 877.5546875 71.05859375 l 1x40
 1433.69140625 50.359375 l 1
 1600 216.66796875 l 1
 1533.33203125 50 l 1
 1600 -116.66796875 l 1
 1433.69140625 49.640625 l 1x20
 873.41015625 28.787109375 l 1x40
 850 -210 l 1
 826.759765625 27.05078125 l 1
 100 0 l 1
 100 100 l 1x80
 822.244140625 73.1171875 l 1
 800 300 l 1
EndSplineSet
EndChar

StartChar: U122ad
Encoding: 326 74413 70
Width: 1583
VWidth: 100
Flags: W
HStem: 0 100<100 264.733> 27.3398 45.5098<629.407 738.938 794.168 940.168> 49.5918 0.816406<1102.35 1267.08> 500 100<100 264.736> 549.592 0.816406<1102.34 1267.08>
VStem: 1389.62 93.7109<672.957 800> 1428.06 5.27344<-210 -111.807 -103.484 -68.6>
LayerCount: 2
Fore
SplineSet
1383.33203125 800 m 1x0c
 1483.33203125 800 l 1x0c
 1433.33203125 -210 l 1
 1428.47070312 -111.806640625 l 1
 1267.07617188 49.591796875 l 1x2a
 790.130859375 29.326171875 l 1
 766.66796875 -210 l 1
 743.3984375 27.33984375 l 1x42
 100 0 l 1
 100 100 l 1x82
 738.9375 72.849609375 l 1x42
 716.66796875 300 l 1
 816.66796875 300 l 1
 794.16796875 70.50390625 l 1
 1267.07617188 50.408203125 l 1
 1413.20703125 196.541015625 l 1
 1402.4296875 414.236328125 l 1
 1267.07617188 549.591796875 l 1x2a
 100 500 l 1
 100 600 l 1x12
 1267.07617188 550.408203125 l 1
 1389.62109375 672.95703125 l 1
 1383.33203125 800 l 1x0c
1392.50976562 614.607421875 m 1
 1366.66796875 550 l 1
 1399.81054688 467.140625 l 1
 1392.50976562 614.607421875 l 1
1414.53710938 169.67578125 m 1
 1366.66796875 50 l 1
 1428.05859375 -103.484375 l 1x02
 1414.53710938 169.67578125 l 1
EndSplineSet
EndChar

StartChar: U120b5
Encoding: 327 73909 71
Width: 1700
VWidth: 100
Flags: W
HStem: 0 100<100 288.067> 22.5605 54.6797<486.726 654.965 711.492 843.03> 33.2324 33.6582<855.57 989.521 1043.62 1208.35> 49.6406 0.71875<1245.61 1433.69> 500 100<100 288.069> 549.641 0.71875<1245.62 1433.69>
LayerCount: 2
Fore
SplineSet
1600 716.66796875 m 1x04
 1533.33203125 550 l 1
 1600 383.33203125 l 1
 1433.69140625 549.640625 l 1x04
 100 500 l 1
 100 600 l 1x08
 1433.69140625 550.359375 l 1
 1600 716.66796875 l 1x04
633.33203125 300 m 1
 733.33203125 300 l 1
 711.4921875 77.240234375 l 1x40
 989.521484375 66.890625 l 1x20
 966.66796875 300 l 1
 1066.66796875 300 l 1
 1043.6171875 64.876953125 l 1
 1433.69140625 50.359375 l 1
 1600 216.66796875 l 1
 1533.33203125 50 l 1
 1600 -116.66796875 l 1
 1433.69140625 49.640625 l 1x10
 1040.68945312 35.013671875 l 1
 1016.66796875 -210 l 1
 992.822265625 33.232421875 l 1x20
 706.1328125 22.560546875 l 1x40
 683.33203125 -210 l 1
 660.697265625 20.869140625 l 1
 100 0 l 1
 100 100 l 1x80
 654.96484375 79.34375 l 1
 633.33203125 300 l 1
EndSplineSet
EndChar

StartChar: U12034
Encoding: 328 73780 72
Width: 1083
VWidth: 100
Flags: W
VStem: 883.332 100<658.602 800>
LayerCount: 2
Fore
SplineSet
600 800 m 1
 533.33203125 633.33203125 l 1
 600 466.66796875 l 1
 433.33203125 633.33203125 l 1
 600 800 l 1
883.33203125 800 m 1
 983.33203125 800 l 1
 933.33203125 -210 l 1
 915.44921875 151.21484375 l 1
 767.35546875 299.3125 l 1
 100 250 l 1
 100 350 l 1
 767.35546875 300.6875 l 1
 901.4140625 434.748046875 l 1
 883.33203125 800 l 1
903.5234375 392.142578125 m 1
 866.66796875 300 l 1
 913.935546875 181.828125 l 1
 903.5234375 392.142578125 l 1
600 133.33203125 m 1
 533.33203125 -33.33203125 l 1
 600 -200 l 1
 433.33203125 -33.33203125 l 1
 600 133.33203125 l 1
EndSplineSet
EndChar

StartChar: U122eb
Encoding: 329 74475 73
Width: 1583
VWidth: 100
Flags: W
HStem: 0 100<100 264.736> 16.7598 66.7578<380.474 487.893 545.205 681.642> 30.8672 38.4258<712.407 822.619 877.154 1020.83> 49.5918 0.816406<1102.34 1267.08> 500 100<100 264.736> 549.592 0.816406<1102.34 1267.08>
VStem: 1389.62 93.7109<672.957 800> 1428.06 5.27344<-210 -111.807 -103.484 -68.6>
LayerCount: 2
Fore
SplineSet
1383.33203125 800 m 1x06
 1483.33203125 800 l 1x06
 1433.33203125 -210 l 1
 1428.47070312 -111.806640625 l 1
 1267.07617188 49.591796875 l 1x15
 873.8125 32.880859375 l 1
 850 -210 l 1
 826.384765625 30.8671875 l 1x21
 539.0859375 18.658203125 l 1
 516.66796875 -210 l 1
 494.4375 16.759765625 l 1x41
 100 0 l 1
 100 100 l 1x81
 487.892578125 83.517578125 l 1x41
 466.66796875 300 l 1
 566.66796875 300 l 1
 545.205078125 81.08203125 l 1
 822.619140625 69.29296875 l 1x21
 800 300 l 1
 900 300 l 1
 877.154296875 66.9765625 l 1
 1267.07617188 50.408203125 l 1
 1413.20703125 196.541015625 l 1
 1402.4296875 414.236328125 l 1
 1267.07617188 549.591796875 l 1x15
 100 500 l 1
 100 600 l 1x09
 1267.07617188 550.408203125 l 1
 1389.62109375 672.95703125 l 1
 1383.33203125 800 l 1x06
1392.50976562 614.607421875 m 1
 1366.66796875 550 l 1
 1399.81054688 467.140625 l 1
 1392.50976562 614.607421875 l 1
1414.53710938 169.67578125 m 1
 1366.66796875 50 l 1
 1428.05859375 -103.484375 l 1x01
 1414.53710938 169.67578125 l 1
EndSplineSet
EndChar

StartChar: U122ec
Encoding: 330 74476 74
Width: 1583
VWidth: 100
Flags: W
HStem: 0 100<100 264.736> 16.7598 66.7578<380.474 487.893 545.205 681.642> 30.8672 38.4258<712.407 822.619 877.154 1020.83> 49.5918 0.816406<1102.34 1267.08> 500 100<100 264.736> 549.592 0.816406<1102.34 1267.08>
VStem: 1389.62 93.7109<672.957 800> 1428.06 5.27344<-210 -111.807 -103.484 -68.6>
LayerCount: 2
Fore
SplineSet
1383.33203125 800 m 1x06
 1483.33203125 800 l 1x06
 1433.33203125 -210 l 1
 1428.47070312 -111.806640625 l 1
 1267.07617188 49.591796875 l 1x15
 873.8125 32.880859375 l 1
 850 -210 l 1
 826.384765625 30.8671875 l 1x21
 539.0859375 18.658203125 l 1
 516.66796875 -210 l 1
 494.4375 16.759765625 l 1x41
 100 0 l 1
 100 100 l 1x81
 487.892578125 83.517578125 l 1x41
 466.66796875 300 l 1
 566.66796875 300 l 1
 545.205078125 81.08203125 l 1
 822.619140625 69.29296875 l 1x21
 800 300 l 1
 900 300 l 1
 877.154296875 66.9765625 l 1
 1267.07617188 50.408203125 l 1
 1413.20703125 196.541015625 l 1
 1402.4296875 414.236328125 l 1
 1267.07617188 549.591796875 l 1x15
 100 500 l 1
 100 600 l 1x09
 1267.07617188 550.408203125 l 1
 1389.62109375 672.95703125 l 1
 1383.33203125 800 l 1x06
1392.50976562 614.607421875 m 1
 1366.66796875 550 l 1
 1399.81054688 467.140625 l 1
 1392.50976562 614.607421875 l 1
1414.53710938 169.67578125 m 1
 1366.66796875 50 l 1
 1428.05859375 -103.484375 l 1x01
 1414.53710938 169.67578125 l 1
EndSplineSet
EndChar

StartChar: U1214d
Encoding: 331 74061 75
Width: 3083
VWidth: 100
Flags: W
HStem: -83.082 99.3047<1694.53 1866.03> -58.8281 51.0918<2141.9 2298.32 2318.3 2488> -34.0742 1.48828<2765.72 2924.55> 0 100<100 276.392> 19.0781 61.6035<376.056 529.611 586.83 706.027> 30.4785 39.1934<742.445 864.25 918.875 1074.5> 49.6191 0.761719<1174 1350.38> 250.906 97.9961<1711 1882.55> 275.756 48.3926<2121.49 2281.79 2334.78 2458.18> 298.604 2.79883<2731.75 2908.02> 500 100<100 276.397> 549.619 0.761719<1173.98 1350.38> 584.895 96.6855<1727.47 1899.09> 606.529 53.7109<2174.83 2265.25 2351.24 2502.4> 631.283 4.10742<2715.29 2891.48>
VStem: 1633.33 94.1367<681.58 800> 2258.33 100<660.24 800> 2284.38 48<184.842 273.852 326.252 445.053> 2300.85 14.998<-149.129 -58.8281 -7.73633 111.834> 2883.33 100<658.601 800> 2924.62 17.4531<-173.978 -34.0742 -32.5859 108.102>
LayerCount: 2
Fore
SplineSet
1633.33203125 800 m 1x800128
 1733.33203125 800 l 1
 1727.46875 681.580078125 l 1x800928
 2265.25 660.240234375 l 1x000528
 2258.33203125 800 l 1
 2358.33203125 800 l 1
 2351.24414062 656.828125 l 1
 2891.48046875 635.390625 l 1
 2883.33203125 800 l 1
 2983.33203125 800 l 1x000390
 2942.08007812 -33.283203125 l 1
 2943.33203125 -33.33203125 l 1
 2942.07617188 -33.3828125 l 1
 2933.33203125 -210 l 1
 2924.62304688 -34.07421875 l 1x200308
 2315.84570312 -58.232421875 l 1
 2308.33203125 -210 l 1
 2300.84765625 -58.828125 l 1x400128
 1689.61523438 -83.08203125 l 1
 1683.33203125 -210 l 1
 1633.33203125 800 l 1x800128
1516.66796875 716.66796875 m 1
 1450 550 l 1
 1516.66796875 383.33203125 l 1
 1350.38085938 549.619140625 l 1x0011
 100 500 l 1
 100 600 l 1x0021
 1350.38085938 550.380859375 l 1x0011
 1516.66796875 716.66796875 l 1
2891.68359375 631.283203125 m 1x0043
 2348.9140625 609.744140625 l 1
 2334.77539062 324.1484375 l 1x0083
 2908.015625 301.40234375 l 1
 2891.68359375 631.283203125 l 1x0043
2267.91015625 606.529296875 m 1x0105
 1722.68359375 584.89453125 l 1x0009
 1711 348.90234375 l 1
 2281.78515625 326.251953125 l 1
 2267.91015625 606.529296875 l 1x0105
508.33203125 300 m 1
 608.33203125 300 l 1
 586.830078125 80.681640625 l 1x0801
 864.25 69.671875 l 1x0401
 841.66796875 300 l 1
 941.66796875 300 l 1
 918.875 67.505859375 l 1
 1350.38085938 50.380859375 l 1
 1516.66796875 216.66796875 l 1
 1450 50 l 1
 1516.66796875 -116.66796875 l 1
 1350.38085938 49.619140625 l 1x0201
 915.427734375 32.357421875 l 1
 891.66796875 -210 l 1
 868.091796875 30.478515625 l 1x0401
 580.791015625 19.078125 l 1x0801
 558.33203125 -210 l 1
 536.046875 17.302734375 l 1
 100 0 l 1
 100 100 l 1x1001
 529.611328125 82.951171875 l 1
 508.33203125 300 l 1
2908.15429688 298.603515625 m 1x204140
 2332.37890625 275.755859375 l 1x008140
 2318.3046875 -8.529296875 l 1
 2924.54882812 -32.5859375 l 1
 2908.15429688 298.603515625 l 1x204140
2284.37890625 273.8515625 m 1
 1706.1484375 250.90625 l 1
 1694.53125 16.22265625 l 1x810140
 2298.31835938 -7.736328125 l 1x400140
 2284.37890625 273.8515625 l 1
EndSplineSet
EndChar

StartChar: U12081
Encoding: 332 73857 76
Width: 1700
VWidth: 100
Flags: W
HStem: 0 100<100 288.066> 19.4473 60.8828<405.732 571.328 628.463 759.387> 29.8574 40.4805<781.322 896.924 969.389 1130.7> 49.6406 0.71875<1245.63 1433.69> 500 100<100 288.069> 549.641 0.71875<1245.62 1433.69>
LayerCount: 2
Fore
SplineSet
1600 716.66796875 m 1x04
 1533.33203125 550 l 1
 1600 383.33203125 l 1
 1433.69140625 549.640625 l 1x04
 100 500 l 1
 100 600 l 1x08
 1433.69140625 550.359375 l 1
 1600 716.66796875 l 1x04
550 300 m 1
 650 300 l 1
 628.462890625 80.330078125 l 1x40
 896.923828125 70.337890625 l 1x20
 883.33203125 175 l 1
 933.33203125 175 l 1
 983.33203125 175 l 1
 969.388671875 67.640625 l 1
 1433.69140625 50.359375 l 1
 1600 216.66796875 l 1
 1533.33203125 50 l 1
 1600 -116.66796875 l 1
 1433.69140625 49.640625 l 1x10
 964.78515625 32.1875 l 1
 933.33203125 -210 l 1
 902.181640625 29.857421875 l 1x20
 622.494140625 19.447265625 l 1x40
 600 -210 l 1
 577.66796875 17.779296875 l 1
 100 0 l 1
 100 100 l 1x80
 571.328125 82.45703125 l 1
 550 300 l 1
933.33203125 175 m 1
 883.33203125 300 l 1
 983.33203125 300 l 1
 933.33203125 175 l 1
EndSplineSet
EndChar

StartChar: U122cb
Encoding: 333 74443 77
Width: 2083
VWidth: 100
Flags: W
HStem: 0 21G<957.145 1218.28> 48.2559 3.50195<1495.82 1587.04> 193.881 42.4434<433.925 482.061 576.699 578.348> 212.506 8.39453<646.419 741.176 744.484 791.143>
VStem: 742.16 0.683594<206.668 212.506> 742.844 0.695312<206.668 212.506> 1556.29 93.7109<672.961 800> 1883.33 100<658.6 800>
LayerCount: 2
Fore
SplineSet
957.14453125 800 m 1xeb
 890.4765625 633.33203125 l 1
 957.14453125 466.66796875 l 1
 792.595703125 631.212890625 l 1
 744.484375 220.6640625 l 1
 791.142578125 217.333984375 l 1
 957.14453125 383.33203125 l 1
 890.4765625 216.66796875 l 1
 957.14453125 50 l 1
 791.142578125 216.001953125 l 1
 743.5390625 212.603515625 l 1xe7
 742.84375 206.66796875 l 1
 742.16015625 212.505859375 l 1xdb
 576.69921875 200.6953125 l 1
 528.5703125 -210 l 1
 481.240234375 193.880859375 l 1
 100 166.66796875 l 1
 100 266.66796875 l 1
 309.017578125 251.748046875 l 1
 268.748046875 595.376953125 l 1
 100 583.33203125 l 1
 100 683.33203125 l 1
 791.142578125 633.998046875 l 1
 957.14453125 800 l 1xeb
957.14453125 50 m 1
 957.14453125 100 l 1
 1587.04101562 51.7578125 l 1
 1569.09765625 414.234375 l 1
 1434.26367188 549.068359375 l 1
 957.14453125 500 l 1
 957.14453125 600 l 1
 1434.26367188 550.931640625 l 1
 1556.2890625 672.95703125 l 1
 1550 800 l 1
 1650 800 l 1
 1600 -210 l 1
 1587.21484375 48.255859375 l 1
 957.14453125 0 l 1
 957.14453125 50 l 1
1883.33203125 800 m 1
 1983.33203125 800 l 1
 1933.33203125 -210 l 1
 1883.33203125 800 l 1
693.736328125 625.712890625 m 1
 576.69921875 617.359375 l 1
 531.98828125 235.83203125 l 1
 741.17578125 220.900390625 l 1xd3
 693.736328125 625.712890625 l 1
1559.17773438 614.61328125 m 1
 1533.33203125 550 l 1
 1566.47851562 467.134765625 l 1
 1559.17773438 614.61328125 l 1
481.240234375 610.544921875 m 1
 360.62109375 601.935546875 l 1
 319.49609375 251 l 1
 525.095703125 236.32421875 l 1xe3
 481.240234375 610.544921875 l 1
EndSplineSet
EndChar

StartChar: U12083
Encoding: 334 73859 78
Width: 1200
VWidth: 100
Flags: W
HStem: 0 21G<100 370.664>
LayerCount: 2
Fore
SplineSet
933.33203125 716.66796875 m 1
 866.66796875 550 l 1
 933.33203125 383.33203125 l 1
 767.35546875 549.3125 l 1
 100 500 l 1
 100 600 l 1
 767.35546875 550.6875 l 1
 933.33203125 716.66796875 l 1
1100 716.66796875 m 1
 1033.33203125 550 l 1
 1100 383.33203125 l 1
 933.33203125 550 l 1
 1100 716.66796875 l 1
933.33203125 216.66796875 m 1
 866.66796875 50 l 1
 933.33203125 -116.66796875 l 1
 767.35546875 49.3125 l 1
 100 0 l 1
 100 100 l 1
 767.35546875 50.6875 l 1
 933.33203125 216.66796875 l 1
1100 216.66796875 m 1
 1033.33203125 50 l 1
 1100 -116.66796875 l 1
 933.33203125 50 l 1
 1100 216.66796875 l 1
EndSplineSet
EndChar

StartChar: U12076
Encoding: 335 73846 79
Width: 1583
VWidth: 100
Flags: W
HStem: 83.332 100<100 288.068> 110.053 47.541<575.691 702.105 817.877 890.157> 132.328 2.00977<1228.3 1416.29> 416.668 100<100 288.06> 431.947 60.0977<607.092 761.516 771.764 774.73> 465.053 3.23633<1211.85 1399.75>
VStem: 1383.33 100<658.605 800>
LayerCount: 2
Fore
SplineSet
716.66796875 800 m 1x0a
 816.66796875 800 l 1
 771.763671875 491.6640625 l 1
 1399.75390625 468.2890625 l 1
 1383.33203125 800 l 1
 1483.33203125 800 l 1
 1433.33203125 -210 l 1
 1416.38476562 132.328125 l 1x26
 817.876953125 110.052734375 l 1x42
 994.4375 -208.3203125 l 1
 744.541015625 107.322265625 l 1
 100 83.33203125 l 1
 100 183.33203125 l 1x82
 702.10546875 160.921875 l 1
 613.953125 272.265625 l 1
 655.5546875 300 l 1
 697.15625 327.734375 l 1
 791.51171875 157.59375 l 1x42
 1416.28515625 134.337890625 l 1
 1399.9140625 465.052734375 l 1x26
 607.091796875 435.54296875 l 1
 655.5546875 300 l 1
 510.521484375 431.947265625 l 1x0a
 100 416.66796875 l 1
 100 516.66796875 l 1x12
 761.515625 492.044921875 l 1
 716.66796875 800 l 1x0a
EndSplineSet
EndChar

StartChar: U12322
Encoding: 336 74530 80
Width: 3083
VWidth: 100
Flags: W
HStem: -87.1406 2.85547<1125.85 1204.89> -86.0605 0.341797<1217.28 1221.11> -85.7188 0.337891<1217.28 1221.11> -40.2148 6.88281<1962.11 2054.45> -33.332 6.82227<1962.11 2054.45>
VStem: 487.363 3.03906<-17.5781 100.221> 1161.11 100<658.603 800> 1457.9 6.38477<10.748 128.34> 1624.08 7.34375<-1.53125 77.1049> 1791.85 5.16602<-13.9277 64.8682> 1960.1 2.00391<-26.3613 91.5584> 2550 100<658.607 800> 2883.33 100<658.6 800>
LayerCount: 2
Fore
SplineSet
438.890625 800 m 1x0ff8
 538.890625 800 l 1
 490.40234375 -17.84765625 l 1
 665.5546875 -33.33203125 l 1
 100 -83.33203125 l 1
 100 16.66796875 l 1
 487.36328125 -17.578125 l 1
 463.85546875 378.939453125 l 1
 100 333.33203125 l 1
 100 433.33203125 l 1
 463.330078125 387.7890625 l 1
 438.890625 800 l 1x0ff8
844.4453125 800 m 1
 844.4453125 649.490234375 l 1
 1107.28320312 614.939453125 l 1
 1022.22265625 700 l 1
 1122.22265625 800 l 1
 1122.22265625 612.974609375 l 1
 1170.68359375 606.60546875 l 1
 1161.109375 800 l 1
 1261.109375 800 l 1
 1217.27929688 -85.380859375 l 1x27f8
 1221.109375 -85.71875 l 1
 1217.24414062 -86.060546875 l 1x47f8
 1211.109375 -210 l 1
 1205.02734375 -87.140625 l 1
 655.5546875 -135.71875 l 1
 655.5546875 -35.71875 l 1
 1204.88671875 -84.28515625 l 1x87f8
 1193.81835938 139.259765625 l 1
 840.7421875 92.84765625 l 1
 840.7421875 192.84765625 l 1
 1193.4609375 146.482421875 l 1
 1182.578125 366.345703125 l 1
 840.7421875 321.41015625 l 1
 840.7421875 421.41015625 l 1
 1182.07226562 376.541015625 l 1
 1171.3359375 593.43359375 l 1
 840.7421875 549.9765625 l 1
 840.7421875 603.703125 l 1
 744.4453125 700 l 1
 844.4453125 800 l 1
1411.109375 800 m 1
 1511.109375 800 l 1
 1464.28710938 10.275390625 l 1
 1624.08203125 -1.53125 l 1
 1577.77734375 522.22265625 l 1
 1677.77734375 522.22265625 l 1
 1631.42578125 -2.07421875 l 1
 1791.84570312 -13.927734375 l 1
 1744.4453125 522.22265625 l 1
 1844.4453125 522.22265625 l 1
 1797.01171875 -14.310546875 l 1
 1960.10351562 -26.361328125 l 1
 1911.109375 800 l 1
 2011.109375 800 l 1
 1962.10742188 -26.509765625 l 1x0ff8
 2054.4453125 -33.33203125 l 1
 1961.29492188 -40.21484375 l 1x17f8
 1961.109375 -43.33203125 l 1
 1960.92578125 -40.2421875 l 1
 1377.77734375 -83.33203125 l 1
 1377.77734375 16.66796875 l 1
 1457.90234375 10.748046875 l 1
 1411.109375 800 l 1
2384.72265625 800 m 1
 2359.72265625 675 l 1
 2384.72265625 550 l 1
 2259.72265625 675 l 1
 2384.72265625 800 l 1
2550 800 m 1
 2650 800 l 1
 2600 -210 l 1
 2583.234375 128.681640625 l 1
 2322.22265625 83.33203125 l 1
 2322.22265625 131.59375 l 1
 2044.4453125 83.33203125 l 1
 2044.4453125 183.33203125 l 1
 2322.22265625 135.0703125 l 1
 2322.22265625 183.33203125 l 1
 2582.76953125 138.0625 l 1
 2566.87304688 459.173828125 l 1
 2322.22265625 416.66796875 l 1
 2322.22265625 464.9296875 l 1
 2044.4453125 416.66796875 l 1
 2044.4453125 516.66796875 l 1
 2322.22265625 468.40625 l 1
 2322.22265625 516.66796875 l 1
 2566.125 474.291015625 l 1
 2550 800 l 1
2883.33203125 800 m 1
 2983.33203125 800 l 1
 2933.33203125 -210 l 1
 2883.33203125 800 l 1
2199.53515625 50 m 1
 2174.53515625 -75 l 1
 2199.53515625 -200 l 1
 2074.53515625 -75 l 1
 2199.53515625 50 l 1
2384.72265625 50 m 1
 2359.72265625 -75 l 1
 2384.72265625 -200 l 1
 2259.72265625 -75 l 1
 2384.72265625 50 l 1
2569.90625 50 m 1
 2544.90625 -75 l 1
 2569.90625 -200 l 1
 2444.90625 -75 l 1
 2569.90625 50 l 1
EndSplineSet
EndChar

StartChar: U1218d
Encoding: 337 74125 81
Width: 1710
VWidth: 100
Flags: W
HStem: 130.502 5.69336<747.447 827.225> 461.934 9.52344<725.643 805.168>
VStem: 850 6.79492<-210 -106.701>
LayerCount: 2
Fore
SplineSet
537.5 800 m 1
 512.5 675 l 1
 537.5 550 l 1
 412.5 675 l 1
 537.5 800 l 1
800 800 m 1
 900 800 l 1
 852.81640625 564.080078125 l 1
 1610 514.265625 l 1
 894.552734375 467.197265625 l 1
 882.00390625 276.453125 l 1
 1610 228.55859375 l 1
 875.673828125 180.248046875 l 1
 863.287109375 -8.0234375 l 1
 1610 -57.1484375 l 1
 856.794921875 -106.701171875 l 1
 850 -210 l 1
 827.59765625 130.501953125 l 1
 287.5 83.33203125 l 1
 287.5 133.33203125 l 1
 287.5 183.33203125 l 1
 827.224609375 136.1953125 l 1
 805.79296875 461.93359375 l 1
 287.5 416.66796875 l 1
 287.5 466.66796875 l 1
 287.5 516.66796875 l 1
 805.16796875 471.45703125 l 1
 800 550 l 1
 850 550 l 1
 800 800 l 1
287.5 133.33203125 m 1
 100 83.33203125 l 1
 100 183.33203125 l 1
 287.5 133.33203125 l 1
287.5 466.66796875 m 1
 100 416.66796875 l 1
 100 516.66796875 l 1
 287.5 466.66796875 l 1
537.5 50 m 1
 512.5 -75 l 1
 537.5 -200 l 1
 412.5 -75 l 1
 537.5 50 l 1
EndSplineSet
EndChar

StartChar: U12120
Encoding: 338 74016 82
Width: 1457
VWidth: 100
Flags: W
HStem: 0 21G<100 304>
LayerCount: 2
Fore
SplineSet
1052.0234375 752.0234375 m 1
 1273.73828125 459.59375 l 1
 981.3125 681.3125 l 1
 1052.0234375 752.0234375 l 1
100 600 m 1
 610 550 l 1
 100 500 l 1
 100 600 l 1
885.35546875 585.35546875 m 1
 1100.97265625 300.97265625 l 1
 1135.35546875 335.35546875 l 1
 1357.0703125 42.9296875 l 1
 1064.64453125 264.64453125 l 1
 1099.02734375 299.02734375 l 1
 814.64453125 514.64453125 l 1
 885.35546875 585.35546875 l 1
718.6875 418.6875 m 1
 940.40625 126.26171875 l 1
 647.9765625 347.9765625 l 1
 718.6875 418.6875 l 1
100 100 m 1
 610 50 l 1
 100 0 l 1
 100 100 l 1
EndSplineSet
EndChar

StartChar: U12248
Encoding: 339 74312 83
Width: 2083
VWidth: 100
Flags: W
HStem: 0 21G<100 327.097 1375.59 1602.69> 47.9941 4.0293<1841.08 1920.36> 545.824 8.38867<1816.43 1895.5>
VStem: 1883.33 100<658.603 800>
LayerCount: 2
Fore
SplineSet
1883.33203125 800 m 1
 1983.33203125 800 l 1
 1933.33203125 -210 l 1
 1920.56054688 47.994140625 l 1
 1375.59375 0 l 1
 1375.59375 100 l 1
 1920.36132812 52.0234375 l 1
 1895.9140625 545.82421875 l 1
 1375.59375 500 l 1
 1375.59375 600 l 1
 1895.5 554.212890625 l 1
 1883.33203125 800 l 1
1026.4296875 668.6875 m 1
 1198.14453125 426.26171875 l 1
 955.71875 597.9765625 l 1
 1026.4296875 668.6875 l 1
100 600 m 1
 667.7421875 550 l 1
 100 500 l 1
 100 600 l 1
893.09765625 535.35546875 m 1
 1058.94921875 301.20703125 l 1
 1093.09765625 335.35546875 l 1
 1264.8125 92.9296875 l 1
 1022.38671875 264.64453125 l 1
 1056.53515625 298.79296875 l 1
 822.38671875 464.64453125 l 1
 893.09765625 535.35546875 l 1
759.76171875 402.0234375 m 1
 931.48046875 159.59375 l 1
 689.05078125 331.3125 l 1
 759.76171875 402.0234375 l 1
100 100 m 1
 667.7421875 50 l 1
 100 0 l 1
 100 100 l 1
EndSplineSet
EndChar

StartChar: Ue00b
Encoding: 340 57355 84
Width: 2083
VWidth: 100
Flags: W
HStem: -102.002 54.8242<1556.98 1585.36 1647.06 1679.66> 129.131 8.48633<1799.22 1888.19>
LayerCount: 2
Fore
SplineSet
1024.34765625 804.10546875 m 1
 1121.0625 636.6796875 l 1
 973.078125 722.1640625 l 1
 1053.38476562 583.142578125 l 1
 1055.59765625 585.35546875 l 1
 1152.3125 417.9296875 l 1
 984.88671875 514.64453125 l 1
 987.099609375 516.857421875 l 1
 848.078125 597.1640625 l 1
 933.5625 449.1796875 l 1
 766.13671875 545.89453125 l 1
 828.63671875 608.39453125 l 1
 891.13671875 670.89453125 l 1
 953.63671875 733.39453125 l 1
 1024.34765625 804.10546875 l 1
1883.33203125 800 m 1
 1983.33203125 800 l 1
 1934.3125 300 l 1
 1983.33203125 300 l 1
 1933.33203125 175 l 1
 1883.33203125 300 l 1
 1932.3515625 300 l 1
 1920.31054688 422.828125 l 1
 1413.09375 375 l 1
 1413.09375 475 l 1
 1919.88085938 427.2109375 l 1
 1896.0234375 670.5390625 l 1
 1413.09375 625 l 1
 1413.09375 725 l 1
 1895.140625 679.544921875 l 1
 1883.33203125 800 l 1
1933.33203125 175 m 1
 1983.33203125 175 l 1
 1933.33203125 -210 l 1
 1916.07421875 -77.119140625 l 1
 1638.06640625 -98.724609375 l 1
 1616.66796875 -210 l 1
 1595.8984375 -102.001953125 l 1
 1300 -125 l 1
 1300 -25 l 1
 1585.35546875 -47.177734375 l 1
 1566.66796875 50 l 1
 1666.66796875 50 l 1
 1647.05859375 -51.97265625 l 1
 1915.51953125 -72.837890625 l 1
 1889.2890625 129.130859375 l 1
 1300 83.33203125 l 1
 1300 183.33203125 l 1
 1888.1875 137.6171875 l 1
 1883.33203125 175 l 1
 1933.33203125 175 l 1
100 725 m 1
 630.2421875 675 l 1
 100 625 l 1
 100 725 l 1
910.578125 659.6640625 m 1
 990.884765625 520.642578125 l 1
 1049.59960938 579.357421875 l 1
 910.578125 659.6640625 l 1
100 475 m 1
 630.2421875 425 l 1
 100 375 l 1
 100 475 l 1
EndSplineSet
EndChar

StartChar: U1222c
Encoding: 341 74284 85
Width: 1200
VWidth: 100
Flags: W
LayerCount: 2
Fore
SplineSet
850 800 m 1
 700 550 l 1
 850 300 l 1
 600 550 l 1
 850 800 l 1
850 300 m 1
 700 50 l 1
 850 -200 l 1
 600 50 l 1
 850 300 l 1
1100 800 m 1
 950 550 l 1
 1100 300 l 1
 850 550 l 1
 1100 800 l 1
1100 300 m 1
 950 50 l 1
 1100 -200 l 1
 850 50 l 1
 1100 300 l 1
100 350 m 1
 610 300 l 1
 100 250 l 1
 100 350 l 1
EndSplineSet
EndChar

StartChar: U122ed
Encoding: 342 74477 86
Width: 1583
VWidth: 100
Flags: W
HStem: 0 21G<100 337.333>
LayerCount: 2
Fore
SplineSet
1383.33203125 800 m 1
 1483.33203125 800 l 1
 1433.33203125 550 l 1
 1383.33203125 800 l 1
1433.33203125 550 m 1
 1483.33203125 550 l 1
 1433.33203125 -210 l 1
 1383.33203125 550 l 1
 1433.33203125 550 l 1
1046.8125 663.48046875 m 1
 1206.03125 433.5546875 l 1
 976.1015625 592.76953125 l 1
 1046.8125 663.48046875 l 1
100 600 m 1
 693.33203125 550 l 1
 100 500 l 1
 100 600 l 1
953.0625 569.73046875 m 1
 1112.28125 339.8046875 l 1
 882.3515625 499.01953125 l 1
 953.0625 569.73046875 l 1
859.3125 475.98046875 m 1
 1018.53125 246.0546875 l 1
 788.6015625 405.26953125 l 1
 859.3125 475.98046875 l 1
1187.4375 429.10546875 m 1
 1346.65625 199.1796875 l 1
 1116.7265625 358.39453125 l 1
 1187.4375 429.10546875 l 1
765.5625 382.23046875 m 1
 924.78125 152.3046875 l 1
 694.8515625 311.51953125 l 1
 765.5625 382.23046875 l 1
999.9375 241.60546875 m 1
 1159.15625 11.6796875 l 1
 929.2265625 170.89453125 l 1
 999.9375 241.60546875 l 1
100 100 m 1
 693.33203125 50 l 1
 100 0 l 1
 100 100 l 1
EndSplineSet
EndChar

StartChar: U1222d
Encoding: 343 74285 87
Width: 1200
VWidth: 100
Flags: W
HStem: 0 21G<100 404>
LayerCount: 2
Fore
SplineSet
975 800 m 1
 950 675 l 1
 975 550 l 1
 850 675 l 1
 975 800 l 1
975 550 m 1
 950 425 l 1
 975 300 l 1
 850 425 l 1
 975 550 l 1
975 300 m 1
 950 175 l 1
 975 50 l 1
 850 175 l 1
 975 300 l 1
975 50 m 1
 950 -75 l 1
 975 -200 l 1
 850 -75 l 1
 975 50 l 1
1100 800 m 1
 1075 675 l 1
 1100 550 l 1
 975 675 l 1
 1100 800 l 1
1100 550 m 1
 1075 425 l 1
 1100 300 l 1
 975 425 l 1
 1100 550 l 1
1100 300 m 1
 1075 175 l 1
 1100 50 l 1
 975 175 l 1
 1100 300 l 1
1100 50 m 1
 1075 -75 l 1
 1100 -200 l 1
 975 -75 l 1
 1100 50 l 1
100 600 m 1
 860 550 l 1
 100 500 l 1
 100 600 l 1
100 100 m 1
 860 50 l 1
 100 0 l 1
 100 100 l 1
EndSplineSet
EndChar

StartChar: U1224b
Encoding: 344 74315 88
Width: 2210
VWidth: 100
Flags: W
HStem: -2.03711 4.09766<1563.84 1644.97> 0 21G<100 280.43> 598.309 3.44141<1567.86 1648.58>
VStem: 1644.97 27.1992<2.06055 97.7826> 1658.93 6.81641<-210 -106.393>
LayerCount: 2
Fore
SplineSet
1423.2109375 800 m 1xa8
 1423.2109375 621.130859375 l 1
 1648.57617188 601.75 l 1
 1608.92578125 800 l 1
 1708.92578125 800 l 1
 1661.71679688 563.95703125 l 1
 2110 514.265625 l 1
 1703.61132812 469.21875 l 1
 1690.8359375 275.021484375 l 1
 2110 228.55859375 l 1
 1684.67578125 181.412109375 l 1
 1672.17382812 -8.6171875 l 1xb0
 2110 -57.1484375 l 1
 1665.7421875 -106.392578125 l 1
 1658.92578125 -210 l 1xa8
 1645.24414062 -2.037109375 l 1
 1423.2109375 -21.130859375 l 1
 1423.2109375 -200 l 1
 1323.2109375 -100 l 1
 1400.09179688 -23.119140625 l 1
 1087.49609375 -50 l 1
 1087.49609375 50 l 1
 1644.97460938 2.060546875 l 1xb0
 1608.92578125 550 l 1
 1658.92578125 550 l 1
 1649.26367188 598.30859375 l 1
 1087.49609375 550 l 1
 1087.49609375 650 l 1
 1400.09179688 623.119140625 l 1
 1323.2109375 700 l 1
 1423.2109375 800 l 1xa8
100 600 m 1
 551.07421875 550 l 1
 100 500 l 1
 100 600 l 1
814.5234375 573.44921875 m 1
 929.09765625 388.16796875 l 1
 743.8125 502.73828125 l 1
 814.5234375 573.44921875 l 1
719.28515625 478.2109375 m 1
 828.45703125 301.66796875 l 1
 862.14453125 335.35546875 l 1
 976.71875 150.0703125 l 1
 791.43359375 264.64453125 l 1
 825.12109375 298.33203125 l 1
 648.578125 407.5 l 1
 719.28515625 478.2109375 l 1
1332.92578125 416.8671875 m 1
 1401.04492188 322.005859375 l 1
 1568.92578125 300 l 1
 1429.93164062 281.779296875 l 1
 1565.73046875 92.671875 l 1
 1351.96679688 271.560546875 l 1
 1187.49609375 250 l 1
 1187.49609375 350 l 1
 1271.37304688 339.00390625 l 1
 1259.64453125 348.8203125 l 1
 1332.92578125 416.8671875 l 1
624.046875 382.97265625 m 1
 738.62109375 197.69140625 l 1
 553.33984375 312.265625 l 1
 624.046875 382.97265625 l 1
100 100 m 1
 551.07421875 50 l 1
 100 0 l 1x60
 100 100 l 1
EndSplineSet
EndChar

StartChar: U120f0
Encoding: 345 73968 89
Width: 874
VWidth: 100
Flags: W
LayerCount: 2
Fore
SplineSet
550 800 m 1
 650 800 l 1
 600 123.375 l 1
 574.884765625 463.244140625 l 1
 100 416.6875 l 1
 100 516.6875 l 1
 574.373046875 470.1796875 l 1
 550 800 l 1
330.6171875 306.73046875 m 1
 773.73828125 -207.0703125 l 1
 259.90625 236.01953125 l 1
 330.6171875 306.73046875 l 1
EndSplineSet
EndChar

StartChar: Uf001
Encoding: 346 61441 90
Width: 2210
VWidth: 100
Flags: W
HStem: 83.3125 100<100 381.4> 96.9629 72.834<418.01 643.365 699.393 948.803> 128.908 8.8418<1652.31 1928.88 1931.57 1932.27 1934.39 2110> 261.193 78.3535<1054.54 1110.19 1172.61 1232.06> 285.686 28.9414<1467.63 1530.48 1585.71 1638.35> 453.473 13.2148<825.266 838.516>
VStem: 643.365 56.0273<169.797 263.135> 1932.92 0.408203<123.375 128.908 137.734 229.519>
LayerCount: 2
Fore
SplineSet
1883.33203125 800 m 1x0f
 1983.33203125 800 l 1
 1934.38867188 137.681640625 l 1
 2110 133.3125 l 1
 1933.7421875 128.927734375 l 1
 1933.33203125 123.375 l 1
 1932.92382812 128.908203125 l 1x2f
 694.1953125 98.09375 l 1
 671.4296875 -210 l 1
 648.74609375 96.962890625 l 1x47
 100 83.3125 l 1
 100 183.3125 l 1x87
 643.365234375 169.796875 l 1
 622.830078125 447.685546875 l 1
 100 416.6875 l 1
 100 516.6875 l 1
 943.33203125 466.6875 l 1
 720.45703125 453.47265625 l 1
 699.392578125 168.40234375 l 1
 1136.6953125 157.5234375 l 1
 1121.59570312 261.193359375 l 1
 933.33203125 250.03125 l 1
 933.33203125 350.03125 l 1
 1110.18554688 339.546875 l 1x57
 1091.66796875 466.6875 l 1
 1191.66796875 466.6875 l 1
 1172.61132812 335.845703125 l 1
 1530.47851562 314.626953125 l 1
 1508.33203125 466.6875 l 1
 1608.33203125 466.6875 l 1
 1585.70898438 311.353515625 l 1
 1767.22851562 300.591796875 l 1
 1909.70703125 443.0703125 l 1
 1905.93945312 494.072265625 l 1
 1767.22851562 632.783203125 l 1
 933.33203125 583.34375 l 1
 933.33203125 683.34375 l 1
 1767.22851562 633.904296875 l 1
 1886.77148438 753.447265625 l 1
 1883.33203125 800 l 1x0f
1891.12890625 694.5 m 1
 1866.66796875 633.34375 l 1
 1902.21484375 544.46875 l 1
 1891.12890625 694.5 l 1
1911.91796875 413.166015625 m 1
 1866.66796875 300.03125 l 1
 1931.57421875 137.75 l 1
 1932.27148438 137.734375 l 1
 1911.91796875 413.166015625 l 1
1767.22851562 299.470703125 m 1
 1582.3828125 288.51171875 l 1
 1561.765625 146.94921875 l 1
 1928.88085938 137.818359375 l 1
 1767.22851562 299.470703125 l 1
1534.69335938 285.685546875 m 1
 1162.08984375 263.59375 l 1
 1146.60546875 157.27734375 l 1
 1554.87304688 147.12109375 l 1
 1534.69335938 285.685546875 l 1
EndSplineSet
EndChar

StartChar: U1227a
Encoding: 347 74362 91
Width: 877
VWidth: 100
Flags: W
HStem: 0 21G<100 370.666> 23.7754 52.6426<327.027 419.154> 521.953 56.3008<302.365 394.311>
VStem: 383.332 100<658.613 800> 421.76 23.2305<-65.0001 23.7754 76.418 201.967>
LayerCount: 2
Fore
SplineSet
383.33203125 800 m 1xf0
 483.33203125 800 l 1xf0
 472.0703125 572.5078125 l 1
 776.66796875 550 l 1
 469.833984375 527.328125 l 1
 447.408203125 74.330078125 l 1
 776.66796875 50 l 1
 444.990234375 25.4921875 l 1
 433.33203125 -210 l 1
 421.759765625 23.775390625 l 1xe8
 100 0 l 1
 100 100 l 1
 419.154296875 76.41796875 l 1
 397.09765625 521.953125 l 1
 100 500 l 1
 100 600 l 1
 394.310546875 578.25390625 l 1
 383.33203125 800 l 1xf0
EndSplineSet
EndChar

StartChar: LIG_CAB_PA_IB
Encoding: 348 -1 92
Width: 2083
VWidth: 100
Flags: W
HStem: -34.5605 2.46484<1484.92 1591.19> 0 21G<100 403.988> 23.9102 52.3516<357.024 460.828> 380.027 6.63672<1487.72 1570.46> 522.285 55.6094<332.344 435.996>
VStem: 425 100<658.61 800> 463.42 23.2344<-65.1327 23.9102 76.2617 201.997> 1013.75 5.81445<5.89453 123.586> 1550 100<658.605 800> 1591.31 17.4277<-173.508 -34.5605 -32.0957 108.123> 1883.33 100<658.6 800>
LayerCount: 2
Fore
SplineSet
425 800 m 1xfd20
 525 800 l 1xfd20
 513.751953125 572.779296875 l 1
 860 550 l 1
 511.48828125 527.072265625 l 1
 489.080078125 74.40234375 l 1
 860 50 l 1
 486.654296875 25.4375 l 1
 475 -210 l 1
 463.419921875 23.91015625 l 1xfb20
 100 0 l 1
 100 100 l 1
 460.828125 76.26171875 l 1
 438.748046875 522.28515625 l 1
 100 500 l 1
 100 600 l 1
 435.99609375 577.89453125 l 1
 425 800 l 1xfd20
966.66796875 800 m 1
 1066.66796875 800 l 1
 1044.7890625 430.962890625 l 1
 1570.46289062 386.6640625 l 1
 1550 800 l 1
 1650 800 l 1xf9a0
 1608.75 -33.25 l 1
 1610 -33.33203125 l 1
 1608.7421875 -33.4140625 l 1
 1600 -210 l 1
 1591.31445312 -34.560546875 l 1xf960
 850 -83.33203125 l 1
 850 16.66796875 l 1
 1013.75 5.89453125 l 1
 966.66796875 800 l 1
1883.33203125 800 m 1
 1983.33203125 800 l 1
 1933.33203125 -210 l 1
 1883.33203125 800 l 1
1570.79101562 380.02734375 m 1
 1039.11132812 335.22265625 l 1
 1019.56445312 5.51171875 l 1
 1591.19335938 -32.095703125 l 1
 1570.79101562 380.02734375 l 1
EndSplineSet
Ligature2: "ligsubtable" U1227a U12141
EndChar

StartChar: LIG_MACKIM__PAtKAC4_DMS
Encoding: 349 -1 93
Width: 2083
VWidth: 100
Flags: W
HStem: 0 21G<100 437.321> 24.0176 52.1191<387.02 502.502> 522.553 55.0547<362.332 477.678>
VStem: 466.668 100<658.607 800> 505.082 23.2383<-65.2578 24.0176 76.1367 202.022>
LayerCount: 2
Fore
SplineSet
466.66796875 800 m 1xf0
 566.66796875 800 l 1xf0
 555.4296875 572.998046875 l 1
 943.33203125 550 l 1
 553.146484375 526.8671875 l 1
 530.75 74.4609375 l 1
 943.33203125 50 l 1
 528.3203125 25.39453125 l 1
 516.66796875 -210 l 1
 505.08203125 24.017578125 l 1xe8
 100 0 l 1
 100 100 l 1
 502.501953125 76.13671875 l 1
 480.40234375 522.552734375 l 1
 100 500 l 1
 100 600 l 1
 477.677734375 577.607421875 l 1
 466.66796875 800 l 1xf0
1495.83203125 800 m 1
 1470.83203125 675 l 1
 1495.83203125 550 l 1
 1370.83203125 675 l 1
 1495.83203125 800 l 1
1883.33203125 800 m 1
 1983.33203125 800 l 1
 1933.33203125 550 l 1
 1883.33203125 800 l 1
1933.33203125 550 m 1
 1983.33203125 550 l 1
 1933.33203125 -210 l 1
 1915.02148438 68.310546875 l 1
 1809.02929688 174.302734375 l 1
 1152.08203125 125 l 1
 1152.08203125 175 l 1
 1152.08203125 225 l 1
 1809.02929688 175.697265625 l 1
 1901.84960938 268.517578125 l 1
 1897.41601562 335.916015625 l 1
 1808.8671875 424.46484375 l 1
 933.33203125 375 l 1
 933.33203125 475 l 1
 1808.8671875 425.53515625 l 1
 1886.41796875 503.0859375 l 1
 1883.33203125 550 l 1
 1933.33203125 550 l 1
1152.08203125 175 m 1
 933.33203125 125 l 1
 933.33203125 225 l 1
 1152.08203125 175 l 1
1495.83203125 50 m 1
 1470.83203125 -75 l 1
 1495.83203125 -200 l 1
 1370.83203125 -75 l 1
 1495.83203125 50 l 1
EndSplineSet
Ligature2: "ligsubtable" U1227a U1207d
EndChar

StartChar: LIG_SIPA_PA_LU
Encoding: 350 -1 94
Width: 1710
VWidth: 100
Flags: W
HStem: -83.332 100<600 741.386> -58.9492 51.3613<968.577 1089.98 1109.97 1242.54> -42.4883 18.3574<1301.08 1424.13 1442.49 1569.93> 0 21G<100 304.002> 250 100<600 739.287> 275.943 47.9961<954.977 1073.44 1126.43 1214.85> 292.486 14.9922<1288.19 1407.59 1458.95 1548.97> 583.332 100<600 722.744> 606.084 54.6309<1001.5 1056.89 1142.89 1247.56> 622.545 21.627<1334 1391.05 1475.41 1562.32>
VStem: 300 100<658.608 800> 338.447 23.2188<-64.529 23.377 76.8828 201.875> 722.744 87.6328<677.256 800> 727.082 79.3652<452.141 589.623> 743.543 46.3633<201.676 257.105 343.105 447.532> 760.006 13.3574<-132.426 -75.4102 8.95312 114.31> 1050 100<660.715 800> 1076.06 47.9961<185.161 273.566 326.562 445.023> 1092.52 14.9922<-149.012 -58.9492 -7.58789 111.814> 1383.33 100<658.616 800> 1408.58 49.6289<168.634 290.029 310.021 442.527> 1425.04 16.627<-165.538 -42.4883 -24.1309 109.335>
LayerCount: 2
Fore
SplineSet
300 800 m 1x1020
 400 800 l 1x1020
 388.697265625 571.697265625 l 1
 610 550 l 1
 386.5390625 528.091796875 l 1
 364.064453125 74.111328125 l 1
 610 50 l 1
 361.666015625 25.654296875 l 1
 350 -210 l 1
 338.447265625 23.376953125 l 1x1010
 100 0 l 1
 100 100 l 1
 335.798828125 76.8828125 l 1
 313.814453125 520.962890625 l 1
 100 500 l 1
 100 600 l 1
 310.923828125 579.3203125 l 1
 300 800 l 1x1020
716.66796875 800 m 1
 816.66796875 800 l 1
 810.376953125 672.91796875 l 1
 1056.89453125 660.71484375 l 1x0088
 1050 800 l 1
 1150 800 l 1
 1142.89453125 656.45703125 l 1
 1391.046875 644.171875 l 1
 1383.33203125 800 l 1
 1483.33203125 800 l 1x004890
 1475.41015625 639.99609375 l 1
 1610 633.33203125 l 1
 1474.75 626.63671875 l 1
 1458.94921875 307.478515625 l 1
 1610 300 l 1
 1458.20703125 292.486328125 l 1x024008
 1442.48828125 -25.0390625 l 1
 1610 -33.33203125 l 1
 1441.66601562 -41.666015625 l 1
 1433.33203125 -210 l 1
 1425.0390625 -42.48828125 l 1x224004
 1107.51367188 -58.20703125 l 1
 1100 -210 l 1
 1092.52148438 -58.94921875 l 1
 773.36328125 -74.75 l 1
 766.66796875 -210 l 1
 760.005859375 -75.41015625 l 1x400124
 600 -83.33203125 l 1
 600 16.66796875 l 1
 755.828125 8.953125 l 1
 743.54296875 257.10546875 l 1x8002
 600 250 l 1
 600 350 l 1
 739.287109375 343.10546875 l 1
 727.08203125 589.623046875 l 1x8804
 600 583.33203125 l 1
 600 683.33203125 l 1
 722.744140625 677.255859375 l 1x8908
 716.66796875 800 l 1
1392.1171875 622.544921875 m 1x0440
 1140.59960938 610.09375 l 1
 1126.43359375 323.939453125 l 1
 1407.58789062 310.021484375 l 1
 1392.1171875 622.544921875 l 1x0440
1059.59960938 606.083984375 m 1x0084
 806.447265625 593.552734375 l 1
 793.916015625 340.400390625 l 1
 1073.4375 326.5625 l 1
 1059.59960938 606.083984375 l 1x0084
1408.578125 290.029296875 m 1x240048
 1124.05664062 275.943359375 l 1
 1109.97070312 -8.578125 l 1
 1424.13085938 -24.130859375 l 1
 1408.578125 290.029296875 l 1x240048
1076.06054688 273.56640625 m 1
 789.90625 259.400390625 l 1
 777.455078125 7.8828125 l 1
 1089.98046875 -7.587890625 l 1x400240
 1076.06054688 273.56640625 l 1
EndSplineSet
Ligature2: "ligsubtable" U1227a U121fb
EndChar

StartChar: U12111
Encoding: 351 74001 95
Width: 750
VWidth: 100
Flags: W
HStem: 0 21G<100 304.004>
VStem: 550 100<658.606 800>
LayerCount: 2
Fore
SplineSet
550 800 m 1
 650 800 l 1
 600 -210 l 1
 587.23828125 47.767578125 l 1
 100 0 l 1
 100 100 l 1
 587.017578125 52.25390625 l 1
 562.60546875 545.353515625 l 1
 100 500 l 1
 100 600 l 1
 562.14453125 554.69140625 l 1
 550 800 l 1
EndSplineSet
EndChar

StartChar: U121b8
Encoding: 352 74168 96
Width: 750
VWidth: 100
Flags: W
HStem: 0 21G<100 304.004>
VStem: 550 100<658.606 800>
LayerCount: 2
Fore
SplineSet
550 800 m 1
 650 800 l 1
 600 -210 l 1
 587.23828125 47.767578125 l 1
 100 0 l 1
 100 100 l 1
 587.017578125 52.25390625 l 1
 562.60546875 545.353515625 l 1
 100 500 l 1
 100 600 l 1
 562.14453125 554.69140625 l 1
 550 800 l 1
EndSplineSet
EndChar

StartChar: U12075
Encoding: 353 73845 97
Width: 2208
VWidth: 100
Flags: W
LayerCount: 2
Fore
SplineSet
1326.5390625 842.3984375 m 1
 2100.03125 300.6171875 l 1
 2108.48046875 305.30078125 l 1
 2100.91210938 300 l 1
 2108.48046875 294.69921875 l 1
 2100.03125 299.3828125 l 1
 1326.5390625 -242.3984375 l 1
 1273.5390625 -157.6015625 l 1
 2098.91992188 300 l 1
 1273.5390625 757.6015625 l 1
 1326.5390625 842.3984375 l 1
583.3125 800 m 1
 516.6484375 633.33203125 l 1
 583.3125 466.66796875 l 1
 416.6484375 633.33203125 l 1
 583.3125 800 l 1
1235.30078125 635.33984375 m 1
 1407.0078125 392.92578125 l 1
 1164.58984375 564.62890625 l 1
 1235.30078125 635.33984375 l 1
1035.3125 435.3515625 m 1
 1207.01953125 192.93359375 l 1
 964.6015625 364.640625 l 1
 1035.3125 435.3515625 l 1
100 350 m 1
 299.9921875 300 l 1
 100 250 l 1
 100 350 l 1
299.9921875 300 m 1
 299.9921875 350 l 1
 909.9609375 300 l 1
 299.9921875 250 l 1
 299.9921875 300 l 1
1335.296875 335.35546875 m 1
 1507.00390625 92.9375 l 1
 1264.5859375 264.64453125 l 1
 1335.296875 335.35546875 l 1
583.3125 133.33203125 m 1
 516.6484375 -33.33203125 l 1
 583.3125 -200 l 1
 416.6484375 -33.33203125 l 1
 583.3125 133.33203125 l 1
EndSplineSet
EndChar

StartChar: U121e5
Encoding: 354 74213 98
Width: 750
VWidth: 100
Flags: W
VStem: 550 100<658.6 800> 591.344 17.3965<-172.878 -35.1602 -31.4844 108.151>
LayerCount: 2
Fore
SplineSet
550 800 m 1x80
 650 800 l 1x80
 608.751953125 -33.208984375 l 1
 610 -33.33203125 l 1
 608.740234375 -33.455078125 l 1
 600 -210 l 1
 591.34375 -35.16015625 l 1x40
 100 -83.33203125 l 1
 100 16.66796875 l 1
 591.162109375 -31.484375 l 1
 558.5 628.283203125 l 1
 100 583.33203125 l 1
 100 683.33203125 l 1
 557.998046875 638.4296875 l 1
 550 800 l 1x80
433.33203125 466.66796875 m 1
 366.66796875 300 l 1
 433.33203125 133.33203125 l 1
 266.66796875 300 l 1
 433.33203125 466.66796875 l 1
EndSplineSet
EndChar

StartChar: U121e1
Encoding: 355 74209 99
Width: 1083
VWidth: 100
Flags: W
HStem: -34.4395 2.22266<806.576 924.531> 630.273 6.13672<773.669 891.43>
VStem: 883.332 100<658.599 800> 924.641 17.4336<-173.625 -34.4395 -32.2168 108.117>
LayerCount: 2
Fore
SplineSet
883.33203125 800 m 1xe0
 983.33203125 800 l 1xe0
 942.08203125 -33.2578125 l 1
 943.33203125 -33.33203125 l 1
 942.07421875 -33.40625 l 1
 933.33203125 -210 l 1
 924.640625 -34.439453125 l 1xd0
 100 -83.33203125 l 1
 100 16.66796875 l 1
 924.53125 -32.216796875 l 1
 891.734375 630.2734375 l 1
 100 583.33203125 l 1
 100 683.33203125 l 1
 891.4296875 636.41015625 l 1
 883.33203125 800 l 1xe0
316.66796875 533.33203125 m 1
 300 416.66796875 l 1
 316.66796875 300 l 1
 200 416.66796875 l 1
 316.66796875 533.33203125 l 1
316.66796875 300 m 1
 300 183.33203125 l 1
 316.66796875 66.66796875 l 1
 200 183.33203125 l 1
 316.66796875 300 l 1
433.33203125 533.33203125 m 1
 416.66796875 416.66796875 l 1
 433.33203125 300 l 1
 316.66796875 416.66796875 l 1
 433.33203125 533.33203125 l 1
433.33203125 300 m 1
 416.66796875 183.33203125 l 1
 433.33203125 66.66796875 l 1
 316.66796875 183.33203125 l 1
 433.33203125 300 l 1
616.66796875 533.33203125 m 1
 716.66796875 533.33203125 l 1
 666.66796875 416.66796875 l 1
 616.66796875 533.33203125 l 1
666.66796875 416.66796875 m 1
 716.66796875 416.66796875 l 1
 666.66796875 56.66796875 l 1
 616.66796875 416.66796875 l 1
 666.66796875 416.66796875 l 1
EndSplineSet
EndChar

StartChar: U121b9
Encoding: 356 74169 100
Width: 1083
VWidth: 100
Flags: W
HStem: -34.4395 2.22266<806.576 924.531> 630.273 6.13672<773.669 891.43>
VStem: 883.332 100<658.599 800> 924.641 17.4336<-173.625 -34.4395 -32.2168 108.117>
LayerCount: 2
Fore
SplineSet
883.33203125 800 m 1xe0
 983.33203125 800 l 1xe0
 942.08203125 -33.2578125 l 1
 943.33203125 -33.33203125 l 1
 942.07421875 -33.40625 l 1
 933.33203125 -210 l 1
 924.640625 -34.439453125 l 1xd0
 100 -83.33203125 l 1
 100 16.66796875 l 1
 924.53125 -32.216796875 l 1
 891.734375 630.2734375 l 1
 100 583.33203125 l 1
 100 683.33203125 l 1
 891.4296875 636.41015625 l 1
 883.33203125 800 l 1xe0
308.33203125 533.33203125 m 1
 408.33203125 533.33203125 l 1
 358.33203125 56.66796875 l 1
 308.33203125 533.33203125 l 1
625 533.33203125 m 1
 725 533.33203125 l 1
 675 416.66796875 l 1
 625 533.33203125 l 1
675 416.66796875 m 1
 725 416.66796875 l 1
 675 56.66796875 l 1
 625 416.66796875 l 1
 675 416.66796875 l 1
EndSplineSet
EndChar

StartChar: U12020
Encoding: 357 73760 101
Width: 1583
VWidth: 100
Flags: W
HStem: 0 21G<100 370.666> 48.3164 3.37891<659.148 753.713 1325.81 1420.38> 546.494 7.03711<634.486 728.869>
VStem: 716.668 100<658.599 800> 753.881 23.2207<-42.5112 0.771484 98.8711 192.137> 1383.33 100<658.601 800>
LayerCount: 2
Fore
SplineSet
716.66796875 800 m 1xf4
 816.66796875 800 l 1xf4
 781.958984375 98.87109375 l 1
 1420.37695312 51.6953125 l 1
 1383.33203125 800 l 1
 1483.33203125 800 l 1
 1433.33203125 -210 l 1
 1420.54492188 48.31640625 l 1
 777.1015625 0.771484375 l 1
 766.66796875 -210 l 1
 753.880859375 48.31640625 l 1xec
 100 0 l 1
 100 100 l 1
 753.712890625 51.6953125 l 1
 729.21875 546.494140625 l 1
 100 500 l 1
 100 600 l 1
 728.869140625 553.53125 l 1
 716.66796875 800 l 1xf4
1225 800 m 1
 1075 550 l 1
 1225 300 l 1
 975 550 l 1
 1225 800 l 1
EndSplineSet
EndChar

StartChar: U121af
Encoding: 358 74159 102
Width: 1083
VWidth: 100
Flags: W
HStem: 0 21G<100 304.004>
VStem: 550 100<658.606 800> 883.332 100<658.6 800>
LayerCount: 2
Fore
SplineSet
550 800 m 1
 650 800 l 1
 600 -210 l 1
 587.23828125 47.767578125 l 1
 100 0 l 1
 100 100 l 1
 587.017578125 52.25390625 l 1
 562.60546875 545.353515625 l 1
 100 500 l 1
 100 600 l 1
 562.14453125 554.69140625 l 1
 550 800 l 1
883.33203125 800 m 1
 983.33203125 800 l 1
 933.33203125 -210 l 1
 883.33203125 800 l 1
891.66796875 550 m 1
 741.66796875 300 l 1
 891.66796875 50 l 1
 641.66796875 300 l 1
 891.66796875 550 l 1
EndSplineSet
EndChar

StartChar: U12125
Encoding: 359 74021 103
Width: 1583
VWidth: 100
Flags: W
HStem: 0 100<100 241.398> 48.8711 2.26367<945.787 1087.07> 546.494 7.03711<967.818 1062.2>
VStem: 1050 100<658.6 800> 1383.33 100<658.6 800>
LayerCount: 2
Fore
SplineSet
1050 800 m 1x78
 1150 800 l 1
 1100 -210 l 1
 1087.18554688 48.87109375 l 1x78
 100 0 l 1
 100 100 l 1xb8
 1087.07226562 51.134765625 l 1
 1062.55078125 546.494140625 l 1
 433.33203125 500 l 1
 433.33203125 600 l 1
 1062.20117188 553.53125 l 1
 1050 800 l 1x78
1383.33203125 800 m 1
 1483.33203125 800 l 1
 1433.33203125 -210 l 1
 1383.33203125 800 l 1
EndSplineSet
EndChar

StartChar: U121ec
Encoding: 360 74220 104
Width: 1583
VWidth: 100
Flags: W
HStem: 0 100<100 241.398> 48.8711 2.26367<945.787 1087.07> 546.494 7.03711<967.818 1062.2>
VStem: 1050 100<658.6 800> 1383.33 100<658.6 800>
LayerCount: 2
Fore
SplineSet
1050 800 m 1x78
 1150 800 l 1
 1100 -210 l 1
 1087.18554688 48.87109375 l 1x78
 100 0 l 1
 100 100 l 1xb8
 1087.07226562 51.134765625 l 1
 1062.55078125 546.494140625 l 1
 433.33203125 500 l 1
 433.33203125 600 l 1
 1062.20117188 553.53125 l 1
 1050 800 l 1x78
1383.33203125 800 m 1
 1483.33203125 800 l 1
 1433.33203125 -210 l 1
 1383.33203125 800 l 1
EndSplineSet
EndChar

StartChar: U1208a
Encoding: 361 73866 105
Width: 1083
VWidth: 100
Flags: W
VStem: 550 100<658.6 800> 591.344 17.3965<-172.878 -35.1602 -31.4844 108.151>
LayerCount: 2
Fore
SplineSet
550 800 m 1x80
 650 800 l 1x80
 608.751953125 -33.208984375 l 1
 610 -33.33203125 l 1
 608.740234375 -33.455078125 l 1
 600 -210 l 1
 591.34375 -35.16015625 l 1x40
 100 -83.33203125 l 1
 100 16.66796875 l 1
 591.162109375 -31.484375 l 1
 574.921875 296.560546875 l 1
 100 250 l 1
 100 350 l 1
 574.580078125 303.47265625 l 1
 550 800 l 1x80
883.33203125 800 m 1
 983.33203125 800 l 1
 933.33203125 550 l 1
 883.33203125 800 l 1
933.33203125 550 m 1
 983.33203125 550 l 1
 933.33203125 -210 l 1
 883.33203125 550 l 1
 933.33203125 550 l 1
EndSplineSet
EndChar

StartChar: U1205f
Encoding: 362 73823 106
Width: 2200
VWidth: 100
Flags: W
VStem: 573.809 100<658.599 800> 615.148 17.4004<-172.957 -35.0801 -31.5684 108.146>
LayerCount: 2
Fore
SplineSet
1268.05078125 843.1875 m 1x00
 1822.921875 461.62890625 l 1
 1217.6640625 756.8125 l 1
 1268.05078125 843.1875 l 1x00
573.80859375 800 m 1x80
 673.80859375 800 l 1x80
 632.560546875 -33.21484375 l 1
 633.80859375 -33.33203125 l 1
 632.548828125 -33.44921875 l 1
 623.80859375 -210 l 1
 615.1484375 -35.080078125 l 1x40
 100 -83.33203125 l 1
 100 16.66796875 l 1
 614.974609375 -31.568359375 l 1
 598.724609375 296.712890625 l 1
 100 250 l 1
 100 350 l 1
 598.396484375 303.31640625 l 1
 573.80859375 800 l 1x80
907.14453125 800 m 1
 1007.14453125 800 l 1
 957.14453125 550 l 1
 907.14453125 800 l 1
957.14453125 550 m 1
 1007.14453125 550 l 1
 993.060546875 335.916015625 l 1
 1242.85546875 585.71484375 l 1
 1057.14453125 300 l 1
 1242.85546875 14.28515625 l 1
 988.626953125 268.517578125 l 1
 957.14453125 -210 l 1
 907.14453125 550 l 1
 957.14453125 550 l 1
2100 585.71484375 m 1
 1914.28515625 300 l 1
 2100 14.28515625 l 1
 1814.28515625 300 l 1
 2100 585.71484375 l 1
1309.5234375 400 m 1
 1698.73242188 351.115234375 l 1
 1747.6171875 400 l 1
 1797.6171875 350 l 1
 1747.6171875 300 l 1
 1698.73242188 348.884765625 l 1
 1309.5234375 300 l 1
 1309.5234375 400 l 1
1747.6171875 300 m 1
 1797.6171875 250 l 1
 1747.6171875 200 l 1
 1698.73242188 248.884765625 l 1
 1546.65429688 229.783203125 l 1
 1528.5703125 190 l 1
 1512.43945312 225.486328125 l 1
 1309.5234375 200 l 1
 1309.5234375 300 l 1
 1488.80664062 277.482421875 l 1
 1478.5703125 300 l 1
 1578.5703125 300 l 1
 1564.0390625 268.033203125 l 1
 1698.73242188 251.115234375 l 1
 1747.6171875 300 l 1
1822.921875 138.37109375 m 1
 1268.05078125 -243.1875 l 1
 1217.6640625 -156.8125 l 1
 1822.921875 138.37109375 l 1
EndSplineSet
EndChar

StartChar: U1205b
Encoding: 363 73819 107
Width: 2200
VWidth: 100
Flags: W
VStem: 573.809 100<658.599 800> 615.148 17.4004<-172.957 -35.0801 -31.5684 108.146> 1413.55 5.49219<190 213.066> 1419.05 5.83008<190 213.066> 1626.24 11.8516<210.378 219.398> 1638.09 12.584<213.451 219.402>
LayerCount: 2
Fore
SplineSet
1268.05078125 843.1875 m 1x00
 1822.921875 461.62890625 l 1
 1217.6640625 756.8125 l 1
 1268.05078125 843.1875 l 1x00
573.80859375 800 m 1x80
 673.80859375 800 l 1x80
 632.560546875 -33.21484375 l 1
 633.80859375 -33.33203125 l 1
 632.548828125 -33.44921875 l 1
 623.80859375 -210 l 1
 615.1484375 -35.080078125 l 1x40
 100 -83.33203125 l 1
 100 16.66796875 l 1
 614.974609375 -31.568359375 l 1
 598.724609375 296.712890625 l 1
 100 250 l 1
 100 350 l 1
 598.396484375 303.31640625 l 1
 573.80859375 800 l 1x80
907.14453125 800 m 1
 1007.14453125 800 l 1
 957.14453125 550 l 1
 907.14453125 800 l 1
957.14453125 550 m 1
 1007.14453125 550 l 1
 993.060546875 335.916015625 l 1
 1242.85546875 585.71484375 l 1
 1057.14453125 300 l 1
 1242.85546875 14.28515625 l 1
 988.626953125 268.517578125 l 1
 957.14453125 -210 l 1
 907.14453125 550 l 1
 957.14453125 550 l 1
2100 585.71484375 m 1
 1914.28515625 300 l 1
 2100 14.28515625 l 1
 1814.28515625 300 l 1
 2100 585.71484375 l 1
1309.5234375 400 m 1
 1370.88085938 392.29296875 l 1
 1369.046875 400 l 1
 1469.046875 400 l 1
 1464.4140625 380.544921875 l 1
 1596.68164062 363.931640625 l 1
 1588.09375 400 l 1
 1688.09375 400 l 1
 1677.1015625 353.83203125 l 1
 1698.73242188 351.115234375 l 1
 1747.6171875 400 l 1
 1797.6171875 350 l 1
 1747.6171875 300 l 1
 1698.73242188 348.884765625 l 1
 1675.22070312 345.931640625 l 1
 1653.98242188 256.736328125 l 1
 1698.73242188 251.115234375 l 1
 1747.6171875 300 l 1
 1797.6171875 250 l 1
 1747.6171875 200 l 1
 1698.73242188 248.884765625 l 1
 1650.67773438 242.849609375 l 1
 1638.09375 190 l 1x24
 1626.2421875 239.779296875 l 1
 1424.87695312 214.48828125 l 1x18
 1419.046875 190 l 1
 1413.5546875 213.06640625 l 1x20
 1309.5234375 200 l 1
 1309.5234375 300 l 1
 1395.42578125 289.2109375 l 1
 1390.4375 310.162109375 l 1
 1309.5234375 300 l 1
 1309.5234375 400 l 1
1603.12304688 336.875 m 1
 1449.421875 317.5703125 l 1
 1441.296875 283.44921875 l 1
 1621.22460938 260.849609375 l 1
 1603.12304688 336.875 l 1
1822.921875 138.37109375 m 1
 1268.05078125 -243.1875 l 1
 1217.6640625 -156.8125 l 1
 1822.921875 138.37109375 l 1
EndSplineSet
EndChar

StartChar: U1221c
Encoding: 364 74268 108
Width: 2208
VWidth: 100
Flags: W
VStem: 1299.27 0.734375<-210 -200.953> 1300 0.595703<-210 -200.953>
LayerCount: 2
Fore
SplineSet
1250 800 m 1x40
 1350 800 l 1
 1300 550 l 1
 1250 800 l 1x40
1300 550 m 1
 1350 550 l 1
 1304.58007812 -140.37109375 l 1
 2098.67578125 299.865234375 l 1
 1507.81640625 611.15234375 l 1
 1560.81640625 695.953125 l 1
 2100.24414062 300.734375 l 1
 2108.48046875 305.30078125 l 1
 2101.08203125 300.119140625 l 1
 2108.48046875 294.69921875 l 1
 2099.84179688 299.25 l 1
 1326.5 -242.3984375 l 1
 1300.59570312 -200.953125 l 1x40
 1300 -210 l 1
 1299.265625 -198.82421875 l 1x80
 1273.5 -157.6015625 l 1
 1295.7421875 -145.271484375 l 1
 1250 550 l 1
 1300 550 l 1
868.6875 668.6875 m 1
 1040.40625 426.26171875 l 1
 797.9765625 597.9765625 l 1
 868.6875 668.6875 l 1
735.35546875 535.35546875 m 1
 901.20703125 301.20703125 l 1
 935.35546875 335.35546875 l 1
 1107.0703125 92.9296875 l 1
 864.64453125 264.64453125 l 1
 898.79296875 298.79296875 l 1
 664.64453125 464.64453125 l 1
 735.35546875 535.35546875 l 1
602.0234375 402.0234375 m 1
 773.73828125 159.59375 l 1
 531.3125 331.3125 l 1
 602.0234375 402.0234375 l 1
100 350 m 1
 510 300 l 1
 100 250 l 1
 100 350 l 1
EndSplineSet
EndChar

StartChar: U12057
Encoding: 365 73815 109
Width: 2200
VWidth: 100
Flags: W
VStem: 383.375 100<658.597 800> 424.764 17.3477<-171.965 -36.043 -30.582 108.186>
LayerCount: 2
Fore
SplineSet
1122.359375 844.72265625 m 1x00
 1775.609375 462.1953125 l 1
 1077.640625 755.27734375 l 1
 1122.359375 844.72265625 l 1x00
383.375 800 m 1x80
 483.375 800 l 1x80
 442.130859375 -33.150390625 l 1
 443.375 -33.33203125 l 1
 442.111328125 -33.515625 l 1
 433.375 -210 l 1
 424.763671875 -36.04296875 l 1x40
 100 -83.33203125 l 1
 100 16.66796875 l 1
 424.4921875 -30.58203125 l 1
 408.37890625 294.904296875 l 1
 100 250 l 1
 100 350 l 1
 407.87109375 305.169921875 l 1
 383.375 800 l 1x80
716.66796875 800 m 1
 816.66796875 800 l 1
 766.66796875 550 l 1
 716.66796875 800 l 1
766.66796875 550 m 1
 816.66796875 550 l 1
 802.583984375 335.916015625 l 1
 1100 633.33203125 l 1
 866.66796875 300 l 1
 1100 -33.33203125 l 1
 798.150390625 268.517578125 l 1
 766.66796875 -210 l 1
 716.66796875 550 l 1
 766.66796875 550 l 1
2100 633.33203125 m 1
 1866.66796875 300 l 1
 2100 -33.33203125 l 1
 1766.66796875 300 l 1
 2100 633.33203125 l 1
1205.5546875 400 m 1
 1305.5546875 400 l 1
 1255.5546875 190 l 1
 1205.5546875 400 l 1
1383.33203125 400 m 1
 1483.33203125 400 l 1
 1433.33203125 350 l 1
 1383.33203125 400 l 1
1433.33203125 350 m 1
 1483.33203125 350 l 1
 1433.33203125 190 l 1
 1383.33203125 350 l 1
 1433.33203125 350 l 1
1561.109375 400 m 1
 1661.109375 400 l 1
 1641.63476562 318.203125 l 1
 1710 300 l 1
 1632.37890625 279.33203125 l 1
 1611.109375 190 l 1
 1592.37695312 268.6796875 l 1
 1522.22265625 250 l 1
 1522.22265625 350 l 1
 1576.453125 335.560546875 l 1
 1561.109375 400 l 1
1775.609375 137.8046875 m 1
 1122.359375 -244.72265625 l 1
 1077.640625 -155.27734375 l 1
 1775.609375 137.8046875 l 1
EndSplineSet
EndChar

StartChar: U12225
Encoding: 366 74277 110
Width: 1710
VWidth: 100
Flags: W
HStem: 0 21G<100 337.336> 48.0801 3.85547<587.489 670.365> 546.004 8.02539<562.841 645.508>
VStem: 633.332 100<658.6 800> 966.668 100<658.601 800>
LayerCount: 2
Fore
SplineSet
633.33203125 800 m 1
 733.33203125 800 l 1
 683.33203125 -210 l 1
 670.556640625 48.080078125 l 1
 100 0 l 1
 100 100 l 1
 670.365234375 51.935546875 l 1
 645.90625 546.00390625 l 1
 100 500 l 1
 100 600 l 1
 645.5078125 554.029296875 l 1
 633.33203125 800 l 1
966.66796875 800 m 1
 1066.66796875 800 l 1
 1044.27539062 347.673828125 l 1
 1610 300 l 1
 1039.53515625 251.927734375 l 1
 1016.66796875 -210 l 1
 966.66796875 800 l 1
EndSplineSet
EndChar

StartChar: U12295
Encoding: 367 74389 111
Width: 1583
VWidth: 100
Flags: W
HStem: 48.0801 3.85547<1337.49 1420.37> 546.004 8.02539<1312.84 1395.51>
VStem: 472.152 5.66211<4.69141 122.203> 800 100<658.611 800> 841.344 17.3965<-42.6867 -35.1602 -31.4844 0.878906 98.7129 109.296> 1383.33 100<658.6 800>
LayerCount: 2
Fore
SplineSet
425 800 m 1xec
 525 800 l 1
 477.814453125 4.13671875 l 1
 841.162109375 -31.484375 l 1
 800 800 l 1
 900 800 l 1xf4
 889.931640625 596.634765625 l 1
 1395.5078125 554.029296875 l 1
 1383.33203125 800 l 1
 1483.33203125 800 l 1
 1433.33203125 -210 l 1
 1420.55664062 48.080078125 l 1
 860.439453125 0.87890625 l 1
 858.751953125 -33.208984375 l 1
 860 -33.33203125 l 1
 858.740234375 -33.455078125 l 1
 850 -210 l 1
 841.34375 -35.16015625 l 1
 350 -83.33203125 l 1
 350 16.66796875 l 1
 472.15234375 4.69140625 l 1
 449.97265625 378.783203125 l 1
 100 333.33203125 l 1
 100 433.33203125 l 1
 449.4296875 387.951171875 l 1
 425 800 l 1xec
1395.90625 546.00390625 m 1
 885.294921875 502.974609375 l 1
 865.283203125 98.712890625 l 1
 1420.36523438 51.935546875 l 1
 1395.90625 546.00390625 l 1
EndSplineSet
EndChar

StartChar: U12127
Encoding: 368 74023 112
Width: 1200
VWidth: 100
Flags: W
LayerCount: 2
Fore
SplineSet
383.375 800 m 1
 483.375 800 l 1
 439.177734375 496.5390625 l 1
 763.623046875 477.3046875 l 1
 716.625 800 l 1
 816.625 800 l 1
 769.57421875 476.951171875 l 1
 933.908203125 467.208984375 l 1
 1100 633.30078125 l 1
 1033.3515625 466.6484375 l 1
 1100 300 l 1
 933.908203125 466.087890625 l 1
 100 416.6484375 l 1
 100 516.6484375 l 1
 427.470703125 497.234375 l 1
 383.375 800 l 1
1100 300 m 1
 1033.3515625 133.3515625 l 1
 1100 -33.30078125 l 1
 933.908203125 132.791015625 l 1
 805.064453125 125.15234375 l 1
 741.67578125 -33.34765625 l 1
 808.32421875 -200 l 1
 641.67578125 -33.34765625 l 1
 799.8671875 124.84375 l 1
 548.994140625 109.970703125 l 1
 491.67578125 -33.34765625 l 1
 558.32421875 -200 l 1
 391.67578125 -33.34765625 l 1
 534.111328125 109.087890625 l 1
 100 83.3515625 l 1
 100 183.3515625 l 1
 933.908203125 133.912109375 l 1
 1100 300 l 1
EndSplineSet
EndChar

StartChar: U121a4
Encoding: 369 74148 113
Width: 1583
VWidth: 100
Flags: W
HStem: -34.7129 2.77148<663.255 757.854> 297.404 5.20898<646.814 741.291>
VStem: 716.668 100<658.602 800> 757.99 17.4199<-173.349 -34.7129 -31.9414 108.131> 1383.33 100<658.6 800>
LayerCount: 2
Fore
SplineSet
716.66796875 800 m 1xe8
 816.66796875 800 l 1xe8
 775.41796875 -33.240234375 l 1
 776.66796875 -33.33203125 l 1
 775.41015625 -33.42578125 l 1
 766.66796875 -210 l 1
 757.990234375 -34.712890625 l 1xd8
 100 -83.33203125 l 1
 100 16.66796875 l 1
 757.853515625 -31.94140625 l 1
 741.548828125 297.404296875 l 1
 100 250 l 1
 100 350 l 1
 741.291015625 302.61328125 l 1
 716.66796875 800 l 1xe8
1383.33203125 800 m 1
 1483.33203125 800 l 1
 1433.33203125 -210 l 1
 1383.33203125 800 l 1
1050 466.66796875 m 1
 1150 466.66796875 l 1
 1100 -210 l 1
 1050 466.66796875 l 1
EndSplineSet
EndChar

StartChar: U12311
Encoding: 370 74513 114
Width: 1583
VWidth: 100
Flags: W
HStem: 0 21G<100 370.666> 48.3164 3.37891<659.148 753.713> 546.494 7.03711<634.486 728.869>
VStem: 716.668 100<658.6 800> 1050 100<658.6 800> 1383.33 100<658.6 800>
CounterMasks: 1 1c
LayerCount: 2
Fore
SplineSet
716.66796875 800 m 1
 816.66796875 800 l 1
 766.66796875 -210 l 1
 753.880859375 48.31640625 l 1
 100 0 l 1
 100 100 l 1
 753.712890625 51.6953125 l 1
 729.21875 546.494140625 l 1
 100 500 l 1
 100 600 l 1
 728.869140625 553.53125 l 1
 716.66796875 800 l 1
1050 800 m 1
 1150 800 l 1
 1100 -210 l 1
 1050 800 l 1
1383.33203125 800 m 1
 1483.33203125 800 l 1
 1433.33203125 -210 l 1
 1383.33203125 800 l 1
EndSplineSet
EndChar

StartChar: U12197
Encoding: 371 74135 115
Width: 1583
VWidth: 100
Flags: W
HStem: 0 21G<100 370.666> 48.3164 3.37891<659.148 753.713> 546.494 7.03711<634.486 728.869>
VStem: 716.668 100<658.6 800> 1050 100<658.6 800>
LayerCount: 2
Fore
SplineSet
716.66796875 800 m 1
 816.66796875 800 l 1
 766.66796875 -210 l 1
 753.880859375 48.31640625 l 1
 100 0 l 1
 100 100 l 1
 753.712890625 51.6953125 l 1
 729.21875 546.494140625 l 1
 100 500 l 1
 100 600 l 1
 728.869140625 553.53125 l 1
 716.66796875 800 l 1
1050 800 m 1
 1150 800 l 1
 1100 -210 l 1
 1050 800 l 1
1383.33203125 800 m 1
 1483.33203125 800 l 1
 1433.33203125 550 l 1
 1383.33203125 800 l 1
1433.33203125 550 m 1
 1483.33203125 550 l 1
 1433.33203125 -210 l 1
 1383.33203125 550 l 1
 1433.33203125 550 l 1
EndSplineSet
EndChar

StartChar: U12326
Encoding: 372 74534 116
Width: 1583
VWidth: 100
Flags: W
HStem: 0 21G<100 370.666> 48.3164 3.37891<659.148 753.713> 546.494 7.03711<634.486 728.869>
VStem: 716.668 100<658.6 800>
LayerCount: 2
Fore
SplineSet
716.66796875 800 m 1
 816.66796875 800 l 1
 766.66796875 -210 l 1
 753.880859375 48.31640625 l 1
 100 0 l 1
 100 100 l 1
 753.712890625 51.6953125 l 1
 729.21875 546.494140625 l 1
 100 500 l 1
 100 600 l 1
 728.869140625 553.53125 l 1
 716.66796875 800 l 1
1050 800 m 1
 1150 800 l 1
 1100.98046875 300 l 1
 1150 300 l 1
 1100 -210 l 1
 1050 300 l 1
 1099.01953125 300 l 1
 1050 800 l 1
1383.33203125 800 m 1
 1483.33203125 800 l 1
 1434.3125 300 l 1
 1483.33203125 300 l 1
 1433.33203125 -210 l 1
 1383.33203125 300 l 1
 1432.3515625 300 l 1
 1383.33203125 800 l 1
EndSplineSet
EndChar

StartChar: U1221b
Encoding: 373 74267 117
Width: 2083
VWidth: 100
Flags: W
HStem: 628.777 9.15039<812.632 891.355>
VStem: 587.15 12.8887<-130.306 -115.266> 883.332 100<658.601 800> 1883.33 100<658.6 800>
LayerCount: 2
Fore
SplineSet
883.33203125 800 m 1
 983.33203125 800 l 1
 933.33203125 -210 l 1
 891.80859375 628.77734375 l 1
 377.77734375 583.33203125 l 1
 377.77734375 683.33203125 l 1
 891.35546875 637.927734375 l 1
 883.33203125 800 l 1
1883.33203125 800 m 1
 1983.33203125 800 l 1
 1933.33203125 -210 l 1
 1883.33203125 800 l 1
550.0390625 466.66796875 m 1
 650.0390625 466.66796875 l 1
 600.0390625 -210 l 1
 587.150390625 -35.572265625 l 1
 100 -83.33203125 l 1
 100 16.66796875 l 1
 586.81640625 -31.05859375 l 1
 562.697265625 295.36328125 l 1
 100 250 l 1
 100 350 l 1
 562.005859375 304.705078125 l 1
 550.0390625 466.66796875 l 1
1216.66796875 466.66796875 m 1
 1316.66796875 466.66796875 l 1
 1266.66796875 -210 l 1
 1216.66796875 466.66796875 l 1
1550 466.66796875 m 1
 1650 466.66796875 l 1
 1600 -210 l 1
 1550 466.66796875 l 1
EndSplineSet
EndChar

StartChar: U1208d
Encoding: 374 73869 118
Width: 1631
VWidth: 100
Flags: W
HStem: 0 21G<100 275.429>
VStem: 478.582 100<658.6 800> 1430.95 100<658.6 800>
LayerCount: 2
Fore
SplineSet
478.58203125 800 m 1
 578.58203125 800 l 1
 528.58203125 -210 l 1
 515.83984375 47.408203125 l 1
 100 0 l 1
 100 100 l 1
 515.580078125 52.62109375 l 1
 491.224609375 544.6015625 l 1
 100 500 l 1
 100 600 l 1
 490.6875 555.458984375 l 1
 478.58203125 800 l 1
1430.953125 800 m 1
 1530.953125 800 l 1
 1480.953125 -210 l 1
 1430.953125 800 l 1
716.67578125 466.66796875 m 1
 816.67578125 466.66796875 l 1
 766.67578125 -210 l 1
 716.67578125 466.66796875 l 1
954.76953125 466.66796875 m 1
 1054.76953125 466.66796875 l 1
 1004.76953125 -210 l 1
 954.76953125 466.66796875 l 1
1192.859375 466.66796875 m 1
 1292.859375 466.66796875 l 1
 1242.859375 -210 l 1
 1192.859375 466.66796875 l 1
EndSplineSet
EndChar

StartChar: U12400
Encoding: 375 74752 119
Width: 1210
VWidth: 100
Flags: W
HStem: 250 100
LayerCount: 2
Fore
SplineSet
100 350 m 1
 350 300 l 1
 100 250 l 1
 100 350 l 1
350 300 m 1
 350 350 l 1
 1110 300 l 1
 350 250 l 1
 350 300 l 1
EndSplineSet
EndChar

StartChar: U1212c
Encoding: 376 74028 120
Width: 1210
VWidth: 100
Flags: W
HStem: 250 100
LayerCount: 2
Fore
SplineSet
100 350 m 1
 350 300 l 1
 100 250 l 1
 100 350 l 1
350 300 m 1
 350 350 l 1
 1110 300 l 1
 350 250 l 1
 350 300 l 1
EndSplineSet
EndChar

StartChar: U12226
Encoding: 377 74278 121
Width: 1210
VWidth: 100
Flags: W
HStem: 250 100<100 241.4> 275.943 47.9961<447.611 573.438 626.434 714.846>
VStem: 550 100<658.6 800> 576.061 47.9961<185.154 273.566 326.562 452.389>
LayerCount: 2
Fore
SplineSet
550 800 m 1xa0
 650 800 l 1xa0
 626.43359375 323.939453125 l 1
 1110 300 l 1
 624.056640625 275.943359375 l 1
 600 -210 l 1
 576.060546875 273.56640625 l 1x50
 100 250 l 1
 100 350 l 1
 573.4375 326.5625 l 1
 550 800 l 1xa0
EndSplineSet
EndChar

StartChar: U12047
Encoding: 378 73799 122
Width: 1210
VWidth: 100
Flags: W
HStem: 250 100<100 241.4> 275.943 47.9961<447.611 573.438 626.434 714.846>
VStem: 550 100<658.6 800> 576.061 47.9961<185.154 273.566 326.562 452.389>
LayerCount: 2
Fore
SplineSet
550 800 m 1xa0
 650 800 l 1xa0
 626.43359375 323.939453125 l 1
 1110 300 l 1
 624.056640625 275.943359375 l 1
 600 -210 l 1
 576.060546875 273.56640625 l 1x50
 100 250 l 1
 100 350 l 1
 573.4375 326.5625 l 1
 550 800 l 1xa0
EndSplineSet
EndChar

StartChar: U1244f
Encoding: 379 74831 123
Width: 1210
VWidth: 100
Flags: W
HStem: 250 100<100 241.4> 275.943 47.9961<447.611 573.438 626.434 714.846>
VStem: 550 100<658.6 800> 576.061 47.9961<185.154 273.566 326.562 452.389>
LayerCount: 2
Fore
SplineSet
550 800 m 1xa0
 650 800 l 1xa0
 626.43359375 323.939453125 l 1
 1110 300 l 1
 624.056640625 275.943359375 l 1
 600 -210 l 1
 576.060546875 273.56640625 l 1x50
 100 250 l 1
 100 350 l 1
 573.4375 326.5625 l 1
 550 800 l 1xa0
EndSplineSet
EndChar

StartChar: U12293
Encoding: 380 74387 124
Width: 1710
VWidth: 100
Flags: W
HStem: -83.332 100<100 255.701 277.598 405.92> -39.0469 11.4668<1260.54 1436.28 1471.94 1610>
VStem: 216.668 100<658.601 800> 260.135 13.0879<-129.871 -78.0293 11.5117 137.947>
LayerCount: 2
Fore
SplineSet
216.66796875 800 m 1xa0
 316.66796875 800 l 1xa0
 277.59765625 10.787109375 l 1
 558.43359375 1.48828125 l 1
 529.16796875 300 l 1
 629.16796875 300 l 1
 599.767578125 0.119140625 l 1
 851.046875 -8.201171875 l 1
 820.83203125 300 l 1
 920.83203125 300 l 1
 890.48828125 -9.5078125 l 1
 1143.66601562 -17.890625 l 1
 1112.5 300 l 1
 1212.5 300 l 1
 1181.21289062 -19.1328125 l 1
 1436.28320312 -27.580078125 l 1
 1404.16796875 300 l 1
 1504.16796875 300 l 1
 1471.9375 -28.759765625 l 1
 1610 -33.33203125 l 1
 1471.03710938 -37.93359375 l 1
 1454.16796875 -210 l 1
 1437.40820312 -39.046875 l 1
 1178.41992188 -47.623046875 l 1
 1162.5 -210 l 1
 1146.68359375 -48.673828125 l 1
 885.80078125 -57.3125 l 1
 870.83203125 -210 l 1
 855.958984375 -58.30078125 l 1
 593.1875 -67.001953125 l 1
 579.16796875 -210 l 1
 565.23828125 -67.927734375 l 1
 273.22265625 -77.595703125 l 1
 266.66796875 -210 l 1
 260.134765625 -78.029296875 l 1x50
 100 -83.33203125 l 1
 100 16.66796875 l 1
 255.701171875 11.51171875 l 1
 216.66796875 800 l 1xa0
794.73828125 699.51171875 m 1
 1609.19140625 296.0625 l 1
 755.34765625 607.59765625 l 1
 794.73828125 699.51171875 l 1
EndSplineSet
EndChar

StartChar: U12118
Encoding: 381 74008 125
Width: 1700
VWidth: 100
Flags: W
HStem: -83.332 100<100 241.398> -34.3984 2.14062<947.049 1088.31> 250 100<100 241.398> 297.852 4.3125<925.19 1066.3>
VStem: 1088.45 11.5527<-140.798 -103.603>
LayerCount: 2
Fore
SplineSet
1050 800 m 1x08
 1150 800 l 1
 1100 550 l 1
 1050 800 l 1x08
1100 550 m 1
 1150 550 l 1
 1135.91601562 335.916015625 l 1
 1350 550 l 1
 1200 300 l 1
 1350 50 l 1
 1131.48242188 268.517578125 l 1
 1100 -210 l 1
 1088.44726562 -34.3984375 l 1x58
 100 -83.33203125 l 1
 100 16.66796875 l 1x88
 1088.30664062 -32.2578125 l 1
 1066.58789062 297.8515625 l 1x58
 100 250 l 1
 100 350 l 1x28
 1066.3046875 302.1640625 l 1x18
 1050 550 l 1
 1100 550 l 1
1350 550 m 1
 1600 800 l 1
 1450 550 l 1
 1600 300 l 1
 1350 550 l 1
1600 300 m 1
 1450 50 l 1
 1600 -200 l 1
 1350 50 l 1
 1600 300 l 1
EndSplineSet
EndChar

StartChar: U12119
Encoding: 382 74009 126
Width: 1708
VWidth: 100
Flags: W
HStem: 0 21G<100 337.333> 47.7285 4.56836<583.31 666.076>
LayerCount: 2
Fore
SplineSet
1049.20703125 837.9609375 m 1
 1600.0546875 300.841796875 l 1
 1607.59375 306.5078125 l 1
 1600.91992188 300 l 1
 1607.59375 293.4921875 l 1
 1600.0546875 299.158203125 l 1
 1332.69140625 38.45703125 l 1
 1308.33203125 -210 l 1
 1288.22460938 -4.900390625 l 1
 1049.20703125 -237.9609375 l 1
 1016.66796875 -200 l 1
 850 -33.33203125 l 1
 1016.66796875 133.33203125 l 1
 950 -33.33203125 l 1
 997.47265625 -152.01171875 l 1
 1281.70507812 61.595703125 l 1
 1258.33203125 300 l 1
 1358.33203125 300 l 1
 1339.1953125 104.80078125 l 1
 1598.93359375 300 l 1
 997.47265625 752.01171875 l 1
 950 633.33203125 l 1
 1016.66796875 466.66796875 l 1
 850 633.33203125 l 1
 1016.66796875 800 l 1
 1049.20703125 837.9609375 l 1
1016.66796875 133.33203125 m 1
 850 300 l 1
 1016.66796875 466.66796875 l 1
 950 300 l 1
 1016.66796875 133.33203125 l 1
633.33203125 800 m 1
 733.33203125 800 l 1
 683.498046875 550.828125 l 1
 693.33203125 550 l 1
 733.33203125 550 l 1
 683.33203125 -210 l 1
 666.376953125 47.728515625 l 1
 100 0 l 1
 100 100 l 1
 666.076171875 52.296875 l 1
 633.662109375 544.97265625 l 1
 100 500 l 1
 100 600 l 1
 683.16015625 550.857421875 l 1
 633.33203125 800 l 1
EndSplineSet
EndChar

StartChar: U1235c
Encoding: 383 74588 127
Width: 1613
VWidth: 100
Flags: W
HStem: 0 21G<100 403.999> 48.2246 3.56641<726.612 832.777>
LayerCount: 2
Fore
SplineSet
800 800 m 1
 900 800 l 1
 850.12890625 550.6484375 l 1
 860 550 l 1
 900 550 l 1
 885.916015625 335.916015625 l 1
 947.85546875 397.85546875 l 1
 1101.28515625 176.28515625 l 1
 1166.60546875 241.60546875 l 1
 1325.8203125 11.6796875 l 1
 1095.89453125 170.89453125 l 1
 1098.71484375 173.71484375 l 1
 884.98046875 321.71875 l 1
 850 -210 l 1
 833.01171875 48.224609375 l 1
 100 0 l 1
 100 100 l 1
 832.77734375 51.791015625 l 1
 800.2578125 546.0703125 l 1
 100 500 l 1
 100 600 l 1
 849.8671875 550.666015625 l 1
 800 800 l 1
1197.85546875 647.85546875 m 1
 1351.28515625 426.28515625 l 1
 1354.10546875 429.10546875 l 1
 1513.3203125 199.1796875 l 1
 1283.39453125 358.39453125 l 1
 1348.71484375 423.71484375 l 1
 1127.14453125 577.14453125 l 1
 1197.85546875 647.85546875 l 1
1072.85546875 522.85546875 m 1
 1232.0703125 292.9296875 l 1
 1002.14453125 452.14453125 l 1
 1072.85546875 522.85546875 l 1
EndSplineSet
EndChar

StartChar: U1211f
Encoding: 384 74015 128
Width: 1613
VWidth: 100
Flags: W
HStem: 0 21G<100 403.999> 48.2246 3.56641<726.612 832.777>
LayerCount: 2
Fore
SplineSet
800 800 m 1
 900 800 l 1
 850.12890625 550.6484375 l 1
 860 550 l 1
 900 550 l 1
 885.916015625 335.916015625 l 1
 947.85546875 397.85546875 l 1
 1101.28515625 176.28515625 l 1
 1166.60546875 241.60546875 l 1
 1325.8203125 11.6796875 l 1
 1095.89453125 170.89453125 l 1
 1098.71484375 173.71484375 l 1
 884.98046875 321.71875 l 1
 850 -210 l 1
 833.01171875 48.224609375 l 1
 100 0 l 1
 100 100 l 1
 832.77734375 51.791015625 l 1
 800.2578125 546.0703125 l 1
 100 500 l 1
 100 600 l 1
 849.8671875 550.666015625 l 1
 800 800 l 1
1197.85546875 647.85546875 m 1
 1351.28515625 426.28515625 l 1
 1354.10546875 429.10546875 l 1
 1513.3203125 199.1796875 l 1
 1283.39453125 358.39453125 l 1
 1348.71484375 423.71484375 l 1
 1127.14453125 577.14453125 l 1
 1197.85546875 647.85546875 l 1
1072.85546875 522.85546875 m 1
 1232.0703125 292.9296875 l 1
 1002.14453125 452.14453125 l 1
 1072.85546875 522.85546875 l 1
EndSplineSet
EndChar

StartChar: U1226a
Encoding: 385 74346 129
Width: 2083
VWidth: 100
Flags: W
HStem: 0 21G<100 437.331> 47.9082 4.20898<789.981 907.635> 547.908 4.20898<789.981 907.635>
LayerCount: 2
Fore
SplineSet
883.33203125 800 m 1
 983.33203125 800 l 1
 934.3125 300 l 1
 983.33203125 300 l 1
 933.33203125 -210 l 1
 908.046875 47.908203125 l 1
 100 0 l 1
 100 100 l 1
 907.634765625 52.1171875 l 1
 883.33203125 300 l 1
 932.3515625 300 l 1
 908.046875 547.908203125 l 1
 100 500 l 1
 100 600 l 1
 907.634765625 552.1171875 l 1
 883.33203125 800 l 1
1216.66796875 800 m 1
 1316.66796875 800 l 1
 1267.6484375 300 l 1
 1316.66796875 300 l 1
 1266.66796875 -210 l 1
 1216.66796875 300 l 1
 1265.6875 300 l 1
 1216.66796875 800 l 1
1550 800 m 1
 1650 800 l 1
 1600.98046875 300 l 1
 1650 300 l 1
 1600 -210 l 1
 1550 300 l 1
 1599.01953125 300 l 1
 1550 800 l 1
1883.33203125 800 m 1
 1983.33203125 800 l 1
 1933.33203125 550 l 1
 1883.33203125 800 l 1
1933.33203125 550 m 1
 1983.33203125 550 l 1
 1933.33203125 -210 l 1
 1883.33203125 550 l 1
 1933.33203125 550 l 1
EndSplineSet
EndChar

StartChar: U12040
Encoding: 386 73792 130
Width: 1109
VWidth: 100
Flags: W
HStem: 296.896 6.23438<854.786 933.656> 630.273 6.13672<799.396 917.156>
VStem: 909.059 100<658.602 800> 958.58 0.933594<-210 -200.816 -199.02 -67.6619>
LayerCount: 2
Fore
SplineSet
909.05859375 800 m 1xe0
 1009.05859375 800 l 1xe0
 959.56640625 -199.7265625 l 1
 967.63671875 -205.14453125 l 1
 959.513671875 -200.81640625 l 1
 959.05859375 -210 l 1
 958.580078125 -200.318359375 l 1xd0
 100 257.125 l 1
 151.453125 342.875 l 1
 958.515625 -199.01953125 l 1
 933.96484375 296.896484375 l 1
 403.50390625 250 l 1
 403.50390625 350 l 1
 933.65625 303.130859375 l 1
 917.4609375 630.2734375 l 1
 125.7265625 583.33203125 l 1
 125.7265625 683.33203125 l 1
 917.15625 636.41015625 l 1
 909.05859375 800 l 1xe0
EndSplineSet
EndChar

StartChar: U121aa
Encoding: 387 74154 131
Width: 1083
VWidth: 100
Flags: W
HStem: -34.4395 2.22266<806.576 924.531> 296.896 6.23438<829.059 907.93> 630.273 6.13672<773.669 891.43>
VStem: 883.332 100<658.599 800> 924.641 17.4336<-173.625 -34.4395 -32.2168 108.117>
LayerCount: 2
Fore
SplineSet
883.33203125 800 m 1xf0
 983.33203125 800 l 1xf0
 942.08203125 -33.2578125 l 1
 943.33203125 -33.33203125 l 1
 942.07421875 -33.40625 l 1
 933.33203125 -210 l 1
 924.640625 -34.439453125 l 1xe8
 100 -83.33203125 l 1
 100 16.66796875 l 1
 924.53125 -32.216796875 l 1
 908.23828125 296.896484375 l 1
 377.77734375 250 l 1
 377.77734375 350 l 1
 907.9296875 303.130859375 l 1
 891.734375 630.2734375 l 1
 100 583.33203125 l 1
 100 683.33203125 l 1
 891.4296875 636.41015625 l 1
 883.33203125 800 l 1xf0
EndSplineSet
EndChar

StartChar: LIG_MUD4__KU_U_GAG_DMS
Encoding: 388 -1 132
Width: 2208
VWidth: 100
Flags: W
HStem: -34.5605 2.4668<734.916 841.193> 629.939 6.80859<702.02 808.082>
VStem: 800 100<658.604 800> 824.922 49.1348<185.162 275.943 326.562 441.941> 841.314 17.4277<-173.508 -34.5605 -32.0938 108.078>
LayerCount: 2
Fore
SplineSet
1377.734375 841.6015625 m 1xc0
 2100.03515625 300.658203125 l 1
 2108.3203125 305.546875 l 1
 2100.9140625 300 l 1
 2108.3203125 294.453125 l 1
 2100.03515625 299.341796875 l 1
 1749.17382812 36.576171875 l 1
 1725 -210 l 1
 1704.1328125 2.84375 l 1
 1377.734375 -241.6015625 l 1
 1350 -200 l 1
 1322.265625 -158.3984375 l 1
 1698.1875 63.478515625 l 1
 1675 300 l 1
 1775 300 l 1
 1755.10546875 97.072265625 l 1
 2098.921875 300 l 1
 1322.265625 758.3984375 l 1
 1350 800 l 1
 1377.734375 841.6015625 l 1xc0
1350 -200 m 1
 874.056640625 275.943359375 l 1xd0
 858.75 -33.25 l 1
 860 -33.33203125 l 1
 858.7421875 -33.4140625 l 1
 850 -210 l 1
 841.314453125 -34.560546875 l 1xc8
 100 -83.33203125 l 1
 100 16.66796875 l 1
 841.193359375 -32.09375 l 1
 824.921875 296.560546875 l 1xd0
 350 250 l 1
 350 350 l 1
 824.580078125 303.47265625 l 1
 808.41796875 629.939453125 l 1
 100 583.33203125 l 1
 100 683.33203125 l 1
 808.08203125 636.748046875 l 1
 800 800 l 1
 900 800 l 1xe0
 876.5625 326.5625 l 1
 1350 800 l 1
 950 300 l 1
 1350 -200 l 1
EndSplineSet
Ligature2: "ligsubtable" U121b8 U1230b U12195
EndChar

StartChar: U12220
Encoding: 389 74272 133
Width: 1583
VWidth: 100
Flags: W
HStem: -83.332 100<100 288.067> -34.0293 1.39648<1254.01 1424.55> 250 100<100 288.063> 298.691 2.62305<1220.09 1408.02> 583.332 100<100 288.064> 631.41 3.85156<1203.61 1391.49>
VStem: 1383.33 100<658.615 800> 1424.62 17.4551<-174.017 -34.0293 -32.6328 108.101>
LayerCount: 2
Fore
SplineSet
1383.33203125 800 m 1x06
 1483.33203125 800 l 1x06
 1442.08007812 -33.28515625 l 1
 1443.33203125 -33.33203125 l 1
 1442.07617188 -33.37890625 l 1
 1433.33203125 -210 l 1
 1424.62109375 -34.029296875 l 1x45
 100 -83.33203125 l 1
 100 16.66796875 l 1x81
 1424.55078125 -32.6328125 l 1
 1408.1484375 298.69140625 l 1x51
 100 250 l 1
 100 350 l 1x21
 1408.01953125 301.314453125 l 1
 1391.67773438 631.41015625 l 1x15
 100 583.33203125 l 1
 100 683.33203125 l 1x09
 1391.48828125 635.26171875 l 1
 1383.33203125 800 l 1x06
EndSplineSet
EndChar

StartChar: U1236a
Encoding: 390 74602 134
Width: 1583
VWidth: 100
Flags: W
HStem: 0 100<100 241.398> 48.8711 2.26367<945.787 1087.07> 546.877 6.26562<956.131 1062.22>
VStem: 1050 100<658.6 800> 1383.33 100<658.6 800>
LayerCount: 2
Fore
SplineSet
1050 800 m 1x78
 1150 800 l 1
 1100 -210 l 1
 1087.18554688 48.87109375 l 1x78
 100 0 l 1
 100 100 l 1xb8
 1087.07226562 51.134765625 l 1
 1062.53125 546.876953125 l 1
 350 500 l 1
 350 550 l 1
 350 600 l 1
 1062.22070312 553.142578125 l 1
 1050 800 l 1x78
350 550 m 1
 100 500 l 1
 100 600 l 1
 350 550 l 1
1383.33203125 800 m 1
 1483.33203125 800 l 1
 1433.33203125 -210 l 1
 1383.33203125 800 l 1
EndSplineSet
EndChar

StartChar: Ue00c
Encoding: 391 57356 135
Width: 1583
VWidth: 100
Flags: W
HStem: -83.332 100<100 241.398> -34.2578 1.85547<967.326 1091.21> 297.404 5.20898<980.146 1074.62> 583.332 100<100 241.397> 630.777 5.12305<916.98 1058.12>
VStem: 1050 100<658.603 800> 1091.3 17.4414<-173.778 -34.2578 -32.4023 108.107> 1383.33 100<658.6 800>
LayerCount: 2
Fore
SplineSet
1050 800 m 1x2d
 1150 800 l 1x2d
 1108.74804688 -33.26953125 l 1
 1110 -33.33203125 l 1
 1108.7421875 -33.39453125 l 1
 1100 -210 l 1
 1091.30078125 -34.2578125 l 1x6b
 100 -83.33203125 l 1
 100 16.66796875 l 1xa3
 1091.20703125 -32.40234375 l 1
 1074.88085938 297.404296875 l 1
 433.33203125 250 l 1
 433.33203125 350 l 1
 1074.62304688 302.61328125 l 1
 1058.37695312 630.77734375 l 1x6b
 100 583.33203125 l 1
 100 683.33203125 l 1x33
 1058.12304688 635.900390625 l 1
 1050 800 l 1x2d
1383.33203125 800 m 1
 1483.33203125 800 l 1
 1433.33203125 -210 l 1
 1383.33203125 800 l 1
EndSplineSet
EndChar

StartChar: U122e1
Encoding: 392 74465 136
Width: 750
VWidth: 100
Flags: W
VStem: 550 100<658.603 800>
LayerCount: 2
Fore
SplineSet
550 800 m 1
 650 800 l 1
 600 -210 l 1
 574.921875 296.5625 l 1
 100 250 l 1
 100 350 l 1
 574.580078125 303.47265625 l 1
 573.748046875 320.302734375 l 1
 211.08984375 618.19921875 l 1
 281.80078125 688.91015625 l 1
 573.052734375 334.34375 l 1
 550 800 l 1
EndSplineSet
EndChar

StartChar: U121fb
Encoding: 393 74235 137
Width: 1210
VWidth: 100
Flags: W
HStem: -83.332 100<100 241.384> -58.9492 51.3613<468.575 589.979 609.971 742.541> -42.4883 18.3574<801.079 924.131 942.488 1069.93> 250 100<100 239.285> 275.943 47.9961<454.977 573.438 626.434 714.839> 292.486 14.9922<788.186 907.588 958.949 1049.01> 583.332 100<100 222.744> 606.084 54.6289<501.469 556.895 642.895 747.557> 622.545 21.627<834.039 891.047 975.41 1062.32>
VStem: 222.744 87.6328<677.256 800> 227.082 79.3652<452.141 589.623> 243.543 46.3633<201.715 257.105 343.105 447.532> 260.004 13.3594<-132.449 -75.4102 8.95312 114.31> 550 100<660.713 800> 576.061 47.9961<185.148 273.566 326.562 445.023> 592.521 14.9922<-148.972 -58.9492 -7.58789 111.814> 883.332 100<658.614 800> 908.578 49.6289<168.634 290.029 310.02 442.527> 925.039 16.627<-165.538 -42.4883 -24.1309 109.335>
LayerCount: 2
Fore
SplineSet
216.66796875 800 m 1x9240
 316.66796875 800 l 1
 310.376953125 672.91796875 l 1
 556.89453125 660.712890625 l 1x0140
 550 800 l 1
 650 800 l 1
 642.89453125 656.45703125 l 1
 891.046875 644.171875 l 1
 883.33203125 800 l 1
 983.33203125 800 l 1x00c480
 975.41015625 639.994140625 l 1
 1110 633.33203125 l 1
 974.75 626.63671875 l 1
 958.94921875 307.478515625 l 1
 1110 300 l 1
 958.20703125 292.486328125 l 1x048040
 942.48828125 -25.0390625 l 1
 1110 -33.33203125 l 1
 941.666015625 -41.666015625 l 1
 933.33203125 -210 l 1
 925.0390625 -42.48828125 l 1x248020
 607.513671875 -58.20703125 l 1
 600 -210 l 1
 592.521484375 -58.94921875 l 1
 273.36328125 -74.75 l 1
 266.66796875 -210 l 1
 260.00390625 -75.41015625 l 1x400920
 100 -83.33203125 l 1
 100 16.66796875 l 1
 255.828125 8.953125 l 1
 243.54296875 257.10546875 l 1x8010
 100 250 l 1
 100 350 l 1
 239.28515625 343.10546875 l 1
 227.08203125 589.623046875 l 1x9020
 100 583.33203125 l 1
 100 683.33203125 l 1
 222.744140625 677.255859375 l 1
 216.66796875 800 l 1x9240
892.1171875 622.544921875 m 1x0880
 640.599609375 610.09375 l 1
 626.43359375 323.939453125 l 1
 907.587890625 310.01953125 l 1
 892.1171875 622.544921875 l 1x0880
559.599609375 606.083984375 m 1x0120
 306.447265625 593.552734375 l 1
 293.916015625 340.400390625 l 1
 573.4375 326.5625 l 1
 559.599609375 606.083984375 l 1x0120
908.578125 290.029296875 m 1x280240
 624.056640625 275.943359375 l 1
 609.970703125 -8.578125 l 1
 924.130859375 -24.130859375 l 1
 908.578125 290.029296875 l 1x280240
576.060546875 273.56640625 m 1
 289.90625 259.400390625 l 1
 277.455078125 7.8828125 l 1
 589.978515625 -7.587890625 l 1x4012
 576.060546875 273.56640625 l 1
EndSplineSet
EndChar

StartChar: U121ef
Encoding: 394 74223 138
Width: 1083
VWidth: 100
Flags: W
HStem: -34.4395 2.22266<806.576 924.531>
VStem: 887.779 95.5527<658.599 710.158 723.254 800>
LayerCount: 2
Fore
SplineSet
883.33203125 800 m 1
 983.33203125 800 l 1
 942.08203125 -33.2578125 l 1
 943.33203125 -33.33203125 l 1
 942.07421875 -33.40625 l 1
 933.33203125 -210 l 1
 924.640625 -34.439453125 l 1
 100 -83.33203125 l 1
 100 16.66796875 l 1
 924.53125 -32.216796875 l 1
 912.388671875 213.041015625 l 1
 516.66796875 166.66796875 l 1
 516.66796875 266.66796875 l 1
 912.02734375 220.3359375 l 1
 904.185546875 378.744140625 l 1
 516.66796875 333.33203125 l 1
 516.66796875 433.33203125 l 1
 903.728515625 387.97265625 l 1
 895.982421875 544.451171875 l 1
 516.66796875 500 l 1
 516.66796875 600 l 1
 895.4296875 555.61328125 l 1
 887.779296875 710.158203125 l 1
 516.66796875 666.66796875 l 1
 516.66796875 766.66796875 l 1
 887.130859375 723.25390625 l 1
 883.33203125 800 l 1
100 516.66796875 m 1
 526.66796875 466.66796875 l 1
 100 416.66796875 l 1
 100 516.66796875 l 1
EndSplineSet
EndChar

StartChar: U12306
Encoding: 395 74502 139
Width: 1083
VWidth: 100
Flags: W
HStem: -75.9863 1.97852<808.631 926.6> 172.441 5.13867<835.22 914.145> 421.354 7.32617<822.9 901.715> 671.818 6.38086<771.61 889.361>
VStem: 889.678 93.6543<658.602 671.818 678.199 800> 926.697 13.3086<-210 -75.9863 -74.0078 -68.2189>
LayerCount: 2
Fore
SplineSet
883.33203125 800 m 1xf8
 983.33203125 800 l 1xf8
 940.025390625 -74.8046875 l 1
 943.33203125 -75 l 1
 940.005859375 -75.197265625 l 1
 933.33203125 -210 l 1
 926.697265625 -75.986328125 l 1xf4
 100 -125 l 1
 100 -25 l 1
 926.599609375 -74.0078125 l 1
 914.3984375 172.44140625 l 1
 377.77734375 125 l 1
 377.77734375 225 l 1
 914.14453125 177.580078125 l 1
 902.076171875 421.353515625 l 1
 377.77734375 375 l 1
 377.77734375 475 l 1
 901.71484375 428.6796875 l 1
 889.677734375 671.818359375 l 1
 100 625 l 1
 100 725 l 1
 889.361328125 678.19921875 l 1
 883.33203125 800 l 1xf8
EndSplineSet
EndChar

StartChar: U120a0
Encoding: 396 73888 140
Width: 1083
VWidth: 100
Flags: W
HStem: -75.9863 1.97852<808.631 926.6> 172.441 5.13867<835.22 914.145> 421.354 7.32617<822.9 901.715> 671.818 6.38086<771.61 889.361>
VStem: 889.678 93.6543<658.602 671.818 678.199 800> 926.697 13.3086<-210 -75.9863 -74.0078 -68.2189>
LayerCount: 2
Fore
SplineSet
883.33203125 800 m 1xf8
 983.33203125 800 l 1xf8
 940.025390625 -74.8046875 l 1
 943.33203125 -75 l 1
 940.005859375 -75.197265625 l 1
 933.33203125 -210 l 1
 926.697265625 -75.986328125 l 1xf4
 100 -125 l 1
 100 -25 l 1
 926.599609375 -74.0078125 l 1
 914.3984375 172.44140625 l 1
 377.77734375 125 l 1
 377.77734375 225 l 1
 914.14453125 177.580078125 l 1
 902.076171875 421.353515625 l 1
 377.77734375 375 l 1
 377.77734375 475 l 1
 901.71484375 428.6796875 l 1
 889.677734375 671.818359375 l 1
 100 625 l 1
 100 725 l 1
 889.361328125 678.19921875 l 1
 883.33203125 800 l 1xf8
EndSplineSet
EndChar

StartChar: U122e2
Encoding: 397 74466 141
Width: 1583
VWidth: 100
Flags: W
HStem: -83.332 100<100 241.398> -34.2578 1.85547<967.326 1091.21> 297.689 4.63672<968.469 1074.64> 583.332 100<100 241.397> 630.777 5.12305<916.98 1058.12>
VStem: 1050 100<658.603 800> 1091.3 17.4414<-173.778 -34.2578 -32.4023 108.107> 1383.33 100<658.6 800>
LayerCount: 2
Fore
SplineSet
1050 800 m 1x2d
 1150 800 l 1x2d
 1108.74804688 -33.26953125 l 1
 1110 -33.33203125 l 1
 1108.7421875 -33.39453125 l 1
 1100 -210 l 1
 1091.30078125 -34.2578125 l 1x6b
 100 -83.33203125 l 1
 100 16.66796875 l 1xa3
 1091.20703125 -32.40234375 l 1
 1074.8671875 297.689453125 l 1
 350 250 l 1
 350 300 l 1
 350 350 l 1
 1074.63671875 302.326171875 l 1
 1058.37695312 630.77734375 l 1x6b
 100 583.33203125 l 1
 100 683.33203125 l 1x33
 1058.12304688 635.900390625 l 1
 1050 800 l 1x2d
350 300 m 1
 100 250 l 1
 100 350 l 1
 350 300 l 1
1383.33203125 800 m 1
 1483.33203125 800 l 1
 1433.33203125 -210 l 1
 1383.33203125 800 l 1
EndSplineSet
EndChar

StartChar: U12055
Encoding: 398 73813 142
Width: 1583
VWidth: 100
Flags: W
HStem: -83.332 100<100 288.067> -34.0293 1.39648<1254.01 1424.55> 630.461 5.75781<1265.88 1391.44>
VStem: 1383.33 100<658.601 800>
LayerCount: 2
Fore
SplineSet
1383.33203125 800 m 1x70
 1483.33203125 800 l 1
 1442.08007812 -33.28515625 l 1
 1443.33203125 -33.33203125 l 1
 1442.07617188 -33.37890625 l 1
 1433.33203125 -210 l 1
 1424.62109375 -34.029296875 l 1x70
 100 -83.33203125 l 1
 100 16.66796875 l 1xb0
 1424.55078125 -32.6328125 l 1
 1415.44921875 151.21484375 l 1
 1267.203125 299.46484375 l 1
 391.66796875 250 l 1
 391.66796875 300 l 1
 391.66796875 350 l 1
 1267.203125 300.53515625 l 1
 1401.4140625 434.748046875 l 1
 1391.72460938 630.4609375 l 1
 544.4453125 583.33203125 l 1
 544.4453125 683.33203125 l 1
 1391.43945312 636.21875 l 1
 1383.33203125 800 l 1x70
391.66796875 300 m 1
 100 250 l 1
 100 350 l 1
 391.66796875 300 l 1
1403.5234375 392.142578125 m 1
 1366.66796875 300 l 1
 1413.93554688 181.828125 l 1
 1403.5234375 392.142578125 l 1
EndSplineSet
EndChar

StartChar: U12009
Encoding: 399 73737 143
Width: 1583
VWidth: 100
Flags: W
VStem: 1383.33 100<658.6 800>
LayerCount: 2
Fore
SplineSet
1383.33203125 800 m 1
 1483.33203125 800 l 1
 1433.33203125 -210 l 1
 1383.33203125 800 l 1
100 683.33203125 m 1
 693.33203125 633.33203125 l 1
 100 583.33203125 l 1
 100 683.33203125 l 1
1031.1875 647.85546875 m 1
 1190.40625 417.9296875 l 1
 960.4765625 577.14453125 l 1
 1031.1875 647.85546875 l 1
906.1875 522.85546875 m 1
 1059.61914062 301.287109375 l 1
 1093.6875 335.35546875 l 1
 1252.90625 105.4296875 l 1
 1022.9765625 264.64453125 l 1
 1057.04882812 298.716796875 l 1
 835.4765625 452.14453125 l 1
 906.1875 522.85546875 l 1
781.1875 397.85546875 m 1
 940.40625 167.9296875 l 1
 710.4765625 327.14453125 l 1
 781.1875 397.85546875 l 1
100 350 m 1
 245.83203125 300 l 1
 100 250 l 1
 100 350 l 1
245.83203125 300 m 1
 245.83203125 350 l 1
 693.33203125 300 l 1
 245.83203125 250 l 1
 245.83203125 300 l 1
100 16.66796875 m 1
 693.33203125 -33.33203125 l 1
 100 -83.33203125 l 1
 100 16.66796875 l 1
EndSplineSet
EndChar

StartChar: U121c9
Encoding: 400 74185 144
Width: 1583
VWidth: 100
Flags: W
HStem: -83.332 100<100 288.067> -34.0293 1.39648<1254.01 1424.55> 250 100<433.332 574.731> 298.26 3.49023<1266.77 1408> 583.332 100<100 288.064> 631.41 3.85156<1203.61 1391.49>
VStem: 1383.33 100<658.615 800> 1424.62 17.4551<-174.017 -34.0293 -32.6328 108.101>
LayerCount: 2
Fore
SplineSet
1383.33203125 800 m 1x06
 1483.33203125 800 l 1x06
 1442.08007812 -33.28515625 l 1
 1443.33203125 -33.33203125 l 1
 1442.07617188 -33.37890625 l 1
 1433.33203125 -210 l 1
 1424.62109375 -34.029296875 l 1x45
 100 -83.33203125 l 1
 100 16.66796875 l 1x81
 1424.55078125 -32.6328125 l 1
 1408.16992188 298.259765625 l 1x51
 433.33203125 250 l 1
 433.33203125 300 l 1
 433.33203125 350 l 1x21
 1407.99804688 301.75 l 1
 1391.67773438 631.41015625 l 1x15
 100 583.33203125 l 1
 100 683.33203125 l 1x09
 1391.48828125 635.26171875 l 1
 1383.33203125 800 l 1x06
433.33203125 300 m 1
 100 250 l 1
 100 350 l 1x20
 433.33203125 300 l 1
EndSplineSet
EndChar

StartChar: U1213f
Encoding: 401 74047 145
Width: 1210
VWidth: 100
Flags: W
HStem: -83.332 100<100 241.4>
LayerCount: 2
Fore
SplineSet
100 683.33203125 m 1
 600 634.3125 l 1
 600 683.33203125 l 1
 1110 633.33203125 l 1
 600 583.33203125 l 1
 600 632.3515625 l 1
 100 583.33203125 l 1
 100 683.33203125 l 1
100 350 m 1
 600 300.98046875 l 1
 600 350 l 1
 1110 300 l 1
 600 250 l 1
 600 299.01953125 l 1
 100 250 l 1
 100 350 l 1
100 16.66796875 m 1
 1110 -33.33203125 l 1
 100 -83.33203125 l 1
 100 16.66796875 l 1
EndSplineSet
EndChar

StartChar: U12140
Encoding: 402 74048 146
Width: 1583
VWidth: 100
Flags: W
HStem: -83.332 100<100 241.398> -34.2578 1.85547<967.326 1091.21>
VStem: 1050 100<658.603 800> 1091.3 17.4414<-173.778 -34.2578 -32.4023 108.107>
LayerCount: 2
Fore
SplineSet
1050 800 m 1x60
 1150 800 l 1x60
 1108.74804688 -33.26953125 l 1
 1110 -33.33203125 l 1
 1108.7421875 -33.39453125 l 1
 1100 -210 l 1
 1091.30078125 -34.2578125 l 1x50
 100 -83.33203125 l 1
 100 16.66796875 l 1x90
 1091.20703125 -32.40234375 l 1
 1074.921875 296.560546875 l 1
 600 250 l 1
 600 299.01953125 l 1
 100 250 l 1
 100 350 l 1
 600 300.98046875 l 1
 600 350 l 1
 1074.58007812 303.47265625 l 1
 1058.5 628.283203125 l 1
 600 583.33203125 l 1
 600 632.3515625 l 1
 100 583.33203125 l 1
 100 683.33203125 l 1
 600 634.3125 l 1
 600 683.33203125 l 1
 1057.99804688 638.4296875 l 1
 1050 800 l 1x60
1383.33203125 800 m 1
 1483.33203125 800 l 1
 1433.33203125 550 l 1
 1383.33203125 800 l 1
1433.33203125 550 m 1
 1483.33203125 550 l 1
 1433.33203125 -210 l 1
 1383.33203125 550 l 1
 1433.33203125 550 l 1
EndSplineSet
EndChar

StartChar: U12222
Encoding: 403 74274 147
Width: 1583
VWidth: 100
Flags: W
HStem: -34.0703 1.47656<671.936 766.668 1331.16 1424.52> 297.404 5.20898<694.566 766.668 1338.62 1407.96> 629.521 7.64844<710.339 766.668 1338.62 1391.39>
VStem: 1383.33 100<658.602 800> 1424.65 17.4199<-173.349 -34.7129 -31.9414 108.131>
LayerCount: 2
Fore
SplineSet
1383.33203125 800 m 1xf0
 1483.33203125 800 l 1xf0
 1442.08203125 -33.240234375 l 1
 1443.33203125 -33.33203125 l 1
 1442.07421875 -33.42578125 l 1
 1433.33203125 -210 l 1
 1424.65429688 -34.712890625 l 1xe8
 766.66796875 -83.33203125 l 1
 766.66796875 -34.0703125 l 1
 100 -83.33203125 l 1
 100 16.66796875 l 1
 766.66796875 -32.59375 l 1
 766.66796875 16.66796875 l 1
 1424.51757812 -31.94140625 l 1
 1408.21289062 297.404296875 l 1
 766.66796875 250 l 1
 766.66796875 299.26171875 l 1
 100 250 l 1
 100 350 l 1
 766.66796875 300.73828125 l 1
 766.66796875 350 l 1
 1407.95507812 302.61328125 l 1
 1391.77148438 629.521484375 l 1
 766.66796875 583.33203125 l 1
 766.66796875 632.59375 l 1
 100 583.33203125 l 1
 100 683.33203125 l 1
 766.66796875 634.0703125 l 1
 766.66796875 683.33203125 l 1
 1391.39257812 637.169921875 l 1
 1383.33203125 800 l 1xf0
EndSplineSet
EndChar

StartChar: U1222e
Encoding: 404 74286 148
Width: 1708
VWidth: 100
Flags: W
HStem: 297.672 4.70117<718.212 823.926>
LayerCount: 2
Fore
SplineSet
877.734375 841.6015625 m 1
 1600.03515625 300.658203125 l 1
 1608.3203125 305.546875 l 1
 1600.9140625 300 l 1
 1608.3203125 294.453125 l 1
 1600.03515625 299.341796875 l 1
 877.734375 -241.6015625 l 1
 822.265625 -158.3984375 l 1
 1598.921875 300 l 1
 822.265625 758.3984375 l 1
 877.734375 841.6015625 l 1
800 466.66796875 m 1
 900 466.66796875 l 1
 850 123.33203125 l 1
 824.611328125 297.671875 l 1
 100 250 l 1
 100 350 l 1
 823.92578125 302.373046875 l 1
 800 466.66796875 l 1
EndSplineSet
EndChar

StartChar: U12216
Encoding: 405 74262 149
Width: 1583
VWidth: 100
Flags: W
HStem: -34.0703 1.47656<671.936 766.668 1328.72 1421.6> 296.797 6.4375<702.462 766.668 1338.61 1399.57> 632.594 1.47656<671.936 766.668 1324.64 1416.27>
LayerCount: 2
Fore
SplineSet
1383.33203125 800 m 1
 1483.33203125 800 l 1
 1433.33203125 550 l 1
 1417.0546875 631.390625 l 1
 766.66796875 583.33203125 l 1
 766.66796875 632.59375 l 1
 100 583.33203125 l 1
 100 683.33203125 l 1
 766.66796875 634.0703125 l 1
 766.66796875 683.33203125 l 1
 1416.265625 635.33203125 l 1
 1383.33203125 800 l 1
1433.33203125 550 m 1
 1483.33203125 550 l 1
 1433.33203125 -210 l 1
 1421.81445312 -34.921875 l 1
 766.66796875 -83.33203125 l 1
 766.66796875 -34.0703125 l 1
 100 -83.33203125 l 1
 100 16.66796875 l 1
 766.66796875 -32.59375 l 1
 766.66796875 16.66796875 l 1
 1421.60351562 -31.7265625 l 1
 1399.99023438 296.796875 l 1
 766.66796875 250 l 1
 766.66796875 299.26171875 l 1
 100 250 l 1
 100 350 l 1
 766.66796875 300.73828125 l 1
 766.66796875 350 l 1
 1399.56640625 303.234375 l 1
 1383.33203125 550 l 1
 1433.33203125 550 l 1
EndSplineSet
EndChar

StartChar: LIG_Equivalent_to_220_DM
Encoding: 406 -1 150
Width: 1583
VWidth: 100
Flags: W
HStem: -34.0703 1.47656<671.936 766.668 1328.72 1421.6> 296.797 6.4375<702.462 766.668 1338.61 1399.57> 632.594 1.47656<671.936 766.668 1324.64 1416.27>
LayerCount: 2
Fore
SplineSet
1383.33203125 800 m 1
 1483.33203125 800 l 1
 1433.33203125 550 l 1
 1417.0546875 631.390625 l 1
 766.66796875 583.33203125 l 1
 766.66796875 632.59375 l 1
 100 583.33203125 l 1
 100 683.33203125 l 1
 766.66796875 634.0703125 l 1
 766.66796875 683.33203125 l 1
 1416.265625 635.33203125 l 1
 1383.33203125 800 l 1
1433.33203125 550 m 1
 1483.33203125 550 l 1
 1433.33203125 -210 l 1
 1421.81445312 -34.921875 l 1
 766.66796875 -83.33203125 l 1
 766.66796875 -34.0703125 l 1
 100 -83.33203125 l 1
 100 16.66796875 l 1
 766.66796875 -32.59375 l 1
 766.66796875 16.66796875 l 1
 1421.60351562 -31.7265625 l 1
 1399.99023438 296.796875 l 1
 766.66796875 250 l 1
 766.66796875 299.26171875 l 1
 100 250 l 1
 100 350 l 1
 766.66796875 300.73828125 l 1
 766.66796875 350 l 1
 1399.56640625 303.234375 l 1
 1383.33203125 550 l 1
 1433.33203125 550 l 1
EndSplineSet
Ligature2: "ligsubtable" U12216 Ufe01
EndChar

StartChar: U12087
Encoding: 407 73863 151
Width: 1583
VWidth: 100
Flags: W
HStem: -34.0703 1.47656<671.936 766.668 1328.72 1421.6> 296.797 6.4375<702.462 766.668 1338.61 1399.57> 632.594 1.47656<671.936 766.668 1324.64 1416.27>
LayerCount: 2
Fore
SplineSet
1383.33203125 800 m 1
 1483.33203125 800 l 1
 1433.33203125 550 l 1
 1417.0546875 631.390625 l 1
 766.66796875 583.33203125 l 1
 766.66796875 632.59375 l 1
 100 583.33203125 l 1
 100 683.33203125 l 1
 766.66796875 634.0703125 l 1
 766.66796875 683.33203125 l 1
 1416.265625 635.33203125 l 1
 1383.33203125 800 l 1
1433.33203125 550 m 1
 1483.33203125 550 l 1
 1433.33203125 -210 l 1
 1421.81445312 -34.921875 l 1
 766.66796875 -83.33203125 l 1
 766.66796875 -34.0703125 l 1
 100 -83.33203125 l 1
 100 16.66796875 l 1
 766.66796875 -32.59375 l 1
 766.66796875 16.66796875 l 1
 1421.60351562 -31.7265625 l 1
 1399.99023438 296.796875 l 1
 766.66796875 250 l 1
 766.66796875 299.26171875 l 1
 100 250 l 1
 100 350 l 1
 766.66796875 300.73828125 l 1
 766.66796875 350 l 1
 1399.56640625 303.234375 l 1
 1383.33203125 550 l 1
 1433.33203125 550 l 1
EndSplineSet
EndChar

StartChar: U12085
Encoding: 408 73861 152
Width: 1583
VWidth: 100
Flags: W
HStem: -34.0703 1.47656<671.936 766.668 1328.72 1421.6> 296.797 6.4375<702.462 766.668 1338.61 1399.57> 632.594 1.47656<671.936 766.668 1324.64 1416.27>
LayerCount: 2
Fore
SplineSet
1383.33203125 800 m 1
 1483.33203125 800 l 1
 1433.33203125 550 l 1
 1417.0546875 631.390625 l 1
 766.66796875 583.33203125 l 1
 766.66796875 632.59375 l 1
 100 583.33203125 l 1
 100 683.33203125 l 1
 766.66796875 634.0703125 l 1
 766.66796875 683.33203125 l 1
 1416.265625 635.33203125 l 1
 1383.33203125 800 l 1
1433.33203125 550 m 1
 1483.33203125 550 l 1
 1433.33203125 -210 l 1
 1421.81445312 -34.921875 l 1
 766.66796875 -83.33203125 l 1
 766.66796875 -34.0703125 l 1
 100 -83.33203125 l 1
 100 16.66796875 l 1
 766.66796875 -32.59375 l 1
 766.66796875 16.66796875 l 1
 1421.60351562 -31.7265625 l 1
 1399.99023438 296.796875 l 1
 766.66796875 250 l 1
 766.66796875 299.26171875 l 1
 100 250 l 1
 100 350 l 1
 766.66796875 300.73828125 l 1
 766.66796875 350 l 1
 1399.56640625 303.234375 l 1
 1383.33203125 550 l 1
 1433.33203125 550 l 1
EndSplineSet
EndChar

StartChar: U121c0
Encoding: 409 74176 153
Width: 1583
VWidth: 100
Flags: W
HStem: -83.332 100<100 288.067> -34.0293 1.39648<1254.01 1424.55> 583.332 100<100 288.064> 631.41 3.85156<1203.61 1391.49>
VStem: 1383.33 100<658.615 800>
LayerCount: 2
Fore
SplineSet
1383.33203125 800 m 1x18
 1483.33203125 800 l 1
 1442.08007812 -33.28515625 l 1
 1443.33203125 -33.33203125 l 1
 1442.07617188 -33.37890625 l 1
 1433.33203125 -210 l 1
 1424.62109375 -34.029296875 l 1x58
 100 -83.33203125 l 1
 100 16.66796875 l 1x88
 1424.55078125 -32.6328125 l 1
 1415.44921875 151.21484375 l 1
 1267.265625 299.40234375 l 1
 488.890625 250 l 1
 488.890625 350 l 1
 1267.265625 300.59765625 l 1
 1401.4140625 434.748046875 l 1
 1391.67773438 631.41015625 l 1x58
 100 583.33203125 l 1
 100 683.33203125 l 1x28
 1391.48828125 635.26171875 l 1
 1383.33203125 800 l 1x18
1403.5234375 392.142578125 m 1
 1366.66796875 300 l 1
 1413.93554688 181.828125 l 1
 1403.5234375 392.142578125 l 1
EndSplineSet
EndChar

StartChar: U12046
Encoding: 410 73798 154
Width: 2083
VWidth: 100
Flags: W
HStem: -83.332 100<454.168 604.316> -33.8301 1.04688<1367.83 1514.92 1517.99 1526.67> 588.365 6.63281<670.313 770.486>
VStem: 805.746 5.15625<0.277344 41.1172>
LayerCount: 2
Fore
SplineSet
758.33203125 800 m 1xb0
 858.33203125 800 l 1
 810.90234375 0.037109375 l 1
 1514.91601562 -32.783203125 l 1
 1102.91796875 376.2265625 l 1
 1141.015625 408.609375 l 1
 1179.11328125 440.9921875 l 1
 1517.39648438 -32.900390625 l 1
 1526.66796875 -33.33203125 l 1
 1517.9921875 -33.736328125 l 1
 1523.14453125 -40.953125 l 1
 1515.97070312 -33.830078125 l 1x70
 454.16796875 -83.33203125 l 1
 454.16796875 -33.33203125 l 1
 454.16796875 16.66796875 l 1
 805.74609375 0.27734375 l 1
 803.326171875 41.1171875 l 1
 670.240234375 174.205078125 l 1
 100 125 l 1
 100 225 l 1
 670.240234375 175.794921875 l 1
 788.337890625 293.896484375 l 1
 770.87890625 588.365234375 l 1
 100 541.66796875 l 1
 100 641.66796875 l 1
 770.486328125 594.998046875 l 1
 758.33203125 800 l 1xb0
1141.015625 408.609375 m 1
 977.703125 523.5390625 l 1
 1053.89453125 588.3046875 l 1
 1141.015625 408.609375 l 1
454.16796875 -33.33203125 m 1
 100 -83.33203125 l 1
 100 16.66796875 l 1xb0
 454.16796875 -33.33203125 l 1
1766.66796875 800 m 1
 1616.66796875 550 l 1
 1766.66796875 300 l 1
 1516.66796875 550 l 1
 1766.66796875 800 l 1
1766.66796875 300 m 1
 1616.66796875 50 l 1
 1766.66796875 -200 l 1
 1516.66796875 50 l 1
 1766.66796875 300 l 1
1883.33203125 800 m 1
 1983.33203125 800 l 1
 1933.33203125 550 l 1
 1883.33203125 800 l 1
1933.33203125 550 m 1
 1983.33203125 550 l 1
 1933.33203125 -210 l 1
 1883.33203125 550 l 1
 1933.33203125 550 l 1
790.853515625 251.46484375 m 1
 769.4453125 175 l 1
 802.357421875 57.451171875 l 1
 790.853515625 251.46484375 l 1
EndSplineSet
EndChar

StartChar: U12029
Encoding: 411 73769 155
Width: 2040
VWidth: 100
Flags: W
LayerCount: 2
Fore
SplineSet
100 683.33203125 m 1
 467.7421875 633.33203125 l 1
 100 583.33203125 l 1
 100 683.33203125 l 1
1075.59375 683.33203125 m 1
 1443.33203125 633.33203125 l 1
 1075.59375 583.33203125 l 1
 1075.59375 683.33203125 l 1
770.875 613.1328125 m 1
 909.2578125 404.0390625 l 1
 700.1640625 542.421875 l 1
 770.875 613.1328125 l 1
1746.46484375 613.1328125 m 1
 1884.84765625 404.0390625 l 1
 1675.75390625 542.421875 l 1
 1746.46484375 613.1328125 l 1
659.76171875 502.0234375 m 1
 792.513671875 301.439453125 l 1
 826.4296875 335.35546875 l 1
 964.8125 126.26171875 l 1
 755.71875 264.64453125 l 1
 789.634765625 298.560546875 l 1
 589.05078125 431.3125 l 1
 659.76171875 502.0234375 l 1
1635.35546875 502.0234375 m 1
 1768.10742188 301.439453125 l 1
 1802.0234375 335.35546875 l 1
 1940.40625 126.26171875 l 1
 1731.3125 264.64453125 l 1
 1765.22851562 298.560546875 l 1
 1564.64453125 431.3125 l 1
 1635.35546875 502.0234375 l 1
548.65234375 390.91015625 m 1
 687.03515625 181.81640625 l 1
 477.94140625 320.19921875 l 1
 548.65234375 390.91015625 l 1
1524.24609375 390.91015625 m 1
 1662.625 181.81640625 l 1
 1453.53515625 320.19921875 l 1
 1524.24609375 390.91015625 l 1
100 350 m 1
 467.7421875 300 l 1
 100 250 l 1
 100 350 l 1
1075.59375 350 m 1
 1443.33203125 300 l 1
 1075.59375 250 l 1
 1075.59375 350 l 1
100 16.66796875 m 1
 467.7421875 -33.33203125 l 1
 100 -83.33203125 l 1
 100 16.66796875 l 1
1075.59375 16.66796875 m 1
 1443.33203125 -33.33203125 l 1
 1075.59375 -83.33203125 l 1
 1075.59375 16.66796875 l 1
EndSplineSet
EndChar

StartChar: U122fa
Encoding: 412 74490 156
Width: 2229
VWidth: 100
Flags: W
HStem: -83.332 95.291<529.062 624.174 633.908 670.463> 513.396 0.869141<531.938 539.062> 514.266 1.12891<531.938 539.062>
VStem: 624.174 9.73438<11.959 90.6561> 826.377 5.35547<1.94922 119.753> 1025.93 6.23438<-7.92969 70.9409> 1226.81 4.48047<-17.875 61.0809> 1428.79 0.269531<-43.332 -38.791 -27.8418 87.9788>
LayerCount: 2
Fore
SplineSet
158.125 840.6875 m 1x9f
 229.0625 728.57421875 l 1
 100 759.3125 l 1
 158.125 840.6875 l 1x9f
229.0625 728.57421875 m 1
 258.125 769.26171875 l 1
 529.798828125 515.39453125 l 1xbf
 539.0625 514.265625 l 1
 531.9375 513.396484375 l 1xdf
 537.19921875 508.48046875 l 1
 528.701171875 513.001953125 l 1
 129.0625 464.265625 l 1
 129.0625 564.265625 l 1
 522.5390625 516.28125 l 1
 200 687.88671875 l 1
 229.0625 728.57421875 l 1
779.0625 800 m 1
 879.0625 800 l 1
 831.732421875 1.68359375 l 1
 1025.93164062 -7.9296875 l 1
 979.0625 522.22265625 l 1
 1079.0625 522.22265625 l 1
 1032.16601562 -8.23828125 l 1
 1226.8125 -17.875 l 1
 1179.0625 522.22265625 l 1
 1279.0625 522.22265625 l 1
 1231.29296875 -18.095703125 l 1
 1428.14453125 -27.841796875 l 1
 1379.0625 800 l 1
 1479.0625 800 l 1
 1429.97460938 -27.931640625 l 1
 1539.0625 -33.33203125 l 1
 1429.33398438 -38.763671875 l 1
 1429.0625 -43.33203125 l 1
 1428.79296875 -38.791015625 l 1
 529.0625 -83.33203125 l 1
 529.0625 -58.3671875 l 1
 129.0625 -107.1484375 l 1
 129.0625 -7.1484375 l 1
 529.0625 -55.9296875 l 1
 529.0625 16.66796875 l 1
 624.173828125 11.958984375 l 1
 579.0625 522.22265625 l 1
 679.0625 522.22265625 l 1
 633.908203125 11.478515625 l 1
 826.376953125 1.94921875 l 1
 779.0625 800 l 1
1729.0625 500 m 1
 1629.0625 300 l 1
 1729.0625 100 l 1
 1529.0625 300 l 1
 1729.0625 500 l 1
1929.0625 500 m 1
 1829.0625 300 l 1
 1929.0625 100 l 1
 1729.0625 300 l 1
 1929.0625 500 l 1
2129.0625 500 m 1
 2029.0625 300 l 1
 2129.0625 100 l 1
 1929.0625 300 l 1
 2129.0625 500 l 1
129.0625 278.55859375 m 1
 539.0625 228.55859375 l 1
 129.0625 178.55859375 l 1
 129.0625 278.55859375 l 1
EndSplineSet
EndChar

StartChar: U121a6
Encoding: 413 74150 157
Width: 1083
VWidth: 100
Flags: W
HStem: -75.9863 1.97852<808.631 926.6> 173.281 3.44727<796.289 914.188> 422.551 4.91406<783.952 901.773> 671.818 6.38086<771.61 889.361>
VStem: 889.678 93.6543<658.6 671.818 678.199 800> 926.697 13.3086<-210 -75.9863 -74.0078 -68.2189>
LayerCount: 2
Fore
SplineSet
883.33203125 800 m 1xf8
 983.33203125 800 l 1xf8
 940.025390625 -74.8046875 l 1
 943.33203125 -75 l 1
 940.005859375 -75.197265625 l 1
 933.33203125 -210 l 1
 926.697265625 -75.986328125 l 1xf4
 100 -125 l 1
 100 -25 l 1
 926.599609375 -74.0078125 l 1
 914.357421875 173.28125 l 1
 100 125 l 1
 100 225 l 1
 914.1875 176.728515625 l 1
 902.017578125 422.55078125 l 1
 100 375 l 1
 100 475 l 1
 901.7734375 427.46484375 l 1
 889.677734375 671.818359375 l 1
 100 625 l 1
 100 725 l 1
 889.361328125 678.19921875 l 1
 883.33203125 800 l 1xf8
EndSplineSet
EndChar

StartChar: U12337
Encoding: 414 74551 158
Width: 1583
VWidth: 100
Flags: W
HStem: -34.7129 2.77148<996.587 1091.19> 250 100<100 241.399> 298.26 3.49023<933.439 1074.67> 629.521 7.64844<963.705 1058.06>
VStem: 1050 100<658.602 800> 1091.32 17.4199<-173.349 -34.7129 -31.9414 108.131> 1383.33 100<658.6 800>
LayerCount: 2
Fore
SplineSet
1050 800 m 1xba
 1150 800 l 1xba
 1108.75 -33.240234375 l 1
 1110 -33.33203125 l 1
 1108.7421875 -33.42578125 l 1
 1100 -210 l 1
 1091.32226562 -34.712890625 l 1
 433.33203125 -83.33203125 l 1
 433.33203125 16.66796875 l 1
 1091.18554688 -31.94140625 l 1
 1074.83789062 298.259765625 l 1xb6
 100 250 l 1
 100 350 l 1xd6
 1074.66601562 301.75 l 1
 1058.43945312 629.521484375 l 1
 433.33203125 583.33203125 l 1
 433.33203125 683.33203125 l 1
 1058.06054688 637.169921875 l 1
 1050 800 l 1xba
1383.33203125 800 m 1
 1483.33203125 800 l 1
 1433.33203125 -210 l 1
 1383.33203125 800 l 1
EndSplineSet
EndChar

StartChar: U1235a
Encoding: 415 74586 159
Width: 1589
VWidth: 100
Flags: W
HStem: 297.689 4.63672<718.469 824.637>
VStem: 800 100<658.6 800>
LayerCount: 2
Fore
SplineSet
800 800 m 1
 900 800 l 1
 850 -210 l 1
 824.8671875 297.689453125 l 1
 100 250 l 1
 100 350 l 1
 824.63671875 302.326171875 l 1
 800 800 l 1
1197.85546875 647.85546875 m 1
 1415.16210938 363.41015625 l 1
 1489.21875 424.921875 l 1
 1426.1640625 349.0078125 l 1
 1426.71875 348.28125 l 1
 1426.00976562 348.822265625 l 1
 1142.50390625 7.49609375 l 1
 1071.79296875 78.20703125 l 1
 1134.65234375 130.41796875 l 1
 877.14453125 327.14453125 l 1
 947.85546875 397.85546875 l 1
 1145.3671875 139.318359375 l 1
 1272.93164062 245.2734375 l 1
 1002.14453125 452.14453125 l 1
 1072.85546875 522.85546875 l 1
 1280.26367188 251.36328125 l 1
 1411.2109375 360.12890625 l 1
 1127.14453125 577.14453125 l 1
 1197.85546875 647.85546875 l 1
EndSplineSet
EndChar

StartChar: U122bf
Encoding: 416 74431 160
Width: 1710
VWidth: 100
Flags: W
HStem: -83.332 100<600 741.401> -42.082 17.5508<1293.03 1432.22 1434.44 1574.08>
VStem: 763.59 6.13672<8.57031 126.331> 1432.22 2.22266<-24.5312 93.424>
LayerCount: 2
Fore
SplineSet
716.66796875 800 m 1xb0
 816.66796875 800 l 1
 769.7265625 8.265625 l 1
 1432.21679688 -24.53125 l 1
 1383.33203125 800 l 1
 1483.33203125 800 l 1
 1434.43945312 -24.640625 l 1
 1610 -33.33203125 l 1
 1433.40625 -42.07421875 l 1
 1433.33203125 -43.33203125 l 1
 1433.2578125 -42.08203125 l 1x70
 600 -83.33203125 l 1
 600 -34.3125 l 1
 100 -83.33203125 l 1
 100 16.66796875 l 1
 600 -32.3515625 l 1
 600 16.66796875 l 1
 763.58984375 8.5703125 l 1
 716.66796875 800 l 1xb0
933.33203125 700 m 1
 1033.33203125 700 l 1
 983.33203125 56.66796875 l 1
 933.33203125 700 l 1
1166.66796875 700 m 1
 1266.66796875 700 l 1
 1216.66796875 541.66796875 l 1
 1166.66796875 700 l 1
1216.66796875 541.66796875 m 1
 1266.66796875 541.66796875 l 1
 1216.66796875 56.66796875 l 1
 1166.66796875 541.66796875 l 1
 1216.66796875 541.66796875 l 1
100 683.33203125 m 1
 610 633.33203125 l 1
 100 583.33203125 l 1
 100 683.33203125 l 1
100 350 m 1
 610 300 l 1
 100 250 l 1
 100 350 l 1
EndSplineSet
EndChar

StartChar: U122c3
Encoding: 417 74435 161
Width: 1710
VWidth: 100
Flags: W
HStem: -83.332 93.9707<600 721.801 728.182 741.402> 0 21G<100 304>
VStem: 721.801 6.38086<10.6387 128.39> 971.32 7.32617<-1.71484 77.1> 1222.42 5.13867<-14.1445 64.7802> 1474.01 1.97852<-26.5996 91.3694>
LayerCount: 2
Fore
SplineSet
675 800 m 1xbc
 775 800 l 1
 728.181640625 10.322265625 l 1
 971.3203125 -1.71484375 l 1
 925 522.22265625 l 1
 1025 522.22265625 l 1
 978.646484375 -2.076171875 l 1
 1222.41992188 -14.14453125 l 1
 1175 522.22265625 l 1
 1275 522.22265625 l 1
 1227.55859375 -14.3984375 l 1
 1474.0078125 -26.599609375 l 1
 1425 800 l 1
 1525 800 l 1
 1475.98632812 -26.697265625 l 1
 1610 -33.33203125 l 1
 1475.19726562 -40.005859375 l 1
 1475 -43.33203125 l 1
 1474.8046875 -40.025390625 l 1
 600 -83.33203125 l 1
 600 16.66796875 l 1
 721.80078125 10.638671875 l 1
 675 800 l 1xbc
600 716.66796875 m 1
 533.33203125 550 l 1
 600 383.33203125 l 1
 434.603515625 548.728515625 l 1
 100 500 l 1
 100 600 l 1
 434.603515625 551.271484375 l 1
 600 716.66796875 l 1
100 100 m 1
 610 50 l 1
 100 0 l 1x7c
 100 100 l 1
EndSplineSet
EndChar

StartChar: U12274
Encoding: 418 74356 162
Width: 2200
VWidth: 100
Flags: W
HStem: 0 21G<100 370.661> 22.9434 54.5078<366.376 405.15 461.107 498.635> 296.797 6.4375<638.594 732.902> 631.391 3.94141<655.658 749.602>
VStem: 1633.04 6.96875<140 183.201> 1640.01 7.56445<143.499 183.201>
LayerCount: 2
Fore
SplineSet
1184.22265625 846.81640625 m 1xf0
 1842.6953125 546.48828125 l 1
 1149.109375 753.18359375 l 1
 1184.22265625 846.81640625 l 1xf0
716.66796875 800 m 1
 816.66796875 800 l 1
 766.66796875 550 l 1
 750.390625 631.390625 l 1
 100 583.33203125 l 1
 100 683.33203125 l 1
 749.6015625 635.33203125 l 1
 716.66796875 800 l 1
766.66796875 550 m 1
 816.66796875 550 l 1
 802.583984375 335.916015625 l 1
 1166.66796875 700 l 1
 866.66796875 300 l 1
 1166.66796875 -100 l 1
 798.150390625 268.517578125 l 1
 766.66796875 -210 l 1
 749.693359375 48.005859375 l 1
 456.501953125 26.341796875 l 1
 433.33203125 -210 l 1
 410.494140625 22.943359375 l 1
 100 0 l 1
 100 100 l 1
 405.150390625 77.451171875 l 1
 386.16015625 271.14453125 l 1
 100 250 l 1
 100 350 l 1
 732.90234375 303.234375 l 1
 716.66796875 550 l 1
 766.66796875 550 l 1
2100 566.66796875 m 1
 1933.33203125 300 l 1
 2100 33.33203125 l 1
 1833.33203125 300 l 1
 2100 566.66796875 l 1
1453.30859375 462.5 m 1
 1593.75585938 426.7890625 l 1
 1590.01171875 450 l 1
 1690.01171875 450 l 1
 1647.76367188 188.056640625 l 1
 1649.953125 187.5 l 1
 1647.57617188 186.89453125 l 1xf4
 1640.01171875 140 l 1
 1633.04296875 183.201171875 l 1xf8
 1453.30859375 137.5 l 1
 1453.30859375 212.5 l 1
 1453.30859375 222.45703125 l 1
 1266.66796875 175 l 1
 1266.66796875 275 l 1
 1453.30859375 227.54296875 l 1
 1453.30859375 287.5 l 1
 1453.30859375 362.5 l 1
 1453.30859375 372.45703125 l 1
 1266.66796875 325 l 1
 1266.66796875 425 l 1
 1453.30859375 377.54296875 l 1
 1453.30859375 462.5 l 1
1598.18359375 399.3359375 m 1
 1502.46875 375 l 1
 1606.36914062 348.58203125 l 1
 1598.18359375 399.3359375 l 1
1609.80273438 327.291015625 m 1
 1502.46875 300 l 1
 1618.984375 270.375 l 1
 1609.80273438 327.291015625 l 1
733.326171875 296.796875 m 1
 481.19140625 278.166015625 l 1
 461.107421875 73.31640625 l 1
 749.4296875 52.01171875 l 1
 733.326171875 296.796875 l 1
1621.42382812 255.24609375 m 1
 1502.46875 225 l 1
 1631.59765625 192.16796875 l 1
 1621.42382812 255.24609375 l 1
1842.6953125 53.51171875 m 1
 1184.22265625 -246.81640625 l 1
 1149.109375 -153.18359375 l 1
 1842.6953125 53.51171875 l 1
EndSplineSet
EndChar

StartChar: U1228f
Encoding: 419 74383 163
Width: 1710
VWidth: 100
Flags: W
HStem: -75.6582 1.31641<743.599 850> -33.332 12.9043<1503.6 1520.26>
VStem: 1034.66 5.65234<4.51953 122.212> 1411.13 2.72656<-20.248 97.6374>
LayerCount: 2
Fore
SplineSet
987.5 800 m 1
 1087.5 800 l 1
 1040.31445312 4.146484375 l 1
 1411.13085938 -20.248046875 l 1
 1362.5 800 l 1
 1462.5 800 l 1
 1413.85742188 -20.427734375 l 1
 1610 -33.33203125 l 1
 850 -83.33203125 l 1
 850 -75.658203125 l 1
 100 -125 l 1
 100 -25 l 1
 850 -74.341796875 l 1
 850 16.66796875 l 1
 1034.66210938 4.51953125 l 1
 987.5 800 l 1
100 725 m 1
 860 675 l 1
 100 625 l 1
 100 725 l 1
100 475 m 1
 860 425 l 1
 100 375 l 1
 100 475 l 1
100 225 m 1
 860 175 l 1
 100 125 l 1
 100 225 l 1
EndSplineSet
EndChar

StartChar: Uf002
Encoding: 420 61442 164
Width: 2210
VWidth: 100
Flags: W
HStem: -83.332 93.916<766.668 930.135 936.514 954.737> -75.7383 1.47656<671.936 766.668> -39.916 13.1973<1746.27 1932.35 1934.31 2110>
VStem: 930.135 6.37891<10.584 128.41> 1264.21 4.9082<-1.85156 116.035> 1932.35 1.96484<-26.7188 91.2733>
LayerCount: 2
Fore
SplineSet
883.33203125 800 m 1x9c
 983.33203125 800 l 1
 936.513671875 10.345703125 l 1
 1264.20898438 -1.8515625 l 1
 1216.66796875 800 l 1
 1316.66796875 800 l 1
 1269.1171875 -2.033203125 l 1
 1932.34765625 -26.71875 l 1
 1908.3046875 378.783203125 l 1
 1558.33203125 333.33203125 l 1
 1558.33203125 383.33203125 l 1
 1558.33203125 433.33203125 l 1
 1907.76171875 387.951171875 l 1
 1883.33203125 800 l 1
 1983.33203125 800 l 1
 1934.3125 -26.79296875 l 1
 2110 -33.33203125 l 1
 1933.53515625 -39.900390625 l 1
 1933.33203125 -43.33203125 l 1
 1933.12890625 -39.916015625 l 1x3c
 766.66796875 -83.33203125 l 1x9c
 766.66796875 -75.73828125 l 1
 100 -125 l 1
 100 -25 l 1
 766.66796875 -74.26171875 l 1x5c
 766.66796875 16.66796875 l 1
 930.134765625 10.583984375 l 1
 883.33203125 800 l 1x9c
1558.33203125 383.33203125 m 1
 1433.33203125 333.33203125 l 1
 1433.33203125 433.33203125 l 1
 1558.33203125 383.33203125 l 1
100 725 m 1
 776.66796875 675 l 1
 100 625 l 1
 100 725 l 1
100 475 m 1
 776.66796875 425 l 1
 100 375 l 1
 100 475 l 1
100 225 m 1
 776.66796875 175 l 1
 100 125 l 1
 100 225 l 1
EndSplineSet
EndChar

StartChar: Uf003
Encoding: 421 61443 165
Width: 2210
VWidth: 100
Flags: W
HStem: -83.332 94.6074<766.668 911.566 918.027 954.736> -75.7383 1.47656<671.936 766.668>
VStem: 911.566 6.46094<11.2754 129.1> 1208.5 5.15234<0.222656 118.096> 1653.98 3.19141<-16.3594 101.589> 1951.54 0.322266<-43.332 -39.2305 -27.3984 59.1902>
LayerCount: 2
Fore
SplineSet
864.8046875 800 m 1xbc
 964.8046875 800 l 1
 918.02734375 11.03515625 l 1
 1208.50390625 0.22265625 l 1
 1161.0859375 800 l 1
 1261.0859375 800 l 1
 1213.65625 0.03125 l 1
 1653.98242188 -16.359375 l 1
 1605.58203125 800 l 1
 1705.58203125 800 l 1
 1657.17382812 -16.4765625 l 1
 1950.60546875 -27.3984375 l 1
 1901.859375 591.66796875 l 1
 1951.859375 591.66796875 l 1
 2001.859375 591.66796875 l 1
 1953.10742188 -27.4921875 l 1
 2110 -33.33203125 l 1
 1952.18359375 -39.20703125 l 1
 1951.859375 -43.33203125 l 1
 1951.53710938 -39.23046875 l 1
 766.66796875 -83.33203125 l 1xbc
 766.66796875 -75.73828125 l 1
 100 -125 l 1
 100 -25 l 1
 766.66796875 -74.26171875 l 1x7c
 766.66796875 16.66796875 l 1
 911.56640625 11.275390625 l 1
 864.8046875 800 l 1xbc
1951.859375 591.66796875 m 1
 1901.859375 800 l 1
 2001.859375 800 l 1
 1951.859375 591.66796875 l 1
100 725 m 1
 776.66796875 675 l 1
 100 625 l 1
 100 725 l 1
100 475 m 1
 776.66796875 425 l 1
 100 375 l 1
 100 475 l 1
100 225 m 1
 776.66796875 175 l 1
 100 125 l 1
 100 225 l 1
EndSplineSet
EndChar

